<?xml version="1.0" encoding="UTF-8"?>
<svg id="Ebene_2" data-name="Ebene 2" xmlns="http://www.w3.org/2000/svg" viewBox="0 0 166 16">
  <g id="Header">
    <g id="_21_Komplizierte_Draehte" data-name="21_Komplizierte_Draehte">
      <rect id="Exportfläche_Dateiname" data-name="Exportfläche Dateiname" width="166" height="16" fill="none"/>
      <g>
        <rect x=".91" y=".43" width="165.09" height="15.57" fill="none"/>
        <path d="M56.08,7.77s-.04.06-.12.09c-.08.02-.18.04-.29.05-.12.01-.24.02-.37.02s-.25,0-.35,0h-.25c-.1,0-.21,0-.3.01-.1,0-.2.01-.3.01-.03,0-.08,0-.13,0-.06,0-.11-.01-.16-.02-.05-.01-.1-.03-.13-.06-.04-.02-.06-.06-.06-.11,0,0,0-.04.03-.11s.05-.13.09-.21c.04-.07.08-.14.14-.2.05-.06.12-.09.18-.09.04,0,.08,0,.11.02.01-.05.02-.1.02-.15,0-.1-.02-.2-.06-.28s-.09-.17-.14-.25c-.05-.08-.1-.17-.15-.25-.05-.08-.08-.18-.1-.28-.01-.06-.03-.11-.06-.15-.03-.04-.05-.08-.09-.12-.03-.04-.06-.08-.09-.12s-.04-.09-.06-.16c0-.05-.01-.08-.02-.1,0-.02-.02-.04-.04-.06s-.03-.03-.06-.04-.05-.03-.09-.05c-.04-.02-.06-.05-.07-.08-.01-.03-.02-.06-.03-.09,0-.03,0-.06-.01-.1,0-.03-.01-.07-.03-.1-.03-.01-.05-.03-.08-.04-.02-.01-.05-.02-.08-.04-.02-.05-.04-.11-.06-.17-.02-.06-.04-.12-.07-.18s-.06-.1-.1-.14c-.04-.04-.1-.06-.17-.06-.05,0-.09.02-.14.06-.05.04-.1.09-.15.15-.05.06-.1.12-.15.18-.05.06-.1.12-.15.16,0,.01,0,.03,0,.04v.04s0,.09,0,.13c0,.04,0,.09,0,.13,0,.06,0,.11-.02.16s-.04.08-.06.13c-.02.04-.04.08-.06.12-.02.04-.02.09-.02.14,0,.11.01.23.04.34.03.11.04.23.04.34,0,.06,0,.12,0,.18s0,.12,0,.18c0,.13.02.23.07.3.05.07.1.12.17.16.07.04.14.07.22.08.08.02.16.03.23.05.07.02.12.04.17.06.05.03.07.07.07.13,0,.05-.01.1-.03.15-.02.05-.05.1-.09.15s-.08.09-.13.12c-.05.03-.1.05-.14.06-.02,0-.04,0-.06,0h-.06c-.05,0-.11,0-.16-.02-.05-.01-.11-.02-.17-.02-.05,0-.09,0-.14.02-.04.01-.09.03-.14.04-.11.02-.23.05-.35.07-.12.02-.23.03-.35.03-.05,0-.1-.01-.17-.04s-.13-.07-.18-.11c-.06-.05-.11-.1-.15-.16-.04-.06-.06-.12-.06-.19,0-.1.03-.18.1-.24.07-.07.14-.11.23-.14.03-.06.07-.09.12-.1s.09-.02.13-.02c.04,0,.08-.02.11-.04.03-.02.05-.08.06-.16,0-.07.03-.14.06-.19.03-.06.05-.12.05-.19v-.03c-.03-.25-.06-.5-.08-.75-.03-.25-.04-.5-.04-.75,0-.24,0-.47.01-.71,0-.24.03-.48.05-.71,0-.05.02-.1.02-.15,0-.05.01-.1.01-.16,0-.06-.01-.11-.04-.16-.03-.05-.04-.1-.04-.16,0-.07,0-.14.01-.21,0-.07.01-.14.01-.21,0-.05,0-.1-.01-.15,0-.05-.01-.09-.01-.14,0-.07,0-.14,0-.2,0-.07,0-.13,0-.2,0-.14,0-.25-.03-.33-.02-.08-.05-.14-.1-.19-.05-.04-.12-.07-.2-.08-.08-.01-.2-.02-.34-.02-.06,0-.12,0-.17,0s-.11-.02-.16-.04c-.05-.02-.09-.05-.12-.09-.03-.04-.05-.1-.05-.17s.02-.15.05-.23c.03-.08.08-.14.14-.19.05-.04.12-.07.22-.09.1-.03.21-.05.34-.07.13-.02.26-.03.4-.04.14,0,.28-.02.41-.02.13,0,.26,0,.37-.01.11,0,.2,0,.27,0,.12,0,.22,0,.29.02.08.01.14.04.19.09.05.04.08.1.1.18.02.08.03.17.03.3s-.03.23-.09.32c-.06.09-.16.13-.3.13-.04,0-.08,0-.12,0-.04,0-.08,0-.12,0-.05,0-.11.02-.16.06-.05.04-.1.09-.14.14-.04.05-.07.11-.1.16s-.04.09-.04.11c0,.06.01.12.04.18.02.06.04.12.04.18,0,.07-.01.14-.03.2s-.03.13-.03.2c0,.03,0,.05,0,.08,0,.02,0,.05.02.07,0,.03,0,.08.01.14s0,.14.01.22c0,.08,0,.16.02.25,0,.08.02.16.03.23.01.07.03.13.06.17.02.04.05.07.09.07.06,0,.12-.05.2-.14.08-.09.15-.2.22-.32.07-.12.14-.25.19-.37.06-.12.09-.21.1-.26.07-.03.14-.07.2-.12.06-.05.11-.1.16-.15.04-.04.09-.09.16-.18.07-.08.15-.17.22-.26s.14-.18.2-.27c.05-.09.08-.15.08-.2,0-.05-.01-.11-.04-.17s-.06-.13-.09-.19c-.03-.07-.06-.14-.09-.21-.03-.07-.04-.14-.04-.22,0-.06.04-.12.12-.16s.17-.07.28-.09c.11-.02.22-.04.33-.05.11,0,.19-.01.25-.01.27,0,.53.03.8.1.26.07.52.16.76.27-.04.11-.09.2-.14.25-.05.05-.12.09-.18.12s-.13.04-.21.05c-.08,0-.15.01-.23.03-.08.01-.16.03-.24.07s-.16.09-.23.17c-.06.06-.11.12-.16.19s-.1.13-.15.19c-.05.06-.11.12-.16.17-.06.06-.12.1-.2.15v.03c0,.13-.03.24-.1.34-.07.1-.14.2-.22.31-.08.1-.16.22-.22.34s-.1.27-.1.44c0,.09,0,.18.03.28.02.1.05.2.09.3.04.09.09.18.15.25.06.08.14.13.23.16,0,.02,0,.06.01.12,0,.06.02.13.03.2.01.07.03.14.05.21.02.07.04.12.07.15.02.02.04.05.04.06,0,.02,0,.03,0,.05,0,.02,0,.03,0,.05,0,.02,0,.04.02.06.02.02.05.03.08.04s.05.02.08.04v.23s.03.05.04.06c.02,0,.04.01.07.01.02,0,.04.02.05.07.01.05.03.1.04.17.01.07.03.14.04.21s.04.13.06.18c.04.06.07.13.09.19s.05.14.08.2c.03.07.06.13.09.2.03.06.07.12.12.17.07.08.15.14.26.18.1.04.2.08.29.09.02,0,.07.02.13.05.06.02.12.05.19.08.06.03.12.07.16.1s.07.07.07.1Z" fill="#e8e9ed"/>
        <path d="M61.88,5.66c0,.05,0,.1-.02.14-.02.04-.03.08-.05.12-.02.03-.04.06-.05.08s-.02.03-.02.04c0,.04.01.07.03.11.02.04.04.08.04.13,0,.02,0,.04-.02.04s-.03.01-.05.01c-.03,0-.06,0-.08-.01,0,.07,0,.13.02.2,0,.06.01.13.01.2,0,.1,0,.17-.03.2-.02.03-.04.05-.06.06s-.04.02-.06.02c-.02,0-.03.04-.03.1,0,.03-.02.07-.07.12s-.1.1-.16.15c-.06.05-.13.09-.19.13-.07.04-.12.05-.16.05-.01,0-.02,0-.04-.01,0,.03,0,.06,0,.09s0,.06,0,.09c0,.05-.01.08-.04.09-.03.02-.06.03-.1.05-.05.02-.11.06-.17.11-.06.05-.12.1-.18.15-.06.05-.12.09-.19.13-.06.04-.13.06-.2.06-.06,0-.11-.01-.16-.04s-.11-.04-.17-.04c-.06,0-.11,0-.14.02-.04.02-.08.03-.11.05-.04.02-.07.04-.11.05-.04.02-.08.02-.12.02-.09,0-.19-.02-.28-.07-.09-.05-.18-.09-.27-.12-.05-.02-.1-.03-.16-.04-.06,0-.11-.02-.17-.03s-.1-.03-.15-.05c-.05-.02-.09-.06-.13-.1-.08-.09-.16-.17-.26-.23-.1-.06-.2-.12-.31-.17s-.2-.11-.3-.17c-.1-.06-.18-.14-.25-.23-.05-.08-.12-.16-.18-.24-.07-.09-.13-.18-.19-.28-.06-.1-.11-.2-.15-.3s-.06-.2-.06-.3c0-.07,0-.14.02-.21.01-.07.03-.14.04-.21.02-.07.03-.14.05-.21s.02-.14.02-.21v-.06s0-.03-.02-.05c0-.02-.02-.03-.04-.05-.01-.02-.02-.03-.04-.04-.01-.01-.02-.02-.02-.02,0,0-.01,0-.01,0,0-.03.01-.08.03-.15.02-.07.04-.13.06-.2.02-.07.04-.13.06-.19.02-.06.04-.1.06-.12.02-.02.04-.04.06-.06.02-.02.03-.05.03-.08s0-.06,0-.09c0-.03,0-.06,0-.09,0-.04,0-.07.02-.08.01,0,.03-.01.04-.01s.04,0,.05,0c.02,0,.04-.02.05-.06.03-.06.06-.12.09-.18.03-.06.06-.11.1-.15s.08-.09.12-.13c.05-.04.1-.08.17-.11.06-.03.11-.07.17-.12.05-.05.11-.09.17-.14s.12-.09.17-.12.12-.05.19-.05c.1,0,.19-.02.28-.05.09-.03.18-.06.28-.08.15-.02.29-.04.44-.06.14-.02.29-.03.44-.03.08,0,.18.01.3.04.12.03.24.06.36.1s.24.09.35.15.2.11.26.16v.02c0,.05,0,.1-.03.15-.02.05-.03.1-.03.15v.02s0,.01,0,.01c.06,0,.12,0,.18-.02.05-.02.11-.02.17-.02,0,.06.03.1.08.12.05.02.09.04.14.06.04.02.08.06.12.12.04.06.07.12.1.19.03.07.06.14.09.21.03.07.06.12.09.17.03.04.05.09.08.15.02.06.04.12.06.19s.03.13.04.19c0,.06,0,.12,0,.17,0,.07-.01.13-.04.18-.03.05-.06.09-.09.13-.03.04-.06.07-.09.11-.03.03-.04.07-.04.12,0,.02,0,.05.02.07s.02.04.04.06c0,0,.02,0,.05-.01s.04-.01.04-.03h0s-.01-.06-.04-.09-.04-.06-.04-.09c0,0,0-.02.01-.04,0-.02.02-.02.03-.02.02,0,.04.01.06.04.02.03.04.06.06.09.02.03.04.06.04.08.01.02.02.03.02.02h0s0,.03,0,.04c0,.01,0,.03,0,.04ZM61.35,5.7c0-.06-.02-.09-.06-.1-.04-.01-.09-.02-.14-.02s-.11,0-.16-.02c-.05,0-.09-.03-.11-.08v-.05c0-.08,0-.17-.03-.28-.02-.11-.04-.21-.07-.32-.03-.11-.06-.22-.09-.32-.03-.11-.06-.2-.09-.28s-.06-.17-.1-.27c-.03,0-.05.01-.07.01-.06,0-.11-.01-.16-.04s-.09-.05-.15-.08c-.05-.03-.12-.06-.2-.08-.08-.02-.19-.04-.32-.04-.15,0-.29,0-.44-.03-.14-.02-.29-.03-.43-.03-.2,0-.39.05-.56.14-.18.09-.33.21-.46.36-.13.15-.24.32-.31.5-.08.19-.11.37-.11.56,0,.08,0,.17,0,.28,0,.11.01.21.03.32.01.11.04.2.07.3.03.09.08.16.13.21v.15s.03.02.06.02c.02,0,.05,0,.07,0s.04,0,.06,0c.02,0,.03.02.04.05.05.13.11.23.18.3.07.07.16.13.24.18.09.05.17.1.26.15.09.05.17.12.24.21.03,0,.06,0,.09,0,.03,0,.06,0,.09,0,.12,0,.23,0,.34.02.11.02.22.02.33.02.12,0,.22-.03.32-.09.09-.06.18-.14.24-.23.04-.06.08-.11.12-.16.04-.04.07-.08.11-.12.04-.04.08-.07.12-.11.04-.03.1-.07.16-.12.02-.01.05-.03.08-.05.03-.02.06-.05.09-.07.03-.03.06-.05.08-.08.02-.03.03-.05.03-.08,0-.03,0-.06-.01-.1,0-.03-.01-.06-.01-.1,0-.04,0-.08.02-.13s.03-.1.05-.15c.02-.05.05-.08.09-.12.03-.03.08-.05.12-.05.04,0,.08,0,.12.03.04.02.07.04.11.06,0-.04,0-.06,0-.08Z" fill="#e8e9ed"/>
        <path d="M69.16,7.76s0,.06-.01.12c0,.05-.02.1-.04.16-.02.05-.04.1-.07.14s-.05.06-.09.06c-.04,0-.08,0-.12-.02-.04-.02-.08-.02-.12-.02-.12,0-.25.01-.37.03-.12.02-.24.04-.37.04-.06,0-.12,0-.17-.02-.05-.02-.11-.03-.16-.05-.05-.02-.1-.04-.16-.05-.05-.02-.11-.03-.17-.04-.09,0-.15-.04-.2-.1-.04-.06-.07-.13-.07-.21,0-.1.03-.18.08-.24.05-.07.11-.14.17-.21.06-.07.12-.16.17-.27.05-.1.08-.24.08-.42,0-.35-.02-.7-.05-1.04-.03-.35-.04-.69-.04-1.04v-.16c0-.08,0-.15-.01-.23s-.02-.15-.05-.21c-.03-.06-.07-.11-.12-.15-.05-.04-.13-.06-.23-.06-.08.05-.16.1-.24.16-.07.06-.14.13-.2.21-.02.04-.05.09-.08.18-.03.08-.05.18-.08.28s-.05.22-.07.34-.04.24-.06.35c-.02.11-.03.21-.04.31,0,.09-.02.16-.02.21,0,.14,0,.27.03.41.02.14.03.27.03.41,0,.07,0,.14-.02.21-.01.07-.02.13-.02.21,0,.03,0,.06,0,.09,0,.03.01.06.03.09.04.02.09.05.14.08.06.03.11.07.16.11.05.04.09.08.12.13.03.05.05.09.05.15,0,.1-.04.19-.11.25s-.16.1-.26.1c-.03,0-.05,0-.07,0s-.04,0-.07,0c-.04,0-.07,0-.1.02-.04.01-.07.03-.11.04-.04.02-.07.03-.11.04-.04.01-.08.02-.12.02-.11,0-.22-.01-.32-.04-.1-.03-.21-.04-.32-.04-.03,0-.06-.01-.09-.04-.03-.03-.05-.06-.06-.09s-.03-.07-.04-.11c0-.04,0-.07,0-.1,0-.06.01-.11.04-.15.03-.03.06-.06.1-.09.04-.02.08-.05.13-.08.05-.03.09-.06.13-.11s.07-.11.1-.19c.03-.08.04-.19.04-.32,0-.05,0-.11-.02-.16s-.03-.1-.05-.15-.03-.1-.04-.15c-.01-.05-.02-.1-.02-.16,0-.09.01-.19.03-.28s.03-.19.03-.28c0-.07-.01-.13-.04-.19-.02-.06-.04-.12-.04-.19,0-.05.01-.09.04-.12.03-.04.04-.08.04-.12,0-.01,0-.04,0-.08,0-.04-.02-.08-.03-.14,0-.05-.02-.11-.02-.16s-.01-.11-.01-.16c0-.06,0-.13.02-.19s.02-.13.02-.19c0-.04,0-.08-.03-.11-.02-.03-.04-.06-.08-.09-.03-.03-.07-.05-.11-.06-.04-.01-.08-.02-.11-.02-.06,0-.12.01-.18.03-.06.02-.11.05-.16.09-.05.04-.1.08-.14.12s-.09.08-.13.12c0,.03-.02.07-.03.1,0,.04-.02.07-.04.1-.01.02-.04.04-.07.05-.03.01-.06.03-.09.04-.03.01-.06.03-.08.05-.02.02-.04.04-.04.07,0,.03,0,.05.03.07.02.02.04.03.06.04.04.08.05.15.05.22,0,.06,0,.12-.02.18-.01.06-.03.11-.04.17-.02.06-.03.11-.04.17-.01.06-.02.12-.02.17v.54c0,.05.01.08.03.1.01.02.03.03.04.04.02,0,.03.02.05.04.02.02.03.06.04.11.01.07.02.14.03.22,0,.07.01.15.01.22s0,.15-.02.22c-.01.07-.02.15-.02.22s.01.14.04.17c.02.04.05.06.09.08.04.02.07.03.11.03.04,0,.08.02.11.03.04.01.06.04.09.08s.04.09.04.17c0,.07-.02.13-.06.17-.04.04-.09.08-.16.09-.22.06-.46.11-.7.15s-.48.05-.71.05c-.07,0-.13,0-.18,0-.05,0-.09-.02-.12-.04-.03-.02-.05-.06-.07-.11s-.02-.12-.02-.21c0-.08.03-.16.1-.22.07-.07.14-.13.21-.19.08-.06.15-.12.21-.19.07-.06.1-.13.1-.21,0-.03,0-.06,0-.09,0-.03,0-.05,0-.07,0-.03,0-.06.01-.1,0-.03.03-.07.06-.11,0-.08,0-.16-.02-.24s-.03-.16-.05-.23c-.02-.08-.04-.15-.05-.23-.02-.08-.03-.16-.03-.24,0-.17.02-.33.05-.49.03-.16.04-.33.04-.49,0-.09,0-.18,0-.27s-.01-.18-.02-.27c0-.11-.02-.19-.04-.26-.01-.07-.04-.12-.07-.17-.03-.05-.07-.09-.13-.12-.06-.03-.13-.07-.23-.12-.06-.03-.11-.07-.15-.11-.04-.05-.07-.1-.07-.17,0-.08.02-.13.05-.16.04-.03.07-.05.12-.07.04-.02.09-.03.13-.05s.07-.04.09-.09c.01-.03.03-.05.04-.06.01,0,.04,0,.07,0,.1,0,.19.02.28.05.09.03.17.06.26.1.08.03.16.07.24.1.08.03.15.05.22.05.08,0,.16-.02.24-.07.08-.05.18-.1.28-.16.1-.06.21-.11.34-.16.12-.05.26-.07.42-.07.06,0,.12.01.19.04s.13.06.19.11.12.09.17.14c.05.05.1.1.13.15.09-.08.19-.15.3-.21s.23-.11.36-.15c.12-.04.25-.07.38-.09s.25-.03.37-.03c.09,0,.17.02.24.07.07.05.14.11.19.19.06.08.1.17.14.27.04.1.08.2.11.3.03.1.06.2.09.29.02.1.05.17.07.24,0,.02.01.04.02.05s0,.04,0,.06c0,.05,0,.1-.02.15-.01.05-.03.09-.04.14-.02.04-.03.09-.05.14s-.02.09-.02.15,0,.1.03.15c.02.05.03.09.03.15,0,.05-.01.1-.03.15-.02.05-.03.1-.03.15,0,.07.01.14.04.2.03.06.04.13.04.2,0,.05,0,.1-.02.15-.02.05-.04.1-.05.15s-.04.1-.05.15c-.02.05-.03.1-.03.15,0,.02,0,.03,0,.05,0,.02,0,.03.02.05l.21.53c.03.08.09.15.16.21s.15.13.23.2c.08.06.15.13.21.2.06.07.09.15.09.23Z" fill="#e8e9ed"/>
        <path d="M75.39,5.4c0,.15-.02.3-.05.45-.03.15-.06.3-.08.45,0,.05-.01.1-.01.14,0,.04,0,.08-.01.12,0,.04-.02.08-.04.11-.02.04-.04.08-.08.12-.05.05-.08.1-.1.16-.02.06-.04.11-.05.17-.02.06-.04.11-.07.14-.03.03-.05.06-.09.08-.03.02-.06.04-.1.06-.04.02-.07.05-.11.09-.02.02-.04.05-.04.08,0,.02,0,.05-.01.07,0,.02-.01.05-.02.07-.01.02-.04.04-.07.05-.06.02-.1.05-.12.08-.03.03-.06.07-.1.1-.04.04-.09.08-.15.12-.06.04-.13.07-.2.1s-.14.05-.21.07-.13.03-.19.03c-.07,0-.13,0-.2-.02s-.13-.02-.2-.02c-.04,0-.07,0-.09.02-.02.01-.04.03-.05.04s-.03.03-.05.04c-.02.01-.04.02-.07.02-.06,0-.15-.02-.27-.07-.12-.05-.24-.1-.37-.16-.13-.06-.26-.11-.38-.16-.12-.05-.21-.07-.28-.07-.06,0-.1.02-.14.06-.03.04-.06.09-.08.16-.02.06-.04.13-.05.2,0,.07-.01.14-.02.21s0,.14,0,.23c0,.04,0,.06-.02.07-.01.01-.03.02-.05.02-.01,0-.03,0-.04,0-.01,0-.03,0-.05,0,0,.04,0,.09.02.14.02.05.04.1.06.16.02.06.04.11.07.16s.04.1.05.15c.02.11.05.2.08.25.03.05.06.08.1.1s.1.03.16.02c.06,0,.15,0,.25.01.05,0,.1.02.15.03.05.01.1.03.15.06.04.03.08.06.11.1s.04.09.04.15c0,.12-.03.2-.1.25s-.16.08-.27.08c-.15,0-.29-.01-.44-.03-.15-.02-.29-.03-.44-.03-.16,0-.31,0-.47.03s-.31.03-.46.03c-.04,0-.09,0-.16-.02-.07-.01-.14-.04-.21-.06-.07-.03-.13-.06-.18-.1-.05-.04-.08-.08-.08-.13,0-.03.02-.06.06-.09.04-.03.08-.06.13-.08.05-.02.1-.04.15-.05.05-.01.09-.02.12-.02.06,0,.12,0,.18-.03.05-.02.11-.04.16-.06.05-.02.11-.04.16-.06.05-.02.11-.03.17-.03.03-.14.05-.27.06-.41,0-.14.01-.27.01-.41,0-.1,0-.19,0-.29,0-.1,0-.19,0-.29,0-.19.01-.38.04-.56.03-.19.04-.38.04-.57,0-.12,0-.24-.01-.35l-.02-.35s-.02-.06-.04-.14c-.01-.08-.03-.17-.04-.27-.01-.1-.02-.19-.03-.28,0-.09-.01-.15-.01-.17,0-.04,0-.07.02-.1.01-.03.03-.06.04-.08.01-.02.03-.04.04-.06.01-.02.02-.03.02-.05,0,0,0-.02-.02-.04-.01-.02-.02-.05-.04-.08-.01-.03-.02-.07-.04-.11s-.02-.08-.02-.12c0-.11.01-.23.04-.34.03-.11.04-.23.04-.34,0-.15-.06-.29-.17-.4-.05-.05-.1-.09-.13-.12-.03-.03-.06-.05-.1-.06-.03-.01-.07-.02-.11-.03-.04,0-.1-.01-.18-.02-.04,0-.09-.02-.16-.03-.07-.02-.14-.04-.21-.07s-.13-.06-.18-.1c-.05-.04-.08-.08-.08-.13,0-.06.03-.11.09-.16.06-.04.12-.08.2-.11.08-.03.16-.05.23-.06.08-.01.14-.02.19-.02.05,0,.1,0,.15.01.05,0,.09.03.13.07.04-.04.09-.07.14-.08.06-.01.11-.02.17-.02.15,0,.27.02.35.07s.15.1.2.15c.05.06.09.11.12.15.03.05.07.07.12.07.03,0,.06,0,.08-.02.03-.01.05-.02.08-.04.08-.04.19-.08.34-.13.15-.05.31-.1.48-.15.17-.05.33-.09.48-.12.15-.03.27-.05.35-.05.04,0,.1,0,.17.03.07.02.16.04.24.08.09.03.18.07.28.11.1.04.19.08.27.13.08.04.15.08.21.13.06.04.1.08.12.11.04.06.08.12.13.17.04.05.1.08.18.11.02.03.04.06.04.09,0,.03,0,.07,0,.1v.1c0,.07.01.13.04.17.02.04.05.07.08.1.03.03.06.05.08.08.03.02.04.06.04.1,0,.02,0,.05-.02.07-.01.02-.02.04-.02.06,0,.05.01.11.04.16.02.06.05.12.08.18.03.07.06.14.08.21.03.08.04.16.04.25ZM74.75,5.56c0-.11-.01-.21-.04-.31-.03-.1-.06-.2-.11-.29-.04-.1-.09-.19-.14-.28-.05-.09-.11-.18-.16-.26-.01-.02-.02-.05-.03-.07,0-.03,0-.05,0-.08s0-.05,0-.08c0-.03-.02-.05-.04-.07-.03-.03-.06-.05-.08-.06-.02,0-.05-.01-.07-.01-.02,0-.05-.01-.07-.03s-.05-.05-.08-.1c-.02-.03-.06-.07-.12-.11s-.12-.08-.19-.11-.14-.07-.21-.09c-.07-.02-.12-.03-.15-.03-.07,0-.14.02-.21.05-.07.03-.14.05-.21.05-.05,0-.1,0-.14-.03-.04-.02-.08-.04-.12-.06-.04-.02-.08-.04-.12-.06s-.08-.03-.12-.03h-.03s.01.06.01.09c0,.03,0,.06-.02.08-.01.02-.03.04-.06.05-.02.01-.05.03-.08.04-.03.01-.05.03-.07.04-.03.04-.05.08-.05.12s-.02.06-.06.06c-.03,0-.04,0-.06-.01,0,.02,0,.04-.02.05-.01.01-.03.02-.05.03s-.04.02-.05.02c-.02,0-.03.02-.03.05-.05,0-.09.03-.13.08-.04.05-.07.12-.1.2-.03.08-.05.17-.08.26s-.04.19-.05.28c-.01.09-.03.18-.03.25,0,.08,0,.14,0,.17,0,.13,0,.26.02.38.02.13.02.26.02.38,0,.1,0,.19,0,.29,0,.1-.01.2-.02.3.09.1.17.19.26.29.08.1.17.18.26.26.09.08.19.14.3.19.11.05.24.08.39.08.06,0,.11,0,.17.02s.11.03.17.04.11.03.17.04c.06.01.11.02.17.02.05,0,.11-.01.17-.03.06-.02.12-.05.18-.09s.12-.07.17-.12c.05-.04.1-.08.13-.12.03-.03.06-.06.11-.07s.08-.04.1-.06c.02-.02.04-.04.04-.07s.01-.05.02-.08.01-.05.02-.07c.01-.02.03-.04.06-.06.07-.04.11-.06.13-.08.02-.02.03-.05.03-.09v-.1s0-.06.03-.08c.02-.02.04-.03.06-.05.02-.02.04-.04.06-.06.02-.03.03-.07.03-.14,0-.05,0-.09,0-.14,0-.04-.01-.09-.01-.14s0-.09.03-.13c.02-.04.03-.08.05-.11s.04-.07.05-.1c.02-.03.02-.07.02-.11ZM72.93,3.11s0-.04-.03-.05c-.02-.02-.04-.03-.05-.03-.04,0-.06.02-.07.06,0,.04-.01.07-.01.1,0,0,0-.01,0-.01,0,0,.01,0,.02,0h-.02s.06,0,.1,0c.04,0,.06-.03.06-.07Z" fill="#e8e9ed"/>
        <path d="M81.73,7.73c0,.13-.04.22-.13.3-.08.07-.19.13-.3.17-.12.04-.24.06-.37.07-.13.01-.24.02-.33.02-.12,0-.22-.01-.29-.03-.08-.02-.14-.04-.2-.07-.06-.02-.11-.05-.15-.07s-.09-.03-.13-.03c-.06,0-.12.01-.18.03-.06.02-.12.03-.18.03-.04,0-.08,0-.1-.02-.03-.01-.05-.03-.07-.05-.02-.02-.04-.04-.05-.05-.02-.01-.04-.02-.06-.02-.03,0-.04,0-.06.03-.01.02-.03.04-.05.07s-.04.05-.08.07c-.03.02-.08.03-.15.03-.08,0-.15,0-.22-.02-.07-.02-.15-.02-.22-.02s-.15.01-.22.04c-.07.03-.14.04-.21.04-.03,0-.05,0-.06-.03-.01-.02-.03-.03-.05-.03-.06,0-.12.01-.19.04-.07.03-.13.04-.2.04-.04,0-.07,0-.1-.01-.03,0-.07-.01-.11-.01-.06,0-.12.01-.18.04-.06.03-.14.04-.23.04-.03,0-.1,0-.21-.01-.11,0-.22-.02-.33-.04-.12-.02-.22-.04-.31-.07-.09-.03-.14-.06-.14-.09,0-.09.02-.19.05-.28s.05-.18.05-.27h0s-.07-.04-.08-.09c0-.01.02-.03.04-.04.02,0,.03-.02.05-.02.02,0,.03-.01.05-.02.01-.01.02-.03.02-.05v-.02c.14.01.28.02.42.03.14,0,.28,0,.43,0,.14,0,.29,0,.46-.01.17,0,.33-.03.47-.08.14-.04.27-.11.37-.2.1-.09.15-.21.15-.37v-.12c-.02-.39-.04-.78-.06-1.16-.02-.38-.03-.77-.03-1.16,0-.1,0-.21-.02-.3-.02-.1-.02-.2-.02-.3,0-.13.02-.25.07-.38.04-.13.12-.23.21-.32,0-.02-.01-.04-.03-.05-.01,0-.03-.02-.05-.02s-.04,0-.06-.01c-.02,0-.04,0-.05-.02-.02-.01-.04-.04-.04-.08,0-.04-.01-.08-.02-.13,0-.05-.01-.09-.02-.14,0-.04-.02-.08-.04-.1.01-.1.03-.21.05-.31s.04-.2.04-.31c0-.08,0-.13-.03-.18s-.04-.08-.07-.11c-.03-.03-.05-.05-.07-.08-.02-.02-.03-.05-.03-.09,0-.03,0-.06.03-.08h-.04s-.06,0-.08.02c-.02.02-.04.04-.05.06-.02.02-.03.04-.05.06s-.04.03-.08.03c-.03,0-.05,0-.09-.02-.06.02-.12.03-.17.03-.12,0-.25-.02-.37-.05-.12-.03-.25-.05-.37-.05-.07,0-.13,0-.2,0-.06,0-.13,0-.19,0-.09,0-.19-.01-.28-.03s-.18-.07-.25-.14v-.06c0-.19.06-.33.19-.43s.28-.15.46-.15c.12,0,.25.02.37.05.12.03.24.05.37.05.07,0,.14,0,.21-.02s.15-.03.23-.05c.08-.02.16-.03.24-.05.08-.01.16-.02.24-.02.12,0,.24.03.34.08.11.05.21.1.32.15v.04s0,.06.02.09c.02.03.04.05.06.08.02.03.04.05.06.08.02.03.02.06.02.09s0,.06-.01.09c0,.03-.01.06-.01.09,0,.08.01.15.05.23.03.07.04.15.04.23s0,.17-.03.25-.03.17-.03.25c0,.1.01.21.04.31.03.1.04.21.04.31,0,.09-.01.17-.04.25-.03.08-.04.16-.04.25,0,.06,0,.12.02.18.02.06.04.12.06.17s.04.12.06.17c.02.06.02.12.02.19v.11c0,.06,0,.11-.01.16,0,.05-.03.1-.07.15.02.07.04.14.06.22.02.08.03.15.03.23,0,.04,0,.07,0,.12,0,.04-.01.08-.03.12-.01.04-.03.08-.05.11-.02.03-.05.06-.08.08.05.14.08.27.09.41s.03.28.03.42c0,.04.01.1.02.17s.02.14.03.2c.01.07.02.13.03.18,0,.06.01.09.01.12,0,.06-.01.12-.03.18s-.03.12-.03.18c0,.05.01.1.03.15.02.05.06.08.12.08.04,0,.08,0,.11-.03.03-.02.06-.04.1-.06.04-.02.08-.04.13-.06.05-.02.11-.03.2-.03.09,0,.18.01.26.04s.17.04.26.04c.07,0,.14,0,.21-.02.07-.01.14-.03.2-.04.07-.02.13-.03.2-.05.07-.01.14-.02.21-.02.14,0,.26.04.36.12.1.08.15.2.15.37ZM78.65,1.05s-.03-.03-.05-.04-.04-.02-.07-.02c-.02,0-.03,0-.05.02-.01.02-.02.03-.02.05l.03.06s.02.01.03.01c.03,0,.05,0,.07-.03.02-.02.04-.04.05-.06ZM78.97,2.54s0-.06-.02-.09c-.02-.03-.04-.05-.08-.05-.01,0-.02,0-.04,0-.01,0-.02,0-.03.01v.23s.05.02.06.02c.04,0,.06-.02.08-.05.02-.03.02-.06.02-.09Z" fill="#e8e9ed"/>
        <path d="M88.28,7.81c0,.06-.01.12-.04.17-.02.05-.05.1-.1.14-.04.04-.09.07-.14.1s-.11.04-.18.04c-.02,0-.04,0-.05-.01s-.02-.02-.04-.04c-.05-.05-.11-.08-.18-.09-.07,0-.15-.02-.22-.03-.08,0-.15-.03-.22-.06-.07-.03-.13-.09-.17-.19-.03-.06-.06-.1-.09-.12s-.08-.03-.15-.03c-.16,0-.31.02-.45.08s-.28.11-.42.17c-.14.06-.28.12-.43.17-.15.05-.29.08-.45.08-.09,0-.17,0-.26-.02-.08-.02-.17-.04-.24-.08-.02.02-.04.03-.06.04-.02,0-.05.01-.08.01-.03,0-.05,0-.07,0-.02,0-.04,0-.06,0,0,0-.02,0-.06.02-.04.01-.06.02-.06.02l.03.05s-.07.06-.14.09c-.08.03-.16.06-.24.08s-.17.04-.26.05c-.08.01-.14.02-.19.02-.12,0-.21-.02-.28-.06-.07-.04-.15-.1-.22-.2-.02-.04-.06-.07-.09-.11s-.07-.07-.11-.11c-.03-.04-.06-.08-.09-.12s-.04-.09-.04-.13c0-.05.03-.1.09-.13.06-.04.13-.07.21-.09.08-.02.16-.04.24-.05.08,0,.14-.01.18-.01.09,0,.17.01.26.03.09.02.17.04.26.04.08,0,.15-.01.23-.03.07-.02.15-.03.22-.03.07,0,.14,0,.2.01.07,0,.13.01.2.01.09,0,.17-.02.25-.05.08-.03.16-.07.23-.12.03-.18.05-.35.06-.53.01-.18.02-.35.02-.53s-.01-.35-.04-.53-.04-.35-.04-.52c0-.01,0-.02.01-.02,0,0,.02,0,.02,0,0,0,.02,0,.03-.01,0,0,0-.02,0-.04,0-.08,0-.15-.03-.22s-.03-.15-.03-.22c0-.09.01-.18.04-.27s.04-.18.04-.27c0-.06-.01-.13-.04-.19-.03-.06-.07-.12-.11-.17s-.1-.09-.16-.12c-.06-.03-.13-.05-.19-.05-.08,0-.15,0-.22.03-.07.02-.15.04-.23.06-.08.02-.16.04-.24.06s-.17.03-.25.03c-.1,0-.21,0-.31-.02-.1-.01-.2-.03-.31-.05-.05,0-.11-.01-.17-.02-.06,0-.12-.02-.18-.04-.06-.02-.11-.04-.14-.08s-.06-.09-.06-.16c0-.13.02-.22.07-.29.04-.07.1-.12.17-.15.07-.03.14-.05.22-.06s.16-.01.24-.02c.14-.01.27-.02.41-.03.13,0,.27-.01.41-.01.17,0,.33,0,.5.03.16.02.33.03.5.03.12,0,.23.02.34.05s.2.09.28.16c.08.07.14.17.19.28.05.11.07.24.07.39,0,.1-.02.19-.06.28-.04.09-.09.17-.16.24.02.05.05.08.07.09.03.02.05.03.07.04.02.01.04.03.05.05.01.02.02.06.02.11,0,.03,0,.06.01.1,0,.04.03.06.07.06,0,.19,0,.38,0,.57,0,.19,0,.38,0,.57,0,.16,0,.32,0,.48,0,.16.02.32.04.48.01.1.04.18.09.23s.12.08.23.08c.16,0,.32-.02.48-.05.16-.03.32-.05.48-.05.09,0,.18.02.27.07s.16.1.24.15c.08.05.15.1.22.15.07.05.14.07.2.07.03,0,.05,0,.07.03.02.02.03.04.04.07,0,.03.01.05.02.08s0,.05,0,.08ZM85.68,1.27c0,.1-.02.21-.05.32-.03.11-.08.21-.15.3-.06.09-.14.17-.23.23-.09.06-.19.09-.3.09-.08,0-.17-.01-.28-.03-.11-.02-.22-.06-.32-.1-.1-.04-.19-.1-.26-.17-.07-.07-.11-.16-.11-.25,0-.09,0-.17.03-.27.02-.09.03-.18.04-.28.04-.02.07-.05.11-.1.04-.05.07-.09.1-.14.04-.05.07-.09.1-.13.03-.04.07-.06.1-.06h-.03s.1-.03.16-.04c.05-.01.11-.02.17-.02.08,0,.17.02.27.06.11.04.21.09.3.15s.18.13.25.21.1.17.1.25Z" fill="#e8e9ed"/>
        <path d="M93.88,7.86c-.06,0-.1.03-.12.08-.02.04-.04.09-.06.14-.02.04-.05.07-.1.09-.05.02-.1.04-.17.05-.06.01-.13.02-.21.02-.07,0-.14,0-.21,0-.19,0-.38,0-.56-.02-.18-.01-.37-.03-.56-.04-.19-.02-.37-.03-.55-.05-.19-.01-.37-.02-.56-.02s-.38.02-.56.05c-.18.04-.36.05-.54.05-.03,0-.08,0-.16-.02s-.14-.03-.22-.06c-.07-.02-.14-.05-.2-.08-.06-.03-.09-.06-.09-.09,0-.07,0-.14,0-.21s0-.14.02-.21c.01-.07.03-.13.06-.19.03-.06.07-.12.13-.17.04-.04.07-.07.08-.1.01-.03.02-.06.03-.08s.03-.05.05-.07c.02-.02.06-.04.12-.06.01,0,.03-.02.05-.05.02-.03.04-.06.06-.1.02-.04.04-.07.06-.11.02-.03.04-.06.05-.08.09-.1.18-.2.28-.3.1-.09.2-.19.3-.28.11-.1.21-.21.3-.33.09-.12.19-.23.29-.34.09-.09.19-.18.3-.25.11-.08.2-.17.29-.27.04-.05.08-.09.1-.13.03-.04.05-.08.08-.12.03-.04.06-.08.09-.12.04-.04.08-.08.14-.12.02-.01.05-.04.08-.09.03-.05.06-.1.09-.15s.05-.11.07-.16c.02-.05.03-.09.03-.12,0-.05-.02-.1-.06-.13-.04-.03-.09-.06-.14-.08-.06-.02-.11-.04-.17-.04-.06,0-.11-.01-.15-.01-.05,0-.1,0-.15.03s-.09.03-.14.03c-.05,0-.11,0-.16-.03-.05-.02-.1-.03-.15-.03-.02,0-.04,0-.05,0-.02,0-.04,0-.05.02-.05.01-.11.02-.18.03-.07,0-.14.01-.21.02s-.14.02-.2.03c-.06.01-.11.03-.15.06-.07.05-.13.11-.17.16s-.07.1-.1.15c-.02.05-.04.1-.04.15,0,.05-.01.1-.01.16,0,.05,0,.1,0,.15,0,.05,0,.11,0,.17,0,.13-.03.23-.1.3-.06.08-.17.12-.3.12-.08,0-.14-.02-.19-.08s-.09-.11-.12-.19c-.03-.08-.04-.16-.05-.25,0-.09-.01-.17-.01-.25s0-.15,0-.2c0-.06,0-.09,0-.09,0-.09,0-.19,0-.29,0-.1.02-.2.04-.29.02-.09.05-.17.09-.25s.09-.13.16-.18c.03-.02.07-.04.11-.07.04-.02.08-.04.13-.06.04-.02.09-.04.13-.05.04-.01.09-.02.13-.02.08,0,.14.04.17.11.01.04.04.08.06.11.03.03.05.07.08.1.03.03.05.07.07.1.02.03.03.07.04.1h.03s.06,0,.09.03c.03.02.05.03.07.03.03,0,.05-.02.05-.05,0-.03,0-.06,0-.09,0-.05-.01-.08-.04-.11-.02-.03-.05-.05-.09-.07s-.06-.04-.09-.07c-.02-.02-.04-.06-.04-.1v-.03c.1.02.2.03.3.03.1,0,.19,0,.29,0,.16,0,.32,0,.48-.02.16-.01.31-.03.47-.04.16-.02.31-.03.47-.05.16-.01.31-.02.47-.02.03,0,.06,0,.1,0,.04,0,.08,0,.12.01.04,0,.08.01.12.02.04.01.07.03.09.05-.02.02-.05.06-.08.1-.03.04-.04.08-.05.11.02.02.03.04.03.04,0,0,.01,0,.03,0,.02,0,.04-.01.05-.03.01-.02.02-.04.03-.07.01-.02.02-.05.03-.07,0-.02.02-.03.04-.03.03,0,.05.02.07.05.02.03.04.07.06.12s.03.09.04.14c0,.05.01.08.01.11,0,.03,0,.05-.01.07,0,.01-.02.02-.03.03-.01,0-.03.01-.04.02-.01,0-.02.02-.03.03-.03.05-.05.11-.06.16-.01.06-.04.11-.08.16-.09.13-.18.25-.29.35-.11.1-.22.21-.33.32-.05.05-.09.1-.13.15s-.08.11-.12.16c-.04.06-.08.11-.12.16-.04.05-.09.1-.13.15-.05.05-.09.08-.13.1-.03.02-.07.04-.09.06-.03.02-.05.04-.08.08-.02.03-.05.08-.07.15-.01.03-.06.08-.14.14-.08.06-.17.12-.27.2-.1.07-.19.15-.28.23-.09.08-.14.16-.17.23-.02.06-.04.12-.07.19-.03.06-.05.13-.08.19-.02.07-.04.13-.06.2-.02.07-.03.13-.03.2,0,.11.04.2.13.26.09.06.2.11.32.14.12.03.25.05.38.05.13,0,.23,0,.31,0h.35c.2,0,.35-.04.46-.11s.19-.15.24-.26c.05-.11.09-.22.1-.35.02-.13.03-.26.04-.38,0-.13.02-.25.05-.35.02-.11.07-.2.14-.27.02,0,.04,0,.05,0h.05c.09,0,.18.02.26.05.08.03.16.07.24.11,0,.1-.02.21-.04.31s-.04.2-.04.3c0,.05.03.08.08.08,0,.06-.02.1-.04.12-.02.02-.04.04-.04.06,0,.02,0,.04.02.08.01.03.03.07.05.12s.03.09.05.14c.01.05.02.1.02.16,0,.06,0,.12-.01.18,0,.06,0,.12,0,.18,0,.09,0,.18.03.27Z" fill="#e8e9ed"/>
        <path d="M100.64,7.81c0,.06-.01.12-.04.17-.02.05-.06.1-.1.14-.04.04-.09.07-.14.1-.05.02-.11.04-.18.04-.02,0-.04,0-.05-.01,0,0-.02-.02-.04-.04-.05-.05-.11-.08-.18-.09-.07,0-.15-.02-.22-.03-.08,0-.15-.03-.22-.06-.07-.03-.13-.09-.17-.19-.03-.06-.06-.1-.09-.12-.03-.02-.08-.03-.15-.03-.16,0-.31.02-.45.08-.14.05-.29.11-.42.17-.14.06-.28.12-.43.17-.15.05-.29.08-.45.08-.09,0-.17,0-.25-.02-.08-.02-.17-.04-.24-.08-.02.02-.04.03-.06.04s-.05.01-.08.01c-.03,0-.05,0-.07,0s-.04,0-.06,0c0,0-.02,0-.06.02-.04.01-.06.02-.06.02l.03.05s-.07.06-.15.09c-.07.03-.16.06-.24.08s-.17.04-.25.05-.15.02-.19.02c-.11,0-.21-.02-.28-.06-.07-.04-.15-.1-.22-.2-.02-.04-.06-.07-.09-.11-.04-.04-.07-.07-.11-.11-.03-.04-.06-.08-.09-.12-.02-.04-.04-.09-.04-.13,0-.05.03-.1.09-.13s.13-.07.2-.09c.08-.02.16-.04.24-.05.08,0,.14-.01.18-.01.09,0,.17.01.26.03.09.02.17.04.26.04.08,0,.15-.01.23-.03s.15-.03.23-.03c.07,0,.14,0,.2.01.07,0,.13.01.2.01.09,0,.17-.02.25-.05.08-.03.16-.07.23-.12.03-.18.05-.35.06-.53.01-.18.02-.35.02-.53s-.01-.35-.04-.53c-.03-.18-.04-.35-.04-.52,0-.01,0-.02,0-.02,0,0,.02,0,.02,0,0,0,.02,0,.02-.01,0,0,.01-.02.01-.04,0-.08-.01-.15-.03-.22s-.03-.15-.03-.22c0-.09.01-.18.04-.27.02-.09.04-.18.04-.27,0-.06-.01-.13-.04-.19s-.07-.12-.11-.17c-.05-.05-.1-.09-.16-.12s-.13-.05-.19-.05c-.08,0-.15,0-.22.03s-.15.04-.23.06c-.08.02-.16.04-.24.06-.08.02-.17.03-.25.03-.1,0-.21,0-.31-.02s-.2-.03-.31-.05c-.05,0-.11-.01-.17-.02-.06,0-.12-.02-.18-.04s-.11-.04-.15-.08c-.04-.04-.06-.09-.06-.16,0-.13.02-.22.07-.29.04-.07.1-.12.17-.15.07-.03.14-.05.22-.06.08,0,.16-.01.24-.02.14-.01.27-.02.41-.03.13,0,.27-.01.41-.01.17,0,.33,0,.5.03.16.02.33.03.5.03.12,0,.23.02.34.05s.2.09.28.16c.08.07.14.17.19.28s.07.24.07.39c0,.1-.02.19-.06.28-.04.09-.09.17-.16.24.03.05.05.08.08.09.02.02.05.03.07.04.02.01.04.03.05.05.01.02.02.06.02.11,0,.03,0,.06.01.1,0,.04.03.06.07.06,0,.19,0,.38,0,.57,0,.19,0,.38,0,.57,0,.16,0,.32,0,.48,0,.16.02.32.04.48.01.1.04.18.09.23s.12.08.23.08c.16,0,.32-.02.48-.05.16-.03.32-.05.48-.05.09,0,.18.02.27.07s.17.1.24.15c.08.05.15.1.22.15s.14.07.2.07c.03,0,.05,0,.07.03.02.02.03.04.04.07,0,.03.01.05.02.08s0,.05,0,.08ZM98.04,1.27c0,.1-.02.21-.05.32-.03.11-.08.21-.15.3-.06.09-.14.17-.23.23-.09.06-.19.09-.3.09-.08,0-.17-.01-.28-.03-.11-.02-.22-.06-.32-.1-.1-.04-.19-.1-.26-.17s-.11-.16-.11-.25c0-.09,0-.17.03-.27.02-.09.03-.18.04-.28.04-.02.07-.05.11-.1s.07-.09.1-.14c.03-.05.07-.09.1-.13.03-.04.07-.06.1-.06h-.03s.1-.03.16-.04c.05-.01.11-.02.17-.02.08,0,.17.02.27.06.11.04.21.09.3.15.1.06.18.13.25.21.07.08.1.17.1.25Z" fill="#e8e9ed"/>
        <path d="M106.03,6.89c0,.1-.02.18-.05.25s-.07.13-.12.18c-.05.05-.1.1-.17.15s-.13.1-.19.15c-.05.04-.09.08-.13.1s-.08.04-.12.05c-.04.01-.08.03-.12.04s-.09.03-.14.06c-.07.04-.13.07-.18.1-.05.03-.1.06-.15.08-.05.02-.1.05-.16.06-.06.02-.13.03-.21.04-.14.02-.29.04-.43.06-.14.02-.29.04-.43.04-.03,0-.06,0-.09-.02-.03-.01-.07-.03-.1-.04-.04-.01-.08-.02-.13-.04-.05-.01-.11-.02-.17-.02-.07,0-.13-.01-.17-.03s-.08-.05-.12-.08c-.03-.03-.07-.06-.11-.09-.04-.03-.08-.06-.14-.09-.21-.1-.4-.21-.55-.35s-.28-.29-.39-.46-.2-.35-.27-.55c-.07-.2-.13-.4-.18-.62-.04-.15-.06-.3-.06-.45,0-.2.05-.38.14-.55-.04-.1-.05-.2-.05-.29,0-.07.02-.17.06-.3.04-.13.09-.27.15-.41.06-.14.13-.26.2-.37.07-.11.14-.18.21-.2.05-.02.08-.03.1-.05.02-.01.03-.05.03-.1,0-.04.02-.08.05-.11.03-.03.08-.05.12-.07.05-.02.1-.03.15-.05.05-.01.09-.03.12-.04.13-.06.26-.12.38-.16.12-.04.24-.08.36-.11.12-.03.24-.05.37-.07s.27-.02.41-.02c.08,0,.16.01.23.03s.15.05.22.08c.07.03.14.07.21.11.07.04.13.08.2.12h0c.05,0,.1.02.15.05.05.02.1.04.15.05.05.06.12.12.2.17.08.06.16.11.24.17.08.06.14.13.2.2.06.07.08.15.08.24,0,.01,0,.03,0,.04s0,.03,0,.05l.02-.03s.03.03.04.05.02.05.03.08c.01.03.02.06.03.09,0,.03.01.05.02.07.03.05.07.08.12.11.05.03.09.07.12.12-.04.04-.05.08-.05.14,0,.06.01.12.04.18.03.06.04.12.04.18,0,.07,0,.14-.01.21,0,.07-.01.13-.01.21,0,.05-.02.09-.06.12s-.09.05-.13.08c-.05.02-.09.04-.13.06-.04.02-.06.05-.06.09,0,.03-.02.04-.05.04-.03,0-.06,0-.08,0-.16,0-.31-.02-.47-.06-.16-.04-.31-.06-.46-.06-.17,0-.33.01-.5.04-.17.02-.33.03-.5.03-.13,0-.25,0-.37-.01-.12,0-.25-.01-.37-.01-.03,0-.09,0-.18.02-.09.01-.18.03-.28.05-.1.02-.19.04-.28.07-.09.03-.15.05-.19.08,0,.02,0,.04,0,.08,0,.17.05.34.15.52.1.18.23.34.39.49.16.15.34.27.54.37s.4.15.61.15c.12,0,.23,0,.35.01.12,0,.23.03.34.08.1-.05.19-.1.27-.16.08-.06.16-.13.23-.19.08-.07.15-.14.22-.21s.14-.14.22-.21c.01-.01.05-.03.1-.04.06-.01.12-.02.18-.03.06,0,.13-.02.19-.02.06,0,.1,0,.12,0,.08,0,.16.01.23.04.02.08.03.16.03.24ZM105.23,4.71c0-.05,0-.11-.03-.16-.02-.05-.03-.1-.04-.16-.02-.1-.03-.2-.03-.29s-.01-.19-.04-.29h0s0,.04-.02.06c-.01.02-.03.03-.06.03-.04,0-.08-.01-.12-.03-.04-.02-.07-.05-.1-.08-.14-.06-.26-.12-.37-.17s-.22-.1-.33-.14c-.11-.04-.23-.07-.35-.1-.12-.02-.27-.04-.43-.04-.01,0-.03,0-.04,0-.01,0-.02,0-.04.02l.03.06h-.04c-.1.03-.18.05-.24.06-.06.02-.12.04-.17.07-.05.03-.1.06-.15.1-.05.04-.11.09-.18.16-.04.03-.07.06-.12.07-.04.02-.08.03-.12.04-.04.01-.08.03-.12.04-.04.01-.07.04-.09.07-.03.09-.06.18-.11.26-.05.08-.07.17-.07.27,0,.05.02.1.07.14.04.04.1.08.17.1.07.03.15.05.23.08s.17.04.25.05c.08.01.16.02.23.02.07,0,.12,0,.16,0,.14,0,.27-.01.4-.04.13-.03.27-.04.4-.04s.28,0,.42.02c.14.01.28.02.42.02.04,0,.09,0,.16,0s.14-.01.21-.03c.07-.02.13-.04.18-.07.05-.03.08-.07.08-.12Z" fill="#e8e9ed"/>
        <path d="M112.62,4.09c0,.07-.01.13-.04.18s-.06.1-.09.14c-.03.04-.07.09-.1.14-.03.05-.06.1-.07.17-.03-.01-.07-.02-.1-.03-.03,0-.07,0-.11,0-.09,0-.17,0-.25.02-.08.01-.17.02-.25.02-.1,0-.18-.03-.24-.09-.06-.06-.11-.13-.15-.22-.04-.09-.06-.18-.08-.28-.01-.1-.02-.19-.02-.27,0-.1.02-.2.05-.31-.03-.01-.05-.02-.07-.02-.05,0-.08.01-.1.04s-.05.04-.08.04c-.03,0-.06-.01-.09-.04-.02-.02-.05-.03-.09-.03-.05,0-.12.02-.2.05-.08.03-.16.08-.23.13-.08.05-.14.11-.2.17-.06.06-.08.12-.08.18-.08,0-.15.03-.21.06-.07.03-.13.07-.19.11-.05.03-.09.07-.12.13s-.06.13-.09.2c-.03.07-.05.14-.08.21-.03.07-.06.13-.09.18-.06.08-.11.16-.16.24-.04.08-.07.17-.07.27,0,.13.02.25.06.38s.06.26.06.39c0,.09,0,.17-.02.26s-.02.17-.02.25c0,.1.02.18.05.24s.08.11.15.14c.06.03.13.06.21.07s.16.02.24.02c.09,0,.18,0,.26,0,.08,0,.16,0,.23,0,.02.03.04.06.04.08,0,.02,0,.05,0,.08,0,.03-.01.05-.02.08,0,.03-.01.06-.01.09,0,.01,0,.03.01.05.05,0,.1-.01.14-.04s.07-.06.09-.12c.02,0,.05.02.07.03s.03.04.03.06c0,.02,0,.04-.02.06-.01.02-.02.04-.04.06s-.03.04-.04.06c0,.02-.02.04-.02.07,0,.01,0,.03,0,.05,0,.02,0,.03.02.04-.02.03-.04.05-.08.06s-.06.02-.1.02c-.06,0-.1,0-.14-.03-.04-.02-.07-.04-.1-.06-.03-.02-.06-.04-.08-.06-.02-.02-.05-.03-.09-.03-.01,0-.04,0-.06.01s-.06.02-.09.03-.05.02-.08.04c-.02.02-.03.03-.03.05,0,.03,0,.05.03.08.02.02.03.05.03.08,0,.02,0,.04-.03.06s-.04.02-.06.03c-.03,0-.05,0-.08.01-.03,0-.05,0-.07,0-.14,0-.28-.02-.42-.05-.14-.03-.28-.05-.42-.05-.06,0-.13.01-.19.04s-.13.04-.2.04c-.04,0-.07,0-.09-.02-.02-.02-.04-.03-.05-.06s-.03-.04-.05-.06c-.02-.02-.04-.02-.08-.02-.07,0-.14,0-.2.02-.07.01-.13.03-.2.05-.07.02-.13.03-.2.04-.07.01-.13.02-.2.02-.04,0-.08,0-.13-.01-.05,0-.1-.02-.15-.05s-.09-.05-.12-.08-.05-.07-.05-.12c0-.03.02-.07.05-.11s.07-.09.12-.14c.04-.04.09-.08.13-.12s.08-.05.1-.05c.06,0,.11,0,.17,0s.11,0,.17,0c.1,0,.19-.02.29-.05.1-.03.19-.07.27-.13.08-.06.15-.13.2-.21.05-.09.07-.18.07-.29,0-.05,0-.09,0-.14,0-.04-.01-.09-.01-.14,0-.09.01-.19.03-.28s.03-.19.03-.28c0-.13-.01-.25-.04-.38-.03-.13-.04-.26-.04-.39,0-.12,0-.24,0-.35,0-.12,0-.23,0-.35,0-.05,0-.13,0-.24s-.01-.21-.04-.31c-.02-.1-.05-.2-.09-.27s-.1-.12-.17-.12c-.08,0-.16,0-.24.03-.08.02-.16.03-.24.03-.06,0-.13,0-.21-.01-.08,0-.16-.03-.24-.05-.08-.03-.14-.06-.19-.12s-.08-.12-.08-.2c0-.09.01-.16.04-.22.02-.06.06-.1.1-.13.04-.03.09-.05.14-.06s.12-.02.18-.02c.06,0,.12,0,.18,0s.12,0,.18,0c.12,0,.23,0,.34-.02.11-.01.23-.02.34-.02.08,0,.16,0,.24.01s.16.02.23.05c.07.02.12.06.15.12.03.06.06.12.09.18.03.06.06.12.09.16.04.05.09.07.17.07.04,0,.07,0,.1-.03.03-.02.06-.04.09-.07s.06-.05.09-.07.06-.04.1-.04c.08-.01.15-.04.22-.08s.13-.08.2-.12.13-.08.2-.11.14-.05.22-.05c.05,0,.11,0,.17-.02.07-.01.14-.03.21-.05.07-.02.14-.04.2-.07.06-.03.11-.06.15-.1.1,0,.21.03.34.07s.26.09.38.16c.12.07.22.14.31.23.09.09.14.19.16.3.01.07.03.13.06.19.03.06.06.12.09.18.03.06.06.12.08.18.03.06.04.13.04.2Z" fill="#e8e9ed"/>
        <path d="M118.41,6.11c0,.11-.01.22-.04.32-.02.1-.05.2-.09.3-.03.1-.06.2-.1.3-.03.1-.06.21-.08.31-.03.18-.1.33-.19.45s-.21.21-.35.28c-.14.07-.29.12-.46.16-.17.03-.34.06-.51.08-.18.02-.35.03-.52.04-.17,0-.33.02-.47.04-.05-.04-.1-.08-.13-.13s-.07-.09-.1-.13c-.03-.04-.07-.08-.11-.1-.04-.03-.09-.04-.16-.04-.02,0-.04-.03-.05-.09-.01-.06-.02-.12-.04-.2-.01-.07-.02-.14-.04-.2-.01-.06-.03-.09-.05-.09-.08,0-.15-.02-.2-.05-.05-.04-.09-.08-.11-.14-.03-.06-.04-.12-.05-.19,0-.07-.01-.13-.01-.2,0-.05-.01-.1-.03-.14s-.04-.08-.07-.13c-.02-.04-.05-.08-.07-.13s-.03-.09-.03-.13c0-.05,0-.12,0-.2,0-.08.01-.16.02-.25,0-.09.01-.17.02-.25,0-.08,0-.15,0-.2,0-.06,0-.12.02-.16s.04-.08.06-.11.04-.06.06-.09.02-.05.02-.09c0-.04,0-.08-.03-.11s-.03-.06-.03-.09c0-.04.01-.08.04-.12.03-.04.04-.08.05-.12.04-.16.06-.31.06-.47,0-.03,0-.06,0-.09,0-.03,0-.06,0-.09-.08-.07-.17-.11-.27-.13-.1-.02-.2-.03-.3-.04-.1,0-.2-.02-.29-.03-.09-.01-.17-.05-.24-.11-.05-.05-.1-.11-.15-.17-.04-.06-.1-.1-.17-.13-.05-.02-.09-.04-.13-.07-.03-.03-.05-.07-.05-.13,0-.09.03-.15.08-.2.05-.04.11-.08.18-.11.07-.03.15-.05.22-.07.08-.02.14-.05.2-.09s.12-.06.19-.06c.03,0,.06,0,.09,0,.03,0,.06,0,.09,0,.09,0,.16-.02.22-.05.06-.03.11-.07.14-.12.03-.05.06-.11.07-.18.01-.07.02-.14.02-.22,0-.11,0-.23-.02-.33-.01-.11-.02-.22-.02-.33,0-.13.02-.25.05-.37.04-.11.1-.21.2-.31.02-.02.04-.04.07-.07s.05-.06.08-.08c.03-.03.06-.05.09-.07.03-.02.06-.03.09-.03.02,0,.04,0,.06.01.02,0,.03.02.05.03.08.08.13.14.15.17.02.04.04.08.04.13,0,.03,0,.06,0,.09,0,.03,0,.08,0,.13,0,.11.01.23.04.34.03.11.04.21.04.28,0,.07-.01.13-.04.2-.03.06-.04.13-.04.2,0,.05.01.1.04.14.02.04.05.08.08.12.03.04.06.08.08.12.02.04.04.09.04.14.04.02.12.05.24.07.12.02.26.04.42.05.15.01.31.02.47.03s.29.01.39.01c.09,0,.17,0,.21.02.05.01.09.03.13.05.03.02.06.03.09.05s.07.03.11.03c.06,0,.11.02.15.05.04.02.06.07.06.14,0,.09-.02.15-.07.2-.04.05-.1.09-.17.11-.07.02-.14.04-.21.05-.08,0-.15,0-.21,0-.1,0-.21,0-.31-.01s-.21-.01-.31-.01c-.17,0-.33.02-.47.05-.14.03-.26.09-.36.16-.1.08-.18.17-.24.3-.06.12-.08.28-.08.46s.01.36.04.54.04.35.04.54c0,.17,0,.31,0,.41s.03.19.06.26c.05.1.08.22.11.35.03.13.07.26.11.38.04.12.11.22.19.3.08.08.2.12.36.12.05,0,.12,0,.21-.02.09-.01.18-.04.27-.07.09-.03.17-.07.23-.12.06-.05.1-.11.1-.18,0-.06-.02-.12-.05-.19-.04-.06-.05-.13-.05-.2,0-.05.01-.09.04-.13.02-.04.05-.07.09-.1.04-.03.08-.06.12-.08.04-.02.08-.04.12-.06.06-.08.14-.15.23-.21.09-.06.19-.08.29-.08.07,0,.14.01.21.04.07.02.13.06.19.1.01.06.02.13.02.2Z" fill="#e8e9ed"/>
        <path d="M124.3,6.89c0,.1-.02.18-.05.25-.03.07-.07.13-.12.18s-.1.1-.17.15c-.06.05-.13.1-.19.15-.05.04-.09.08-.13.1-.04.02-.08.04-.12.05s-.08.03-.12.04c-.04.01-.09.03-.14.06-.07.04-.13.07-.18.1-.05.03-.1.06-.15.08-.05.02-.1.05-.16.06-.06.02-.13.03-.21.04-.14.02-.29.04-.43.06s-.29.04-.43.04c-.03,0-.06,0-.09-.02-.03-.01-.06-.03-.1-.04-.04-.01-.08-.02-.13-.04-.05-.01-.11-.02-.17-.02-.07,0-.13-.01-.17-.03s-.08-.05-.12-.08c-.04-.03-.07-.06-.11-.09-.04-.03-.08-.06-.14-.09-.21-.1-.4-.21-.55-.35s-.28-.29-.39-.46-.2-.35-.27-.55-.13-.4-.18-.62c-.04-.15-.06-.3-.06-.45,0-.2.05-.38.14-.55-.04-.1-.05-.2-.05-.29,0-.07.02-.17.06-.3.04-.13.09-.27.15-.41.06-.14.13-.26.21-.37.07-.11.14-.18.21-.2.05-.02.08-.03.1-.05.02-.01.03-.05.03-.1,0-.04.02-.08.05-.11.03-.03.07-.05.12-.07s.1-.03.14-.05.09-.03.12-.04c.13-.06.26-.12.38-.16.12-.04.24-.08.36-.11.12-.03.24-.05.37-.07s.27-.02.41-.02c.08,0,.16.01.23.03.08.02.15.05.22.08.07.03.14.07.21.11.07.04.13.08.2.12h0c.05,0,.1.02.15.05.05.02.1.04.15.05.05.06.12.12.2.17.08.06.16.11.24.17.08.06.14.13.2.2.06.07.08.15.08.24,0,.01,0,.03,0,.04,0,.01,0,.03,0,.05l.02-.03s.03.03.04.05c.01.02.02.05.04.08.01.03.02.06.03.09,0,.03.01.05.02.07.03.05.07.08.12.11s.09.07.12.12c-.04.04-.05.08-.05.14,0,.06.01.12.04.18.03.06.04.12.04.18,0,.07,0,.14,0,.21,0,.07-.01.13-.01.21,0,.05-.02.09-.06.12-.04.03-.09.05-.13.08s-.09.04-.13.06-.06.05-.06.09c0,.03-.02.04-.05.04-.03,0-.06,0-.08,0-.16,0-.31-.02-.47-.06s-.31-.06-.46-.06c-.17,0-.33.01-.5.04-.16.02-.33.03-.5.03-.13,0-.25,0-.37-.01-.12,0-.25-.01-.37-.01-.03,0-.09,0-.18.02-.09.01-.18.03-.28.05-.1.02-.19.04-.28.07-.09.03-.15.05-.19.08,0,.02,0,.04,0,.08,0,.17.05.34.15.52.1.18.23.34.39.49s.34.27.54.37c.2.1.4.15.61.15.12,0,.24,0,.35.01.12,0,.23.03.34.08.1-.05.19-.1.27-.16.08-.06.16-.13.23-.19s.15-.14.22-.21c.07-.07.14-.14.22-.21.01-.01.05-.03.1-.04.06-.01.12-.02.18-.03.06,0,.13-.02.19-.02.06,0,.1,0,.12,0,.08,0,.16.01.23.04.02.08.03.16.03.24ZM123.5,4.71c0-.05,0-.11-.03-.16s-.03-.1-.04-.16c-.02-.1-.03-.2-.03-.29s-.01-.19-.04-.29h0s0,.04-.02.06c-.01.02-.03.03-.06.03-.04,0-.08-.01-.12-.03s-.07-.05-.1-.08c-.14-.06-.26-.12-.37-.17s-.22-.1-.33-.14c-.11-.04-.22-.07-.35-.1-.12-.02-.27-.04-.43-.04-.01,0-.03,0-.04,0-.01,0-.02,0-.04.02l.03.06h-.04c-.1.03-.18.05-.24.06-.06.02-.12.04-.17.07s-.1.06-.15.1c-.05.04-.11.09-.18.16-.04.03-.07.06-.12.07-.04.02-.08.03-.12.04-.04.01-.08.03-.12.04-.04.01-.07.04-.09.07-.02.09-.06.18-.11.26-.05.08-.07.17-.07.27,0,.05.02.1.07.14.04.04.1.08.17.1.07.03.15.05.23.08.08.02.17.04.25.05s.16.02.23.02c.07,0,.12,0,.16,0,.14,0,.27-.01.4-.04.13-.03.27-.04.4-.04s.28,0,.42.02c.14.01.28.02.42.02.04,0,.09,0,.16,0,.07,0,.14-.01.21-.03.07-.02.13-.04.18-.07.05-.03.08-.07.08-.12Z" fill="#e8e9ed"/>
        <path d="M134.37,4.56c0,.11-.01.23-.03.37-.02.14-.05.29-.09.45-.04.16-.08.32-.13.48-.05.16-.1.32-.15.48-.05.15-.11.29-.16.42-.05.13-.11.24-.16.33-.02.04-.05.07-.1.11-.04.04-.09.08-.14.12-.05.04-.09.08-.12.12s-.05.08-.05.11c-.03,0-.07.01-.13.02-.06.01-.12.03-.19.05-.07.02-.13.04-.18.06-.06.02-.09.05-.1.07-.04.08-.06.13-.07.15,0,.02-.02.04-.03.05-.01,0-.03,0-.06,0-.03,0-.09,0-.17.02-.03,0-.07.02-.12.03-.05.01-.1.03-.15.04-.05.01-.1.03-.15.04-.05,0-.08.01-.11.01-.08,0-.15-.01-.23-.04-.07-.02-.15-.04-.23-.04-.05,0-.1,0-.13.02-.13.05-.26.09-.38.11-.12.02-.25.03-.39.03l-.76-.1c-.06.01-.12.02-.17.03-.06,0-.12,0-.17,0-.07,0-.14,0-.21-.01-.07,0-.14-.02-.21-.03-.01-.05-.03-.1-.05-.15-.02-.05-.05-.1-.07-.15s-.04-.1-.06-.15c-.02-.05-.03-.1-.03-.16,0-.09.02-.16.07-.2.05-.04.11-.07.18-.09.07-.02.15-.03.23-.04.08,0,.16-.03.23-.06s.13-.08.18-.15c.05-.07.07-.17.07-.31,0-.08,0-.16-.02-.25-.01-.08-.03-.17-.04-.25-.02-.08-.03-.17-.04-.25-.01-.08-.02-.16-.02-.25,0-.06,0-.12.02-.18.01-.06.02-.12.02-.18,0-.11,0-.22-.02-.33-.02-.11-.02-.22-.02-.33,0-.13,0-.26.02-.38.01-.13.02-.26.02-.38,0-.12-.01-.24-.03-.36-.02-.12-.04-.24-.04-.36,0-.07,0-.14,0-.2s0-.14,0-.2c0-.08,0-.15,0-.23,0-.07-.02-.15-.04-.22-.03-.09-.04-.18-.04-.26,0-.09-.01-.16-.03-.23-.02-.07-.05-.13-.1-.18-.05-.05-.13-.09-.25-.12-.04,0-.07-.02-.09-.03-.02-.02-.04-.03-.06-.05-.02-.02-.04-.03-.07-.05s-.07-.02-.12-.03c-.16-.02-.24-.11-.24-.26,0-.09.02-.16.05-.23.03-.07.07-.13.12-.18.05-.05.11-.1.17-.15.06-.04.12-.09.19-.14.09-.07.18-.12.26-.13.08-.02.17-.02.26-.02h.23c.1,0,.21,0,.31-.01.1,0,.21-.01.31-.01.06,0,.12,0,.19.01s.12.02.19.04c.03.01.06.02.09.04.03.01.06.02.09.02.05,0,.09-.02.13-.05.04-.03.07-.05.1-.05,0,0,.01,0,.01.01s0,.02,0,.02c0,0,0,.02,0,.02,0,.02.01.03.04.03.02,0,.03-.01.04-.03,0-.02.03-.04.06-.04.03.01.04.02.06.04.01.01.03.02.04.03.01.01.03.02.05.03s.04.01.08.01c.07,0,.15,0,.22-.02.08-.01.15-.02.23-.02.1,0,.19.02.27.05s.16.07.23.12c.07.05.14.1.21.16.07.06.13.12.2.18.05.04.1.08.15.1.05.02.1.05.15.07.05.02.09.05.13.09.04.03.08.09.11.15.04.08.08.15.12.22.05.07.1.14.14.2.05.07.1.13.14.2.05.07.09.14.12.22.09.2.15.42.19.64.04.22.08.45.12.66.02.09.04.19.06.28.02.1.03.19.03.28,0,.05,0,.1-.03.15s-.03.09-.03.15c0,.03,0,.06.02.09,0,.02.02.05.04.08s.03.05.04.09c.01.03.02.07.02.11ZM133.47,4.2c0-.14-.02-.28-.06-.41s-.1-.26-.18-.37c.04-.04.06-.09.07-.14.01-.05.02-.11.02-.16,0-.05,0-.11,0-.16s0-.11,0-.16c0-.03,0-.05-.03-.08s-.04-.04-.06-.06c-.02-.02-.05-.04-.07-.06-.03-.02-.04-.04-.05-.07-.01-.04-.02-.07-.03-.09,0-.03,0-.05-.01-.08s0-.05-.02-.08c0-.03-.03-.06-.05-.1-.02-.03-.03-.06-.04-.08-.01-.03-.02-.06-.02-.1,0-.04,0-.07.02-.11-.02-.03-.04-.05-.07-.07-.03-.02-.07-.04-.11-.05-.04-.01-.09-.02-.14-.03-.05,0-.11-.02-.17-.05s-.12-.07-.19-.11-.13-.08-.2-.11-.13-.05-.2-.05c-.1,0-.21,0-.31.03s-.2.03-.31.05c-.08.01-.16.02-.26.02-.09,0-.18.01-.26.03s-.15.05-.2.1c-.05.05-.08.12-.08.23,0,.13,0,.25.02.38s.02.26.02.4c0,.28-.01.56-.04.85-.02.28-.03.56-.03.85,0,.13,0,.26.02.4.01.13.02.26.02.4,0,.18-.01.35-.04.52s-.04.35-.04.52v.23c0,.08,0,.16.02.24.02.08.04.14.08.2.04.06.1.11.18.13.11.04.22.08.33.12.11.04.22.06.35.06.07,0,.14-.02.21-.05.07-.03.14-.06.21-.08.05-.01.1-.03.16-.04.06-.01.12-.03.18-.04.06-.02.11-.04.16-.06.05-.03.1-.06.13-.1.05-.06.11-.11.16-.16.05-.05.12-.08.21-.1.04,0,.07-.02.08-.05.01-.02.02-.05.03-.08,0-.03.01-.06.03-.1,0-.03.03-.06.07-.09.06-.04.1-.09.13-.15.03-.06.05-.12.07-.18.02-.06.03-.13.04-.2,0-.07.02-.13.04-.2.04-.14.08-.29.14-.44.05-.15.08-.3.08-.45,0-.04,0-.07-.03-.1-.02-.03-.03-.06-.03-.1,0-.02,0-.04.01-.04,0,0,.02-.01.03-.02.01,0,.02-.02.03-.04,0-.02.01-.05.01-.1Z" fill="#e8e9ed"/>
        <path d="M141.09,4.09c0,.07-.01.13-.04.18s-.06.1-.09.14c-.03.04-.07.09-.1.14s-.06.1-.07.17c-.03-.01-.07-.02-.1-.03s-.07,0-.11,0c-.09,0-.17,0-.25.02-.08.01-.17.02-.25.02-.1,0-.18-.03-.24-.09-.06-.06-.11-.13-.15-.22-.04-.09-.06-.18-.08-.28-.01-.1-.02-.19-.02-.27,0-.1.02-.2.05-.31-.03-.01-.05-.02-.07-.02-.05,0-.08.01-.1.04s-.05.04-.08.04c-.03,0-.06-.01-.09-.04-.02-.02-.05-.03-.09-.03-.05,0-.12.02-.2.05-.08.03-.16.08-.23.13-.08.05-.14.11-.2.17-.06.06-.08.12-.08.18-.08,0-.15.03-.21.06-.07.03-.13.07-.19.11-.05.03-.09.07-.12.13s-.06.13-.09.2c-.03.07-.05.14-.08.21-.03.07-.06.13-.09.18-.06.08-.11.16-.16.24-.04.08-.07.17-.07.27,0,.13.02.25.06.38s.06.26.06.39c0,.09,0,.17-.02.26s-.02.17-.02.25c0,.1.02.18.05.24s.08.11.15.14c.06.03.13.06.21.07s.16.02.24.02c.09,0,.18,0,.26,0,.08,0,.16,0,.23,0,.02.03.04.06.04.08,0,.02,0,.05,0,.08,0,.03-.01.05-.02.08,0,.03-.01.06-.01.09,0,.01,0,.03.01.05.05,0,.1-.01.14-.04s.07-.06.09-.12c.03,0,.05.02.07.03s.03.04.03.06c0,.02,0,.04-.02.06-.01.02-.02.04-.04.06s-.03.04-.04.06c0,.02-.02.04-.02.07,0,.01,0,.03,0,.05,0,.02,0,.03.02.04-.02.03-.04.05-.08.06s-.06.02-.1.02c-.06,0-.1,0-.14-.03-.04-.02-.07-.04-.1-.06s-.06-.04-.08-.06c-.02-.02-.05-.03-.09-.03-.01,0-.04,0-.06.01s-.06.02-.09.03-.05.02-.08.04c-.02.02-.03.03-.03.05,0,.03,0,.05.03.08s.03.05.03.08c0,.02,0,.04-.03.06s-.04.02-.06.03c-.03,0-.05,0-.08.01-.03,0-.05,0-.07,0-.14,0-.28-.02-.42-.05-.14-.03-.28-.05-.42-.05-.06,0-.13.01-.19.04s-.13.04-.2.04c-.04,0-.07,0-.09-.02-.02-.02-.04-.03-.05-.06s-.03-.04-.05-.06c-.02-.02-.04-.02-.08-.02-.07,0-.13,0-.2.02s-.13.03-.2.05c-.07.02-.13.03-.2.04-.07.01-.13.02-.2.02-.04,0-.08,0-.13-.01-.05,0-.1-.02-.15-.05s-.09-.05-.12-.08-.05-.07-.05-.12c0-.03.02-.07.05-.11s.07-.09.12-.14c.04-.04.09-.08.13-.12s.08-.05.1-.05c.06,0,.11,0,.17,0s.11,0,.17,0c.1,0,.19-.02.29-.05.1-.03.19-.07.27-.13.08-.06.15-.13.2-.21.05-.09.07-.18.07-.29,0-.05,0-.09,0-.14,0-.04-.01-.09-.01-.14,0-.09.01-.19.03-.28s.03-.19.03-.28c0-.13-.01-.25-.04-.38-.03-.13-.04-.26-.04-.39,0-.12,0-.24,0-.35,0-.12,0-.23,0-.35,0-.05,0-.13,0-.24s-.02-.21-.04-.31-.05-.2-.09-.27-.1-.12-.17-.12c-.08,0-.16,0-.24.03-.08.02-.16.03-.24.03-.06,0-.13,0-.21-.01-.08,0-.16-.03-.24-.05-.08-.03-.14-.06-.19-.12s-.08-.12-.08-.2c0-.09.01-.16.04-.22.03-.06.06-.1.1-.13s.09-.05.14-.06.12-.02.18-.02c.06,0,.12,0,.18,0s.12,0,.18,0c.12,0,.23,0,.34-.02.11-.01.23-.02.34-.02.08,0,.16,0,.24.01s.16.02.23.05c.07.02.12.06.15.12.03.06.06.12.09.18.03.06.06.12.09.16.04.05.09.07.17.07.04,0,.07,0,.1-.03.03-.02.06-.04.09-.07s.06-.05.09-.07.06-.04.1-.04c.08-.01.15-.04.22-.08s.13-.08.2-.12.13-.08.2-.11.14-.05.22-.05c.05,0,.11,0,.17-.02.07-.01.14-.03.21-.05.07-.02.14-.04.2-.07s.11-.06.15-.1c.1,0,.21.03.34.07s.26.09.38.16c.12.07.22.14.31.23.09.09.14.19.16.3.01.07.03.13.06.19.03.06.06.12.09.18.03.06.06.12.08.18.03.06.04.13.04.2Z" fill="#e8e9ed"/>
        <path d="M147.43,7.07c0,.06-.01.12-.03.17s-.04.11-.06.17c-.01.05-.02.09-.03.12,0,.03-.01.06-.02.08-.01.02-.03.04-.05.06-.02.02-.06.04-.11.07-.11.06-.22.12-.34.17-.12.06-.24.09-.36.09-.1,0-.2-.02-.29-.07-.09-.05-.17-.1-.25-.16-.08-.06-.15-.11-.21-.16s-.12-.08-.16-.08c-.05,0-.09.01-.12.04s-.07.05-.1.08-.07.06-.11.08-.09.04-.15.04c-.05,0-.1,0-.16.03s-.11.04-.16.06c-.05.02-.11.05-.16.07-.06.02-.11.04-.15.06-.16.04-.32.07-.49.08s-.33.01-.49.01c-.04,0-.11,0-.2,0-.09,0-.18-.01-.27-.03-.09-.02-.17-.04-.24-.08-.07-.04-.11-.09-.11-.15,0-.01,0-.03,0-.04-.03.03-.05.05-.09.07s-.07.03-.11.03c-.06,0-.13-.04-.21-.12-.08-.08-.16-.17-.24-.27-.08-.1-.14-.21-.19-.31-.05-.1-.08-.18-.08-.23,0-.04.01-.08.04-.11s.03-.07.03-.11c0-.05,0-.1-.02-.14-.01-.04-.02-.09-.02-.14,0-.06.01-.13.04-.21.03-.07.06-.15.09-.22.04-.07.07-.14.11-.21.04-.07.07-.13.11-.2.04-.07.09-.13.15-.17s.13-.08.2-.11c.07-.03.14-.06.21-.1.07-.03.13-.08.19-.13.05.06.12.09.21.09s.18-.01.26-.04c.09-.03.17-.04.26-.04.07,0,.14,0,.21.02s.14.02.21.02c.08,0,.14,0,.17-.03.04-.02.08-.05.14-.1.06-.05.13-.09.22-.12.09-.03.18-.05.27-.06.09-.02.19-.03.28-.05s.18-.04.25-.08c.08-.03.14-.08.18-.14.05-.06.07-.14.07-.24,0-.11-.03-.24-.1-.36-.07-.13-.15-.24-.25-.35-.1-.11-.22-.19-.34-.26s-.25-.1-.36-.1c-.01,0-.03,0-.04,0-.01,0-.03,0-.04,0-.09.01-.18.02-.29.03-.11,0-.21.02-.3.05-.09.03-.17.07-.24.13-.06.06-.1.16-.1.28,0,.07,0,.14.02.21.01.07.02.14.02.21,0,.11-.03.2-.08.27s-.12.13-.2.17c-.08.04-.17.07-.27.09-.1.02-.19.02-.28.02-.11,0-.2-.01-.28-.04s-.14-.09-.19-.2c-.04-.08-.08-.16-.13-.24-.04-.09-.07-.18-.07-.27,0-.1.02-.19.05-.27.03-.08.07-.17.12-.25.04-.08.09-.16.13-.24.04-.08.07-.17.09-.26.03-.01.06-.03.11-.04s.09-.03.14-.04.1-.03.15-.04c.05-.01.09-.02.12-.03.09-.02.17-.05.25-.09.08-.03.16-.07.25-.09s.17-.05.25-.08.17-.03.26-.04h.17c.15,0,.31,0,.47.04.16.03.32.07.47.13.15.06.3.13.44.21.14.08.26.18.37.3.08.09.14.19.2.3.05.12.09.24.12.37s.05.26.06.39c.01.13.02.25.02.36,0,.15,0,.3-.01.44,0,.14-.01.29-.01.44s0,.29.02.43c.02.14.04.28.06.42.02.14.04.28.06.42.02.14.02.28.02.42,0,.09.02.14.03.16.02.02.03.03.05.03.08,0,.14-.02.19-.07.05-.05.09-.1.13-.16.04-.06.08-.11.13-.16.05-.05.11-.08.18-.08.03,0,.07,0,.1,0s.07.01.09.02c.03.01.05.03.07.05.02.02.03.05.03.09ZM143.83,1.75s0,.06-.02.08c0,.02-.02.04-.04.05-.01.02-.03.03-.04.05-.01.02-.03.05-.03.08-.08.1-.16.18-.24.23-.08.05-.18.07-.33.07h-.15s-.07,0-.09-.01c-.02-.01-.04-.03-.07-.05-.02-.02-.06-.05-.11-.09-.02-.01-.04-.02-.07-.03s-.04-.02-.05-.04c-.02-.03-.03-.06-.03-.09,0-.03-.01-.06-.03-.09-.02-.04-.04-.07-.06-.08s-.03-.03-.05-.04c-.01-.01-.02-.03-.03-.06s-.01-.07-.01-.13c0-.08,0-.14,0-.18,0-.04.04-.08.09-.15.03-.03.04-.06.05-.09.01-.03.03-.07.06-.09.02-.03.06-.05.1-.08.04-.02.09-.04.13-.06.05-.02.1-.03.14-.03.05,0,.09-.01.14-.01.11,0,.21.02.3.08.09.05.16.11.22.19.06.08.11.17.14.27.03.1.05.2.05.3ZM145.66,5.74s0-.06,0-.11,0-.11-.01-.16c0-.06-.02-.1-.04-.15-.02-.04-.04-.06-.07-.06,0,0-.02,0-.03,0,0,0-.02,0-.03,0-.14.08-.25.14-.35.19-.1.05-.19.09-.29.12-.09.03-.2.05-.3.06s-.24.02-.4.02c-.02,0-.08,0-.18.03-.1.02-.2.04-.32.06-.11.02-.22.05-.32.07-.1.02-.16.04-.19.05-.05.02-.08.04-.1.05s-.04.04-.05.06-.02.04-.03.07c-.01.02-.03.05-.06.07-.04.03-.08.05-.12.07s-.08.04-.12.08c-.05.05-.1.12-.15.21-.05.09-.07.17-.07.25,0,.1.02.18.07.26.05.08.12.14.2.19s.18.1.28.14.21.07.31.09.21.04.31.05.18.02.25.02c.09,0,.19,0,.31-.02.12-.01.24-.03.35-.06.12-.03.23-.06.33-.11s.19-.11.25-.18c.03-.03.04-.05.05-.08.01-.02.02-.05.04-.07.01-.02.03-.05.04-.07.02-.02.04-.05.08-.08.08-.07.15-.14.19-.23s.08-.17.1-.26.03-.18.04-.28,0-.2,0-.3ZM145.83,1.46c0,.14,0,.25,0,.35,0,.1-.02.19-.06.26s-.09.13-.17.17c-.08.04-.19.08-.34.1-.03,0-.05.01-.08.02s-.05.01-.08.01c-.07,0-.14-.02-.23-.07-.08-.04-.16-.1-.23-.17-.07-.07-.13-.14-.18-.22-.05-.08-.07-.15-.07-.21,0-.05,0-.12,0-.2,0-.08.01-.15.03-.23.02-.08.04-.15.07-.21.03-.07.07-.12.12-.15s.11-.06.17-.07c.06-.01.12-.03.17-.06.02,0,.04-.01.06-.01.11,0,.22.01.31.04s.18.07.26.12c.07.06.13.13.17.21s.06.19.06.31Z" fill="#e8e9ed"/>
        <path d="M154.36,7.76c0,.06-.01.12-.03.17-.02.06-.05.11-.08.16-.08,0-.16.01-.24.02s-.16,0-.24,0-.16,0-.24,0c-.08,0-.16,0-.24,0-.11,0-.22.01-.33.03s-.21.03-.33.03c-.15,0-.22-.08-.24-.23-.05,0-.09.02-.13.05-.04.03-.08.06-.12.1-.04.03-.08.07-.13.1-.05.03-.1.05-.16.05s-.12-.02-.19-.05-.09-.09-.09-.16c0-.02,0-.05.02-.07s.03-.04.04-.06c.02-.02.03-.03.05-.04.01-.01.02-.02.02-.03,0-.02,0-.03-.02-.05s-.03-.03-.05-.04-.04-.03-.05-.05c-.01-.02-.02-.04-.02-.06,0-.06.02-.1.06-.13.04-.03.1-.05.17-.06s.14-.02.22-.02c.08,0,.16,0,.23,0s.14-.01.2-.03c.06-.02.1-.05.12-.09.04-.06.06-.14.09-.23s.04-.18.05-.28.02-.19.03-.29c0-.1,0-.18,0-.26,0-.16,0-.31-.02-.47s-.04-.31-.07-.46c-.01-.07-.03-.14-.06-.21s-.04-.14-.04-.21c0-.05,0-.09.02-.12s.03-.07.05-.1c.02-.03.03-.06.05-.08.01-.03.02-.05.02-.08,0-.06-.02-.11-.05-.16-.04-.04-.06-.09-.08-.15-.02-.05-.03-.1-.04-.15,0-.05-.02-.1-.04-.15-.02-.04-.04-.07-.07-.1-.03-.03-.06-.06-.09-.09-.03-.03-.06-.06-.09-.09-.03-.03-.05-.06-.06-.1-.13-.01-.25-.02-.36-.02-.16,0-.3,0-.44.03-.13.02-.26.05-.38.1s-.23.12-.34.2-.21.19-.31.31c-.04.04-.08.09-.13.15-.05.05-.1.11-.15.16-.05.06-.1.11-.14.17s-.07.11-.08.17c-.04.14-.06.3-.08.48s-.03.34-.03.49c0,.05,0,.1.02.15s.03.1.04.15c.02.05.03.1.04.15.01.05.02.1.02.15,0,.02,0,.07-.02.14-.01.07-.03.13-.05.2s-.04.13-.07.18c-.03.05-.05.08-.08.08,0,.02.03.06.08.1.04.04.09.08.15.12s.11.07.16.1.09.04.12.04c.03,0,.06,0,.09,0,.03,0,.06,0,.09,0,.07,0,.14.02.22.06.08.04.15.08.2.12.06.04.09.09.1.12.01.04-.02.06-.1.06-.02,0-.04,0-.06,0-.02,0-.04,0-.06,0-.04,0-.06,0-.08-.03-.01-.02-.03-.04-.04-.06,0-.02-.02-.04-.03-.06-.01-.02-.03-.03-.06-.03-.02,0-.03.01-.04.03,0,.02,0,.04,0,.05,0,.03.01.07.04.1.03.03.06.07.09.1s.07.07.09.11c.03.04.04.08.04.12,0,.02,0,.03-.02.04-.01,0-.03.01-.04.01-.04,0-.07,0-.11-.02s-.07-.02-.1-.02c-.03,0-.06.01-.09.04-.03.03-.07.06-.11.09s-.11.06-.18.09c-.08.03-.18.04-.3.04-.05,0-.09-.02-.11-.06s-.03-.08-.05-.13c-.01-.05-.03-.09-.05-.13s-.05-.06-.11-.06c-.03,0-.05.01-.07.03-.02.02-.03.04-.04.06h0s.02.03.03.05c.01.02.02.05.04.08s.02.06.03.08c0,.03.02.05.02.06h-.1c-.05,0-.1,0-.15,0s-.09.02-.14.04c-.04.01-.09.02-.14.03-.05.01-.09.01-.14.01-.05,0-.09,0-.13-.02-.04-.01-.08-.03-.12-.05-.06-.03-.12-.04-.19-.05s-.12-.01-.18-.02-.1-.04-.13-.08-.05-.11-.05-.2c0-.06.01-.12.03-.18s.05-.12.09-.16c.04-.05.09-.09.14-.12.05-.03.11-.05.17-.05.04,0,.08,0,.12.03.04.02.08.03.12.03.04,0,.06-.01.09-.03s.04-.05.06-.07c.02-.03.04-.05.06-.08.02-.02.05-.04.09-.05,0-.19.02-.38.05-.56.03-.18.04-.37.04-.56s-.02-.37-.05-.55c-.03-.18-.05-.36-.05-.55,0-.11.02-.23.05-.33s.05-.22.05-.33c0-.06-.01-.12-.04-.17-.03-.06-.04-.11-.04-.17,0-.05.01-.08.04-.11.02-.02.04-.06.05-.1h-.02s-.07-.02-.07-.08.02-.08.05-.08c.01,0,.03,0,.04.02,0-.03,0-.06-.02-.09-.02-.03-.03-.06-.05-.09s-.04-.06-.06-.09c-.02-.03-.03-.06-.03-.09.04-.08.06-.14.08-.2s.02-.11.02-.17c0-.05,0-.1,0-.15,0-.05,0-.11,0-.19,0-.08.02-.15.05-.23.03-.07.05-.15.05-.23,0-.05-.01-.08-.03-.1s-.05-.03-.08-.03c-.02,0-.04,0-.07.01,0-.05,0-.11-.01-.19,0-.08-.02-.16-.04-.23s-.05-.14-.09-.2c-.04-.06-.1-.08-.16-.08-.04,0-.08,0-.13,0-.04,0-.08,0-.13,0-.07,0-.13-.02-.2-.05s-.12-.08-.16-.14-.08-.12-.11-.19c-.03-.07-.04-.13-.04-.2,0-.07.02-.12.06-.13s.09-.03.15-.03c.03,0,.06,0,.08,0,.02,0,.05,0,.07,0,.04,0,.08,0,.12-.01.04,0,.08-.03.11-.06.11,0,.22-.02.33-.03s.22-.02.33-.02c.06,0,.11.01.16.04s.09.06.14.1c.04.04.09.07.14.1.05.03.1.05.16.06,0,.08,0,.16-.02.23s-.02.15-.02.23.02.15.05.21c.03.07.05.14.05.21,0,.02,0,.03-.02.04-.01,0-.03,0-.05,0-.02,0-.03.01-.04.02s-.02.04-.02.08c0,.03,0,.06.02.09s.03.06.04.08c.01.03.03.05.04.08s.02.06.02.09c0,.06,0,.11-.03.16s-.03.1-.03.16c0,.05,0,.12.02.22s.03.2.05.3c.03.1.06.19.1.27.04.08.09.12.15.12.07,0,.15-.02.21-.05.07-.04.13-.08.2-.13.06-.05.12-.11.18-.17.06-.06.11-.11.16-.16.03-.03.09-.06.19-.09s.19-.05.3-.08c.11-.02.21-.04.32-.06.1-.01.18-.02.22-.02.12,0,.2,0,.25.02s.1.04.13.06c.04.03.07.06.11.09.04.04.1.08.18.12.04.02.07.03.11.03.03,0,.07.01.1.02.03,0,.06.02.09.03.03.02.06.04.09.08.05.06.1.13.17.2.07.07.13.14.2.22.06.08.11.16.16.24s.07.16.07.25c0,.05-.01.11-.03.16s-.03.11-.03.16c0,.04,0,.07.03.1.02.03.03.06.03.1,0,.04,0,.1,0,.16,0,.06,0,.13-.02.2,0,.07-.02.14-.04.2-.02.06-.04.11-.06.14.05.09.09.18.11.28s.03.2.03.3c0,.13,0,.25-.02.37-.01.12-.02.25-.02.37,0,.17.03.3.08.39.05.09.11.16.19.21.07.05.15.08.24.1s.17.05.24.08c.07.03.13.07.18.13.05.06.08.14.08.25Z" fill="#e8e9ed"/>
        <path d="M159.64,6.11c0,.11-.01.22-.04.32-.03.1-.05.2-.09.3-.03.1-.07.2-.1.3-.03.1-.06.21-.08.31-.03.18-.1.33-.19.45-.1.12-.21.21-.35.28-.14.07-.29.12-.45.16-.17.03-.34.06-.51.08s-.35.03-.52.04-.33.02-.47.04c-.05-.04-.1-.08-.13-.13-.04-.05-.07-.09-.1-.13-.03-.04-.07-.08-.11-.1-.04-.03-.09-.04-.16-.04-.02,0-.04-.03-.05-.09-.01-.06-.02-.12-.03-.2-.01-.07-.02-.14-.04-.2-.01-.06-.03-.09-.05-.09-.08,0-.15-.02-.2-.05-.05-.04-.09-.08-.11-.14-.03-.06-.04-.12-.05-.19s-.01-.13-.01-.2c0-.05,0-.1-.03-.14s-.04-.08-.07-.13c-.03-.04-.05-.08-.07-.13s-.03-.09-.03-.13c0-.05,0-.12,0-.2,0-.08.01-.16.02-.25,0-.09.01-.17.02-.25,0-.08,0-.15,0-.2,0-.06,0-.12.02-.16.02-.04.04-.08.06-.11s.04-.06.06-.09c.02-.02.02-.05.02-.09,0-.04,0-.08-.03-.11s-.03-.06-.03-.09c0-.04.01-.08.04-.12.03-.04.04-.08.05-.12.04-.16.06-.31.06-.47,0-.03,0-.06,0-.09,0-.03,0-.06,0-.09-.08-.07-.17-.11-.27-.13-.1-.02-.2-.03-.3-.04-.1,0-.2-.02-.29-.03s-.17-.05-.24-.11c-.05-.05-.1-.11-.15-.17-.04-.06-.1-.1-.17-.13-.05-.02-.09-.04-.13-.07-.03-.03-.05-.07-.05-.13,0-.09.03-.15.08-.2.05-.04.11-.08.18-.11.07-.03.15-.05.22-.07.08-.02.14-.05.2-.09.05-.04.12-.06.19-.06.03,0,.06,0,.09,0,.03,0,.06,0,.09,0,.09,0,.16-.02.22-.05.06-.03.11-.07.14-.12.03-.05.06-.11.07-.18s.02-.14.02-.22c0-.11,0-.23-.02-.33s-.02-.22-.02-.33c0-.13.02-.25.05-.37s.1-.21.2-.31c.02-.02.04-.04.07-.07.02-.03.05-.06.08-.08.03-.03.06-.05.09-.07s.06-.03.09-.03c.02,0,.04,0,.06.01.02,0,.03.02.05.03.08.08.13.14.15.17.02.04.04.08.04.13,0,.03,0,.06,0,.09,0,.03,0,.08,0,.13,0,.11.01.23.04.34s.04.21.04.28c0,.07-.01.13-.04.2-.03.06-.04.13-.04.2,0,.05.01.1.03.14.02.04.05.08.08.12s.06.08.08.12c.03.04.04.09.04.14.04.02.12.05.24.07.12.02.26.04.42.05.15.01.31.02.47.03.16,0,.29.01.39.01.09,0,.17,0,.21.02s.09.03.13.05c.03.02.07.03.09.05.03.02.07.03.11.03.06,0,.11.02.15.05.04.02.06.07.06.14,0,.09-.02.15-.07.2s-.1.09-.17.11-.14.04-.21.05c-.08,0-.15,0-.21,0-.1,0-.21,0-.31-.01-.1,0-.21-.01-.31-.01-.17,0-.33.02-.47.05s-.26.09-.36.16c-.1.08-.18.17-.24.3-.06.12-.08.28-.08.46s.01.36.03.54.04.35.04.54c0,.17,0,.31,0,.41,0,.1.03.19.06.26.05.1.08.22.11.35s.07.26.11.38.11.22.19.3c.08.08.2.12.36.12.05,0,.12,0,.21-.02s.18-.04.27-.07c.09-.03.17-.07.23-.12.06-.05.1-.11.1-.18,0-.06-.02-.12-.05-.19-.04-.06-.05-.13-.05-.2,0-.05.01-.09.03-.13.02-.04.05-.07.09-.1.04-.03.08-.06.12-.08.04-.02.08-.04.12-.06.06-.08.14-.15.23-.21.09-.06.19-.08.29-.08.07,0,.14.01.21.04s.13.06.19.1c.01.06.02.13.02.2Z" fill="#e8e9ed"/>
        <path d="M165.53,6.89c0,.1-.02.18-.05.25s-.07.13-.12.18c-.05.05-.1.1-.17.15s-.13.1-.19.15c-.05.04-.1.08-.13.1s-.08.04-.12.05c-.04.01-.08.03-.12.04s-.09.03-.14.06c-.07.04-.13.07-.18.1-.05.03-.1.06-.15.08-.05.02-.1.05-.16.06-.06.02-.13.03-.21.04-.14.02-.29.04-.43.06-.14.02-.29.04-.43.04-.03,0-.06,0-.09-.02-.03-.01-.07-.03-.11-.04-.04-.01-.08-.02-.13-.04-.05-.01-.11-.02-.17-.02s-.13-.01-.17-.03-.08-.05-.12-.08-.07-.06-.1-.09c-.04-.03-.08-.06-.14-.09-.21-.1-.4-.21-.55-.35s-.28-.29-.39-.46-.2-.35-.27-.55c-.07-.2-.13-.4-.18-.62-.04-.15-.06-.3-.06-.45,0-.2.05-.38.14-.55-.04-.1-.05-.2-.05-.29,0-.07.02-.17.06-.3.04-.13.09-.27.15-.41s.13-.26.2-.37c.07-.11.14-.18.21-.2.05-.02.08-.03.1-.05.02-.01.03-.05.03-.1,0-.04.02-.08.05-.11s.08-.05.12-.07c.05-.02.1-.03.15-.05.05-.01.09-.03.12-.04.13-.06.26-.12.38-.16.12-.04.24-.08.36-.11.12-.03.24-.05.37-.07s.27-.02.41-.02c.08,0,.16.01.23.03s.15.05.22.08c.07.03.14.07.21.11.07.04.13.08.2.12h0c.05,0,.11.02.15.05.05.02.1.04.15.05.05.06.12.12.2.17.08.06.16.11.24.17s.14.13.2.2c.06.07.08.15.08.24,0,.01,0,.03,0,.04s0,.03,0,.05l.02-.03s.03.03.04.05.02.05.04.08c0,.03.02.06.03.09,0,.03.01.05.02.07.03.05.07.08.12.11.05.03.09.07.12.12-.04.04-.05.08-.05.14,0,.06.01.12.04.18.02.06.04.12.04.18,0,.07,0,.14-.01.21,0,.07-.01.13-.01.21,0,.05-.02.09-.06.12s-.09.05-.13.08c-.05.02-.09.04-.13.06-.04.02-.06.05-.06.09,0,.03-.02.04-.05.04-.03,0-.06,0-.08,0-.16,0-.31-.02-.47-.06-.16-.04-.31-.06-.46-.06-.17,0-.33.01-.5.04-.17.02-.33.03-.5.03-.12,0-.25,0-.37-.01-.12,0-.25-.01-.37-.01-.03,0-.09,0-.18.02-.09.01-.18.03-.28.05-.1.02-.19.04-.28.07-.09.03-.15.05-.19.08,0,.02,0,.04,0,.08,0,.17.05.34.15.52s.23.34.39.49c.16.15.34.27.54.37s.4.15.61.15c.12,0,.24,0,.35.01.12,0,.23.03.34.08.1-.05.19-.1.27-.16.08-.06.16-.13.23-.19.07-.07.15-.14.22-.21s.15-.14.22-.21c.01-.01.05-.03.11-.04.06-.01.12-.02.18-.03.06,0,.13-.02.19-.02.06,0,.1,0,.12,0,.08,0,.16.01.23.04.02.08.03.16.03.24ZM164.72,4.71c0-.05,0-.11-.03-.16-.02-.05-.03-.1-.04-.16-.02-.1-.03-.2-.03-.29s-.01-.19-.04-.29h0s0,.04-.02.06c-.01.02-.03.03-.06.03-.04,0-.08-.01-.12-.03-.04-.02-.07-.05-.1-.08-.14-.06-.26-.12-.37-.17s-.22-.1-.33-.14c-.11-.04-.23-.07-.35-.1-.12-.02-.27-.04-.43-.04-.01,0-.03,0-.04,0-.01,0-.02,0-.04.02l.03.06h-.04c-.1.03-.18.05-.24.06-.06.02-.12.04-.17.07-.05.03-.1.06-.15.1-.05.04-.11.09-.19.16-.04.03-.07.06-.12.07-.04.02-.08.03-.12.04-.04.01-.08.03-.12.04-.04.01-.07.04-.09.07-.02.09-.06.18-.11.26-.05.08-.07.17-.07.27,0,.05.02.1.07.14.04.04.1.08.17.1.07.03.15.05.23.08s.17.04.25.05c.08.01.16.02.23.02.07,0,.12,0,.16,0,.14,0,.27-.01.4-.04.13-.03.27-.04.4-.04s.28,0,.42.02c.14.01.28.02.42.02.04,0,.09,0,.16,0s.14-.01.21-.03c.07-.02.13-.04.18-.07.05-.03.08-.07.08-.12Z" fill="#e8e9ed"/>
      </g>
    </g>
  </g>
</svg>