<?xml version="1.0" encoding="UTF-8"?>
<svg id="Ebene_2" data-name="Ebene 2" xmlns="http://www.w3.org/2000/svg" viewBox="0 0 256 27">
  <g id="Missionstitel_Weiss" data-name="Missionstitel Weiss">
    <g id="Modul-3G20-M8_Weiss">
      <rect id="Exportfläche" width="256" height="27" fill="none"/>
      <g id="Linie">
        <rect x="251.48" y="25.5" width="4.52" height="1.5" fill="#e8e9ed"/>
        <rect x="243.86" y="25.5" width="4.52" height="1.5" fill="#e8e9ed"/>
        <rect x="236.24" y="25.5" width="4.52" height="1.5" fill="#e8e9ed"/>
        <rect x="228.62" y="25.5" width="4.52" height="1.5" fill="#e8e9ed"/>
        <rect x="221" y="25.5" width="4.52" height="1.5" fill="#e8e9ed"/>
        <rect x="213.38" y="25.5" width="4.52" height="1.5" fill="#e8e9ed"/>
        <rect x="205.76" y="25.5" width="4.52" height="1.5" fill="#e8e9ed"/>
        <rect x="198.14" y="25.5" width="4.52" height="1.5" fill="#e8e9ed"/>
        <rect x="190.52" y="25.5" width="4.52" height="1.5" fill="#e8e9ed"/>
        <rect x="182.9" y="25.5" width="4.52" height="1.5" fill="#e8e9ed"/>
        <rect x="175.28" y="25.5" width="4.52" height="1.5" fill="#e8e9ed"/>
        <rect x="167.66" y="25.5" width="4.52" height="1.5" fill="#e8e9ed"/>
        <rect x="160.03" y="25.5" width="4.52" height="1.5" fill="#e8e9ed"/>
        <rect x="152.41" y="25.5" width="4.52" height="1.5" fill="#e8e9ed"/>
        <rect x="144.79" y="25.5" width="4.52" height="1.5" fill="#e8e9ed"/>
        <rect x="137.17" y="25.5" width="4.52" height="1.5" fill="#e8e9ed"/>
        <rect x="129.55" y="25.5" width="4.52" height="1.5" fill="#e8e9ed"/>
        <rect x="121.93" y="25.5" width="4.52" height="1.5" fill="#e8e9ed"/>
        <rect x="114.31" y="25.5" width="4.52" height="1.5" fill="#e8e9ed"/>
        <rect x="106.69" y="25.5" width="4.52" height="1.5" fill="#e8e9ed"/>
        <rect x="99.07" y="25.5" width="4.52" height="1.5" fill="#e8e9ed"/>
        <rect x="91.45" y="25.5" width="4.52" height="1.5" fill="#e8e9ed"/>
        <rect x="83.83" y="25.5" width="4.52" height="1.5" fill="#e8e9ed"/>
        <rect x="76.21" y="25.5" width="4.52" height="1.5" fill="#e8e9ed"/>
        <rect x="68.59" y="25.5" width="4.52" height="1.5" fill="#e8e9ed"/>
        <rect x="60.97" y="25.5" width="4.52" height="1.5" fill="#e8e9ed"/>
        <rect x="53.34" y="25.5" width="4.52" height="1.5" fill="#e8e9ed"/>
        <rect x="45.72" y="25.5" width="4.52" height="1.5" fill="#e8e9ed"/>
        <rect x="38.1" y="25.5" width="4.52" height="1.5" fill="#e8e9ed"/>
        <rect x="30.48" y="25.5" width="4.52" height="1.5" fill="#e8e9ed"/>
        <rect x="22.86" y="25.5" width="4.52" height="1.5" fill="#e8e9ed"/>
        <rect x="15.24" y="25.5" width="4.52" height="1.5" fill="#e8e9ed"/>
        <rect x="7.62" y="25.5" width="4.52" height="1.5" fill="#e8e9ed"/>
        <rect y="25.5" width="4.52" height="1.5" fill="#e8e9ed"/>
      </g>
      <g>
        <rect y="0" width="256" height="25.5" fill="none"/>
        <path d="M9.35,15.2s0,.1,0,.18-.03.12-.07.15c-.05.02-.08.07-.09.12s-.02.12-.02.18,0,.11,0,.16c0,.05-.02.07-.06.07-.02,0-.04,0-.06-.02-.01-.01-.03-.02-.06-.02s-.05.01-.07.04-.04.05-.04.07,0,.04.03.05c.02.01.03.03.03.05,0,.02-.04.04-.11.07-.07.03-.16.05-.25.08-.09.03-.18.05-.27.07-.09.02-.15.03-.18.03-.18,0-.35-.03-.53-.1-.18-.06-.35-.12-.51-.18-.2-.07-.35-.18-.44-.34-.09-.16-.16-.33-.21-.53s-.08-.4-.1-.6c-.02-.21-.06-.39-.12-.55-.02-.07-.04-.13-.04-.18s0-.09.02-.12c.01-.03.03-.06.04-.08.02-.02.03-.04.04-.06.01-.02.02-.04.02-.05,0-.06-.02-.12-.05-.18s-.05-.14-.05-.23c0-.05,0-.11,0-.16,0-.05,0-.1,0-.16,0-.18-.02-.33-.05-.45s-.08-.22-.13-.32-.12-.2-.2-.29c-.08-.1-.16-.21-.25-.35-.04,0-.09.01-.14.01h-.14c-.1,0-.19,0-.29-.01-.1,0-.19-.01-.29-.01-.1,0-.21,0-.31.03-.11.02-.21.03-.32.03-.07,0-.14-.01-.21-.03-.07-.02-.14-.03-.21-.03-.08,0-.17.02-.25.05-.08.03-.16.08-.23.13-.07.06-.12.12-.17.2-.04.08-.06.16-.06.25v.23c0,.42-.04.84-.11,1.25,0,.06-.02.12-.03.19,0,.06-.01.13-.01.19,0,.2.04.36.12.48.08.12.18.22.3.3.12.08.25.14.39.19s.27.1.39.15c.12.05.22.11.3.19.08.07.12.17.12.3,0,.05,0,.09-.03.14-.02.04-.04.08-.06.12-.06.1-.12.18-.18.23-.06.05-.12.09-.18.12-.07.03-.14.05-.22.07s-.17.03-.28.06c-.08.02-.17.03-.26.04-.09,0-.18.01-.27.01-.14,0-.27-.02-.4-.05-.13-.03-.27-.05-.4-.05-.1,0-.21,0-.31.03-.11.02-.21.04-.31.06-.1.02-.21.04-.31.06-.1.02-.21.03-.31.03-.07,0-.14,0-.22-.02-.08-.01-.15-.04-.22-.08-.07-.04-.13-.08-.17-.14s-.07-.13-.07-.21c0-.07.02-.13.05-.18s.08-.1.14-.14c.06-.04.12-.07.18-.09s.12-.04.18-.04c.05,0,.1,0,.14,0s.07,0,.1-.01c.03,0,.05-.02.08-.04.03-.02.06-.05.1-.09.02-.02.05-.04.07-.06.02-.01.05-.02.08-.02.02,0,.05,0,.07,0s.05,0,.07,0c.04,0,.08-.01.12-.04.1-.06.18-.13.22-.23s.07-.19.09-.3c.01-.11.02-.22.03-.34,0-.12.02-.22.04-.32.02-.11.04-.21.04-.3,0-.17-.02-.34-.06-.51-.04-.17-.06-.33-.06-.51,0-.21.01-.41.04-.62s.04-.41.04-.62c0-.05,0-.1,0-.15s0-.1,0-.15c0-.35.02-.7.07-1.04.04-.34.07-.69.07-1.04,0-.1,0-.19,0-.29s-.01-.19-.02-.29c0-.08-.02-.17-.03-.29,0-.11-.02-.23-.04-.36-.02-.12-.05-.24-.08-.37-.03-.12-.08-.23-.13-.33-.06-.1-.12-.17-.21-.23-.08-.06-.18-.09-.29-.09-.02,0-.05,0-.08,0-.03,0-.05,0-.08,0-.05,0-.1-.02-.13-.05-.03-.03-.06-.07-.08-.12-.02-.05-.03-.1-.04-.15,0-.05-.01-.1-.01-.14,0-.17.04-.29.13-.37s.19-.13.32-.16c.12-.03.26-.04.4-.04.14,0,.27,0,.38-.01.13,0,.25-.03.38-.07.12-.03.25-.05.38-.05.19,0,.38.02.56.07.19.05.37.07.56.07.16,0,.31-.01.45-.04.15-.03.29-.06.44-.11.07-.02.14-.04.2-.04.19,0,.38.03.56.07s.37.08.56.09c.13,0,.26.03.4.07.14.04.26.09.38.15.12.07.22.15.31.25s.14.22.17.36c.01.08.05.16.1.24.05.08.11.14.17.21.06.06.11.12.16.17.05.05.07.09.07.13s-.02.06-.05.08c-.03.02-.05.04-.05.08,0,.02.02.05.05.08.03.03.07.06.11.1.04.04.07.08.11.13.03.05.05.1.05.15,0,.07-.02.14-.07.19-.05.06-.07.12-.07.19v.02s.12-.03.12-.03h.01c.02.09.03.17.03.26,0,.08,0,.16,0,.23,0,.09,0,.2,0,.31s-.02.22-.04.33c-.02.11-.05.21-.09.3s-.1.17-.17.22c-.04.03-.09.06-.14.08-.05.02-.09.04-.14.06-.04.02-.08.05-.12.08s-.06.08-.08.14c-.02.08-.07.16-.12.23-.06.07-.12.15-.18.22-.06.07-.11.14-.16.22s-.07.15-.07.24c0,.14.03.27.1.4.07.12.13.25.18.37.05.13.09.26.12.4.02.13.04.27.05.41s.02.27.03.41c0,.14.02.27.04.41,0,.06.03.16.07.29.04.13.08.27.14.41s.11.26.18.36.14.15.21.15c.06,0,.11-.03.15-.1s.08-.15.11-.23c.04-.09.08-.17.12-.26.05-.08.11-.14.19-.17.15.02.28.04.38.09.1.04.18.1.23.18.05.08.09.17.11.28.02.11.03.24.03.38ZM7.16,8.47c0-.07-.01-.15-.04-.24-.03-.09-.07-.18-.11-.27s-.09-.18-.14-.26c-.05-.08-.1-.15-.15-.21-.1,0-.17,0-.21-.02-.03-.02-.06-.03-.07-.06,0-.02-.02-.05-.03-.08s-.05-.06-.11-.09c-.17-.08-.32-.15-.46-.19-.14-.04-.3-.07-.49-.07-.05,0-.11.01-.16.04-.05.03-.1.04-.14.04-.11,0-.22-.01-.33-.04-.11-.03-.22-.04-.33-.04-.16,0-.33.02-.5.06-.11.03-.22.06-.34.08s-.21.06-.3.11c-.09.05-.16.12-.22.2-.06.08-.08.2-.08.34s.02.3.05.45.05.3.05.45c0,.07-.01.14-.03.21-.02.07-.04.14-.07.2-.02.07-.05.13-.07.2-.02.07-.03.14-.03.21,0,.09,0,.18.03.27.02.09.05.17.09.24.04.07.1.13.17.17.07.04.16.07.27.07s.2-.02.29-.06c.09-.04.19-.06.29-.06.05,0,.1.01.15.04.05.03.1.05.15.08s.1.06.15.08c.05.03.11.04.18.04.05,0,.1,0,.14-.02.04-.01.09-.03.12-.05.19-.08.38-.16.59-.22.21-.07.41-.1.62-.1.05,0,.12-.03.19-.09.07-.06.15-.14.23-.23.08-.09.16-.2.23-.31.08-.12.15-.23.21-.34.06-.11.11-.22.15-.31.04-.1.05-.17.05-.22Z" fill="#e8e9ed"/>
        <path d="M17.07,14.83c0,.13-.02.25-.06.34s-.09.18-.16.25c-.07.07-.14.14-.23.21-.09.06-.17.13-.26.21-.07.06-.13.1-.18.13s-.11.05-.16.07c-.05.02-.11.04-.16.06-.06.02-.12.05-.19.08-.1.05-.18.09-.25.14-.07.04-.13.08-.2.11-.07.03-.14.06-.22.08-.08.02-.18.04-.29.05-.2.02-.39.05-.59.09-.2.03-.39.05-.59.05-.04,0-.08,0-.12-.03-.04-.02-.09-.03-.14-.05-.05-.02-.11-.03-.18-.05-.07-.02-.15-.03-.24-.03-.1,0-.18-.02-.23-.04s-.11-.06-.16-.1c-.05-.04-.09-.08-.14-.13-.05-.05-.11-.09-.19-.12-.29-.13-.54-.29-.75-.48s-.38-.39-.53-.62-.27-.48-.37-.75c-.1-.27-.18-.55-.25-.84-.05-.21-.08-.41-.08-.62,0-.27.06-.52.19-.75-.05-.14-.07-.27-.07-.4,0-.09.03-.23.08-.41.05-.18.12-.37.21-.55s.18-.35.28-.5c.1-.15.19-.24.28-.27.07-.02.12-.04.14-.06.03-.02.04-.06.04-.14,0-.06.02-.11.07-.15.05-.04.1-.07.17-.09.07-.02.13-.05.2-.07.07-.02.12-.04.16-.06.18-.09.35-.16.52-.22.16-.06.33-.11.49-.15.16-.04.33-.07.51-.09s.36-.03.56-.03c.11,0,.21.01.31.04s.2.07.3.11c.09.05.19.1.28.15.09.06.18.11.27.17h0c.07,0,.14.03.21.06.07.03.14.05.21.06.07.08.16.16.27.24.11.08.22.16.32.24.1.08.19.17.27.27.08.1.11.2.11.33,0,.02,0,.04,0,.06,0,.02,0,.04-.01.07l.03-.04s.04.04.06.07c.02.03.03.07.05.11.01.04.03.08.04.12,0,.04.02.07.02.1.04.06.09.12.16.15.07.04.12.09.16.16-.05.05-.07.11-.07.19,0,.08.02.16.05.25.03.08.05.16.05.25,0,.1,0,.19-.01.28,0,.09-.01.18-.01.28,0,.07-.03.13-.08.17-.06.04-.12.07-.18.1-.07.03-.13.06-.18.09s-.08.07-.08.12c0,.04-.02.06-.07.06-.05,0-.08,0-.11,0-.21,0-.43-.03-.64-.08-.21-.05-.42-.08-.63-.08-.23,0-.46.02-.68.05-.22.03-.45.05-.68.05-.17,0-.34,0-.51-.02-.17,0-.34-.01-.51-.01-.04,0-.13,0-.25.03-.12.02-.25.04-.38.07-.13.03-.26.06-.38.1-.12.04-.21.07-.26.11,0,.02,0,.06,0,.1,0,.23.07.47.2.71.13.24.31.47.53.67.22.2.47.37.74.5.27.13.55.2.83.2.16,0,.32,0,.48.02.16.01.31.05.46.11.13-.06.25-.14.36-.22.11-.08.22-.17.32-.26s.2-.19.3-.29.2-.2.3-.29c.02-.02.07-.04.14-.05.08-.02.16-.03.25-.04.09-.01.17-.02.25-.03.08,0,.14-.01.16-.01.11,0,.22.02.31.05.03.11.04.22.04.33ZM15.97,11.86c0-.07-.01-.14-.04-.21s-.04-.14-.06-.21c-.02-.14-.04-.27-.04-.4s-.02-.26-.06-.39h0s0,.06-.03.08c-.02.03-.05.04-.08.04-.06,0-.11-.01-.17-.04s-.1-.07-.14-.11c-.19-.08-.35-.16-.5-.23-.15-.07-.3-.14-.45-.19-.15-.06-.31-.1-.48-.13-.17-.03-.36-.05-.58-.05-.02,0-.04,0-.05,0-.02,0-.03.01-.05.03l.04.08-.06.02c-.13.02-.24.05-.33.07-.09.02-.16.05-.23.09-.07.04-.14.09-.2.14-.07.06-.15.13-.25.22-.05.04-.1.08-.16.1-.06.02-.11.04-.17.06-.06.02-.11.04-.16.06-.05.02-.09.05-.13.09-.03.12-.08.24-.15.36-.07.11-.1.24-.1.36,0,.07.03.14.09.19.06.06.14.1.23.14.1.04.2.07.32.1.11.03.23.05.34.07.11.01.22.03.31.03.1,0,.17.01.22.01.19,0,.37-.02.55-.05.18-.04.36-.05.55-.05s.38,0,.57.03c.19.02.38.03.57.03.05,0,.12,0,.22,0s.19-.02.29-.04c.1-.02.18-.05.25-.1.07-.04.11-.1.11-.16Z" fill="#e8e9ed"/>
        <path d="M26.13,17.6c0,.16-.05.32-.16.49-.11.17-.23.33-.37.48s-.29.27-.43.36c-.14.1-.25.14-.32.14-.13,0-.25.02-.37.06-.12.04-.24.08-.35.14-.11.05-.27.11-.48.16-.21.05-.44.1-.68.14-.24.04-.47.08-.69.1-.22.03-.39.04-.51.04-.14,0-.29,0-.45-.01s-.32-.03-.48-.05c-.16-.02-.32-.05-.47-.09-.15-.04-.3-.08-.43-.14-.07-.03-.12-.06-.16-.09-.04-.03-.08-.06-.12-.08s-.08-.04-.13-.06-.12-.02-.21-.02c-.1,0-.19-.02-.25-.06-.06-.04-.12-.08-.16-.14-.04-.06-.08-.12-.12-.19-.04-.07-.08-.14-.13-.21-.11-.14-.19-.28-.24-.41-.05-.13-.08-.28-.08-.46,0-.25.05-.49.15-.72.1-.23.24-.44.4-.63,0-.15-.02-.29-.06-.43-.04-.14-.08-.28-.12-.43-.04-.14-.08-.28-.12-.42-.04-.14-.05-.29-.05-.43,0-.1.01-.18.04-.24.03-.06.06-.11.08-.15.03-.04.06-.08.08-.12.03-.04.04-.08.04-.13,0-.01.04-.06.11-.12.07-.07.15-.15.23-.23.08-.09.16-.18.23-.28.07-.1.11-.18.11-.26,0-.06-.03-.12-.08-.18-.05-.06-.11-.11-.17-.17-.06-.06-.11-.11-.17-.18-.05-.06-.08-.13-.08-.2,0-.11,0-.22.03-.33.02-.11.04-.22.06-.32.02-.1.04-.21.06-.32.02-.11.03-.22.03-.33,0-.02,0-.05-.01-.06,0-.02-.01-.04-.01-.06,0-.05.01-.1.04-.14.03-.04.06-.08.09-.11.03-.03.06-.06.09-.09.03-.03.04-.06.04-.09,0-.04-.01-.08-.04-.11-.03-.04-.04-.09-.04-.16v-.07c.08-.05.14-.12.19-.19.05-.07.11-.14.18-.2.1-.08.21-.17.35-.25.13-.08.26-.15.37-.21.04,0,.07.02.08.06s.04.05.08.05c.03,0,.08-.02.14-.05.06-.03.14-.07.22-.11.08-.04.18-.08.27-.11.1-.03.19-.05.28-.05.08,0,.16,0,.23.02.08.01.16.02.23.03.16.02.3.03.42.04s.24.02.34.05.2.08.29.15.18.19.28.34c.05-.04.1-.08.17-.12s.12-.07.18-.11c.06-.04.11-.08.16-.12.05-.05.09-.1.11-.17.05.03.1.04.15.04.04,0,.08-.01.12-.04s.1-.06.15-.09c.06-.03.13-.06.21-.09s.17-.04.28-.04c.17,0,.33.02.49.05s.32.06.49.07c0,.11.03.22.07.32.03.1.07.2.11.3.04.1.07.21.11.31.03.1.05.21.05.32,0,.07-.04.16-.11.25s-.17.18-.28.26c-.11.08-.23.15-.35.2-.12.05-.24.08-.33.08-.01,0-.03,0-.05-.01s-.03-.02-.03-.04c0-.05.02-.09.05-.12.03-.03.05-.08.05-.12-.06-.03-.1-.05-.11-.06s-.02,0-.03,0c-.08,0-.15.02-.2.06-.05.04-.09.1-.11.17-.02.07-.04.15-.05.23,0,.08-.01.17-.01.26,0,.1,0,.19,0,.27,0,.09,0,.16,0,.22,0,.12,0,.23-.02.33-.01.1-.07.19-.16.27-.09.08-.16.17-.21.28-.05.1-.1.2-.15.31-.05.11-.1.22-.17.32-.06.11-.15.21-.26.29-.06.06-.11.1-.14.13-.04.03-.06.05-.08.07s-.03.02-.04.03c0,0-.01,0-.02,0-.13,0-.26.02-.38.05-.12.04-.24.08-.37.12-.12.04-.24.08-.37.12-.12.04-.25.06-.38.06-.2,0-.4-.02-.59-.07-.19-.05-.39-.07-.6-.07-.1,0-.21.02-.33.06s-.24.09-.34.17c-.11.07-.19.15-.27.25-.07.09-.11.2-.11.31,0,.07.01.14.04.21s.07.14.12.2.11.11.17.14c.07.04.14.05.21.05.08,0,.16-.02.23-.06.07-.04.15-.06.23-.06.06,0,.11.02.14.05.04.03.08.05.12.05,0-.03.01-.06.03-.08.02-.02.05-.04.08-.04.03,0,.06.02.09.05s.06.06.1.07c.02-.04.06-.07.1-.08.04-.02.09-.03.13-.03.06,0,.11.01.17.03.05.02.1.04.15.07.05.03.1.05.14.07s.09.03.13.03c.04,0,.07-.01.1-.03.03-.02.06-.05.1-.08s.07-.05.12-.08c.04-.02.1-.03.17-.03.05,0,.1,0,.15.01.05,0,.1.01.15.01.07,0,.14-.02.21-.05.07-.04.14-.05.21-.05.04,0,.08,0,.11.03.04.02.08.04.14.07s.12.05.19.07c.08.02.17.03.28.03.08,0,.16.01.23.04.08.03.15.05.23.09.07.04.15.07.22.1.08.03.15.06.22.08.09.02.15.05.2.07s.08.05.11.08c.03.03.05.06.08.1.03.04.08.08.14.13.07.06.14.1.21.13.07.03.13.06.19.1.06.03.11.08.15.13s.07.13.1.24c.02.11.05.22.08.34s.04.23.04.34ZM24.96,17.36c0-.14-.04-.25-.11-.33s-.16-.14-.27-.18c-.11-.04-.23-.08-.35-.1-.12-.02-.24-.05-.34-.08h0c-.27-.09-.54-.16-.81-.22-.27-.06-.54-.09-.82-.09,0,0-.03,0-.05-.01-.02,0-.08-.04-.16-.09-.04,0-.07,0-.1.03s-.06.04-.08.07c-.03.02-.05.05-.08.07s-.06.03-.1.03c-.05,0-.1-.01-.15-.03-.05-.02-.1-.03-.15-.03-.11,0-.21.02-.31.05-.1.03-.2.07-.3.1-.1.04-.2.07-.3.1-.1.03-.21.05-.31.05-.06,0-.14.03-.22.09s-.17.13-.25.21c-.08.08-.14.17-.2.26-.05.09-.08.17-.08.23,0,.15.02.29.06.42.04.13.1.24.19.33s.18.17.3.22.26.08.42.08c.05,0,.1,0,.15.01.05,0,.1.03.15.07.17.13.36.21.57.23.21.02.41.03.62.03.13,0,.25-.03.36-.08s.23-.09.36-.12c.12-.02.25-.04.37-.03.12,0,.25-.02.36-.08.08-.04.15-.08.2-.11.05-.04.13-.05.22-.05.08,0,.16,0,.24.02.08.02.15.02.24.02s.16-.02.23-.05c.07-.04.13-.09.18-.15.05-.06.09-.13.11-.21.03-.08.04-.15.04-.23v-.07c.09,0,.14-.04.17-.12s.04-.16.04-.23ZM23.5,11.79c0-.11-.02-.23-.06-.37-.04-.14-.09-.27-.16-.39-.07-.12-.15-.24-.24-.33-.09-.1-.19-.16-.3-.2l-.85-.3s-.08,0-.1.02-.05.02-.07.03c-.02.01-.05.02-.07.03s-.06.01-.1.01c-.06,0-.12-.01-.18-.04-.05-.02-.11-.04-.17-.04-.05,0-.1.02-.13.05s-.07.07-.1.1c-.03.04-.06.06-.09.07-.03.01-.05.03-.08.04s-.05.02-.08.03c-.03.01-.06.03-.08.05-.04.02-.09.09-.14.21s-.1.24-.15.38-.09.27-.12.4-.05.21-.05.26c0,.02.01.06.04.13.03.07.07.15.11.24.05.09.1.19.15.29.06.1.11.2.16.29.05.09.1.17.14.25.04.07.07.12.09.14.06.08.13.14.21.16.08.03.16.04.24.04.07,0,.14,0,.22-.02.08,0,.15-.01.22-.01.06,0,.11,0,.17.02.05.01.11.02.17.02.16,0,.32-.05.49-.16s.32-.24.45-.4.25-.33.34-.51c.09-.18.13-.35.13-.5ZM24.24,10.25c0-.08-.04-.14-.12-.19s-.16-.07-.23-.07c-.04,0-.08,0-.11.03-.03.02-.06.05-.07.08.04,0,.07.03.1.05s.06.05.08.08.06.05.09.07c.03.02.07.03.11.03s.09,0,.13-.02v-.05Z" fill="#e8e9ed"/>
        <path d="M33.97,14.83c0,.13-.02.25-.06.34s-.09.18-.16.25c-.07.07-.14.14-.23.21-.09.06-.17.13-.26.21-.07.06-.13.1-.18.13s-.11.05-.16.07c-.05.02-.11.04-.16.06-.06.02-.12.05-.19.08-.1.05-.18.09-.25.14-.07.04-.13.08-.2.11-.07.03-.14.06-.22.08-.08.02-.18.04-.29.05-.2.02-.39.05-.59.09-.2.03-.39.05-.59.05-.04,0-.08,0-.12-.03-.04-.02-.09-.03-.14-.05-.05-.02-.11-.03-.18-.05-.07-.02-.15-.03-.24-.03-.1,0-.18-.02-.23-.04s-.11-.06-.16-.1c-.05-.04-.09-.08-.14-.13-.05-.05-.11-.09-.19-.12-.29-.13-.54-.29-.75-.48s-.38-.39-.53-.62-.27-.48-.37-.75c-.1-.27-.18-.55-.25-.84-.05-.21-.08-.41-.08-.62,0-.27.06-.52.19-.75-.05-.14-.07-.27-.07-.4,0-.09.03-.23.08-.41.05-.18.12-.37.21-.55s.18-.35.28-.5c.1-.15.19-.24.28-.27.07-.02.12-.04.14-.06.03-.02.04-.06.04-.14,0-.06.02-.11.07-.15.05-.04.1-.07.17-.09.07-.02.13-.05.2-.07.07-.02.12-.04.16-.06.18-.09.35-.16.52-.22.16-.06.33-.11.49-.15.16-.04.33-.07.51-.09s.36-.03.56-.03c.11,0,.21.01.31.04s.2.07.3.11c.09.05.19.1.28.15.09.06.18.11.27.17h0c.07,0,.14.03.21.06.07.03.14.05.21.06.07.08.16.16.27.24.11.08.22.16.32.24.1.08.19.17.27.27.08.1.11.2.11.33,0,.02,0,.04,0,.06,0,.02,0,.04-.01.07l.03-.04s.04.04.06.07c.02.03.03.07.05.11.01.04.03.08.04.12,0,.04.02.07.02.1.04.06.09.12.16.15.07.04.12.09.16.16-.05.05-.07.11-.07.19,0,.08.02.16.05.25.03.08.05.16.05.25,0,.1,0,.19-.01.28,0,.09-.01.18-.01.28,0,.07-.03.13-.08.17-.06.04-.12.07-.18.1-.07.03-.13.06-.18.09s-.08.07-.08.12c0,.04-.02.06-.07.06-.05,0-.08,0-.11,0-.21,0-.43-.03-.64-.08-.21-.05-.42-.08-.63-.08-.23,0-.46.02-.68.05-.22.03-.45.05-.68.05-.17,0-.34,0-.51-.02-.17,0-.34-.01-.51-.01-.04,0-.13,0-.25.03-.12.02-.25.04-.38.07-.13.03-.26.06-.38.1-.12.04-.21.07-.26.11,0,.02,0,.06,0,.1,0,.23.07.47.2.71.13.24.31.47.53.67.22.2.47.37.74.5.27.13.55.2.83.2.16,0,.32,0,.48.02.16.01.31.05.46.11.13-.06.25-.14.36-.22.11-.08.22-.17.32-.26s.2-.19.3-.29.2-.2.3-.29c.02-.02.07-.04.14-.05.08-.02.16-.03.25-.04.09-.01.17-.02.25-.03.08,0,.14-.01.16-.01.11,0,.22.02.31.05.03.11.04.22.04.33ZM32.87,11.86c0-.07-.01-.14-.04-.21s-.04-.14-.06-.21c-.02-.14-.04-.27-.04-.4s-.02-.26-.06-.39h0s0,.06-.03.08c-.02.03-.05.04-.08.04-.06,0-.11-.01-.17-.04s-.1-.07-.14-.11c-.19-.08-.35-.16-.5-.23-.15-.07-.3-.14-.45-.19-.15-.06-.31-.1-.48-.13-.17-.03-.36-.05-.58-.05-.02,0-.04,0-.05,0-.02,0-.03.01-.05.03l.04.08-.06.02c-.13.02-.24.05-.33.07-.09.02-.16.05-.23.09-.07.04-.14.09-.2.14-.07.06-.15.13-.25.22-.05.04-.1.08-.16.1-.06.02-.11.04-.17.06-.06.02-.11.04-.16.06-.05.02-.09.05-.13.09-.03.12-.08.24-.15.36-.07.11-.1.24-.1.36,0,.07.03.14.09.19.06.06.14.1.23.14.1.04.2.07.32.1.11.03.23.05.34.07.11.01.22.03.31.03.1,0,.17.01.22.01.19,0,.37-.02.55-.05.18-.04.36-.05.55-.05s.38,0,.57.03c.19.02.38.03.57.03.05,0,.12,0,.22,0s.19-.02.29-.04c.1-.02.18-.05.25-.1.07-.04.11-.1.11-.16Z" fill="#e8e9ed"/>
        <path d="M43.78,16.17c0,.07-.02.12-.05.17-.03.04-.08.08-.13.1-.05.02-.11.04-.17.05-.06,0-.12.01-.17.01-.07,0-.15,0-.22-.01-.07-.01-.15-.02-.22-.03-.1.03-.21.07-.35.11-.13.04-.25.05-.36.05-.03,0-.06,0-.08-.01-.03-.01-.05-.02-.08-.02-.08,0-.17.02-.25.05-.09.03-.17.05-.25.05-.14,0-.28-.02-.41-.05-.13-.04-.26-.06-.41-.07-.23-.02-.41-.11-.53-.27-.12-.16-.19-.35-.2-.57.15-.09.31-.16.48-.19.17-.03.34-.05.51-.05.1,0,.19,0,.29,0,.09,0,.19.01.29.02-.01-.37-.05-.73-.1-1.1s-.07-.73-.07-1.11c0-.13,0-.25.01-.38,0-.13.02-.25.05-.38.02-.13.06-.25.1-.38.04-.12.06-.25.06-.38,0-.08-.01-.16-.04-.23-.02-.07-.06-.14-.1-.22-.03-.06-.06-.12-.07-.2s-.02-.15-.04-.22c-.01-.08-.04-.15-.07-.22-.03-.07-.08-.14-.14-.2-.07-.06-.16-.1-.27-.14s-.27-.05-.46-.05c-.06,0-.15,0-.26.03-.11.02-.23.04-.35.07-.12.03-.23.06-.34.09-.1.04-.18.08-.22.11-.02.03-.05.06-.09.1-.04.04-.08.09-.12.13-.04.05-.08.09-.12.12-.04.04-.07.06-.1.06-.07.01-.13.03-.16.04-.04,0-.07.02-.09.04-.02.02-.04.05-.06.08-.01.04-.04.09-.07.16,0,.02-.03.06-.06.11-.03.06-.06.08-.09.08-.02,0-.04,0-.05-.03s-.03-.03-.05-.03c0,0-.02,0-.04.02-.02.01-.03.02-.04.03v.21s-.06.06-.09.06c-.03,0-.05,0-.07.01-.02,0-.03.02-.04.04,0,.02-.01.07-.01.14,0,.05-.01.1-.04.15-.02.04-.05.09-.08.13-.03.04-.05.09-.08.14-.02.05-.04.1-.04.16,0,.1.01.19.04.28.03.09.04.18.04.28,0,.06,0,.12-.03.16s-.04.08-.07.12c-.03.04-.05.07-.07.11s-.03.08-.03.12c0,.07.01.13.04.19.03.06.05.11.08.17s.06.12.08.18.04.13.04.21c0,.08,0,.17-.03.25-.02.08-.03.17-.03.26,0,.1.02.18.05.24.03.06.07.1.12.13.05.03.11.05.18.07.07.01.14.04.21.06.07.03.14.06.22.11.07.05.14.12.21.21h.04c.08,0,.14.03.18.09s.06.14.06.21-.01.13-.04.18c-.03.05-.04.12-.04.2,0,.06-.06.11-.19.15s-.27.07-.43.09c-.16.02-.32.04-.47.04-.15,0-.25.01-.3.01-.06,0-.15,0-.27,0-.12,0-.25,0-.4-.01-.15,0-.3-.02-.46-.03s-.31-.04-.45-.06c-.14-.03-.25-.06-.35-.1-.09-.04-.15-.09-.18-.15s-.05-.12-.07-.19c-.02-.07-.04-.14-.04-.21,0-.07.02-.14.05-.2.04-.06.08-.11.14-.16.07-.07.15-.11.24-.12.09-.01.17-.02.26-.02.08,0,.17,0,.25-.02.08-.01.15-.05.21-.11.06-.06.11-.16.15-.3.04-.14.06-.33.06-.58,0-.06,0-.13-.01-.19,0-.07-.02-.13-.04-.19-.01-.06-.03-.12-.04-.17s-.01-.08-.01-.11c0-.03,0-.06.03-.1.02-.03.04-.07.06-.11.02-.04.04-.08.06-.12.02-.04.03-.09.03-.15,0-.08-.02-.16-.05-.24s-.05-.16-.05-.24c0-.07.01-.13.04-.2s.04-.13.04-.2c0-.05-.01-.11-.04-.15s-.04-.1-.04-.16c0-.05,0-.11.03-.17.02-.06.03-.11.03-.17,0-.13-.01-.26-.04-.39-.03-.13-.06-.26-.08-.39-.03-.15-.08-.27-.17-.34-.08-.08-.17-.13-.27-.17-.1-.04-.21-.07-.32-.09s-.21-.06-.31-.11c-.09-.05-.17-.12-.23-.22-.06-.1-.09-.24-.09-.42,0-.13.04-.22.11-.29.08-.07.17-.12.27-.15.11-.03.22-.05.34-.06.12,0,.22,0,.31,0,.14,0,.28.02.42.06.14.04.28.07.42.08.06,0,.12.03.18.06.06.04.11.08.16.13.05.05.09.11.12.17.03.06.05.13.05.19,0,.03,0,.08.03.16.02.08.04.15.07.23.03.08.06.15.09.21.03.06.06.09.1.09.03-.02.05-.05.06-.08.01-.03.02-.06.03-.09,0-.03.04-.07.1-.12.06-.05.13-.1.21-.15.08-.05.15-.1.22-.15.07-.05.12-.09.15-.12.03-.03.05-.07.07-.11.02-.04.03-.07.05-.1.02-.03.04-.06.07-.08.03-.02.07-.03.13-.03h.04c.05,0,.1-.02.15-.07.05-.05.11-.1.19-.16s.18-.11.31-.16c.13-.05.3-.07.51-.07.18,0,.36,0,.54.01.18,0,.35.03.52.08s.32.11.46.21c.14.09.27.22.38.39.08.13.15.23.21.29s.1.12.13.18.06.13.07.21c.01.08.02.21.02.37,0,.07.01.13.04.19s.05.12.08.18c.03.06.06.13.08.19.02.07.04.15.04.23,0,.17,0,.34-.03.51-.02.17-.03.34-.03.51,0,.12-.02.24-.07.36s-.07.24-.07.36c0,.06.01.12.04.17.03.05.04.12.04.18,0,.08,0,.17-.03.25-.02.08-.03.17-.03.25,0,.08.02.15.05.21.04.06.06.12.06.2,0,.04,0,.07-.03.1s-.04.05-.06.07c-.02.03-.04.05-.06.08-.02.03-.03.06-.03.1,0,.07.02.15.05.22.04.08.08.14.14.21.06.06.12.11.2.15.07.04.15.06.22.06.06,0,.12-.01.17-.04.05-.03.1-.04.15-.04.07,0,.13.03.19.08.06.06.1.12.15.2.04.08.07.16.09.24.02.08.03.15.03.21ZM37.46,13.24s0-.08-.02-.12-.03-.1-.05-.14c-.02-.05-.05-.08-.08-.12-.03-.03-.07-.05-.11-.05-.05,0-.1.02-.14.05-.04.03-.09.05-.15.05h-.03c-.01.05-.02.11-.02.15v.04s.01-.02.01-.02c.01.05.04.1.09.12s.09.05.14.08c.05.02.1.04.16.06s.1.05.14.08c.04-.04.06-.1.06-.18ZM42.2,13.41s-.02-.1-.05-.14c-.03-.05-.07-.07-.13-.07s-.09.03-.11.08c-.02.05-.03.1-.03.14,0,.05,0,.11.03.15.02.05.06.07.12.07.05,0,.09-.02.11-.05.03-.03.04-.09.05-.17h0ZM42.33,14.82s-.01-.06-.04-.08c-.03-.02-.05-.04-.08-.05,0,.03-.03.06-.05.09s-.05.06-.07.09c-.02.04-.05.07-.07.1-.02.03-.03.07-.03.1,0,.04.01.07.04.09.02.02.05.04.09.05,0-.03.02-.06.05-.09.03-.03.05-.06.08-.09s.05-.07.07-.1c.02-.03.03-.07.03-.11Z" fill="#e8e9ed"/>
        <path d="M52,12.6c0,.08-.02.16-.06.22s-.11.1-.21.1c.03.09.07.18.13.26s.09.18.09.28c0,.07-.01.14-.03.2-.02.07-.05.13-.07.19-.03.06-.06.13-.08.19s-.05.13-.07.19c-.02.1-.08.24-.17.41-.09.18-.18.36-.29.55-.11.19-.21.37-.32.53-.11.16-.2.28-.27.35-.05.05-.11.08-.17.1s-.12.03-.18.04-.12.02-.18.03c-.06,0-.12.02-.18.05-.12.05-.23.12-.33.19-.1.07-.22.11-.35.11-.05,0-.1-.01-.15-.04s-.09-.05-.13-.08-.08-.06-.13-.08c-.04-.03-.09-.04-.15-.04-.06.04-.14.07-.24.1-.1.02-.2.04-.3.06-.1.01-.21.02-.31.03-.1,0-.19,0-.26,0-.24,0-.45-.05-.62-.17-.17-.11-.32-.26-.46-.44-.03.01-.07.03-.11.05s-.08.05-.12.08-.08.05-.11.08c-.03.02-.06.03-.08.03v-.1s-.06-.05-.06-.05c-.04,0-.08.01-.11.04-.03.03-.06.06-.09.09-.03.03-.06.06-.09.09-.03.03-.07.04-.12.04-.05,0-.1,0-.15-.03-.05-.02-.07-.06-.07-.13,0-.05.01-.1.03-.14.02-.04.03-.09.03-.14,0-.06,0-.12-.02-.18s-.02-.12-.02-.18c0-.06,0-.12.02-.18.01-.06.02-.12.02-.18,0-.07-.01-.15-.03-.22-.02-.07-.05-.14-.07-.22-.02-.07-.05-.14-.07-.21-.02-.07-.03-.15-.03-.22,0-.1.02-.2.07-.29s.07-.19.07-.29c0-.03,0-.06-.01-.08,0-.02-.02-.04-.03-.06,0-.02-.02-.04-.03-.07,0-.03-.01-.07-.01-.12s0-.11,0-.17c0-.06,0-.1,0-.13,0-.08,0-.15-.02-.23-.01-.07-.02-.15-.02-.23,0-.13.02-.25.05-.38s.05-.25.05-.38c0-.17-.01-.34-.04-.51-.03-.17-.04-.34-.04-.52,0-.06,0-.13.03-.19.02-.06.04-.13.06-.19.02-.06.04-.13.06-.19.02-.06.03-.12.03-.19,0-.13,0-.26-.03-.39s-.04-.25-.06-.38c-.02-.13-.04-.26-.06-.39-.02-.13-.03-.26-.03-.39,0-.08,0-.16,0-.23,0-.08,0-.15,0-.23,0-.23-.04-.41-.12-.52-.08-.12-.18-.2-.3-.25-.12-.05-.25-.08-.38-.09s-.27-.03-.38-.05c-.12-.02-.22-.06-.3-.12-.08-.06-.12-.17-.12-.32,0-.13.03-.24.1-.32s.15-.14.25-.18c.1-.04.21-.07.33-.08.12-.01.22-.02.32-.02.25,0,.51.02.75.07.25.05.5.08.75.08.06.01.1.04.11.08s.02.09.01.15c0,.06-.02.12-.03.2-.01.07-.02.15-.02.23,0,.16,0,.32-.01.48,0,.16-.01.31-.01.44,0,.04,0,.12,0,.23,0,.11,0,.24.01.38,0,.14.02.29.04.44.02.15.04.29.07.42.03.12.06.23.1.31s.09.12.15.12c.05,0,.09-.01.14-.04.04-.02.08-.05.12-.09s.08-.07.11-.11.08-.06.12-.08c.1-.04.22-.08.34-.1.12-.02.25-.03.36-.03.04,0,.09-.01.13-.04.04-.02.09-.05.13-.08.04-.03.09-.05.14-.08s.1-.04.16-.04c.07,0,.14.01.2.03.07.02.13.05.19.08s.12.06.19.08c.07.03.13.04.2.05.1,0,.2.02.3.03.1.01.2.04.29.08.05.02.09.05.12.09s.06.06.1.09c.05.03.1.05.15.06s.1,0,.15.01c.05,0,.1.02.15.03.05.02.11.05.18.11.07.06.14.12.22.18.08.06.15.13.21.19.07.07.12.14.18.22.05.08.09.16.11.26.03.19.09.39.15.62s.16.42.26.57c.08.11.14.23.19.37.05.13.08.27.08.41ZM51.25,12.9c0-.06-.03-.11-.08-.15-.05-.03-.09-.06-.15-.08-.05-.02-.09-.04-.12-.07-.03-.02-.04-.06-.01-.11,0-.04.03-.06.05-.08.02-.01.05-.02.07-.02,0-.09-.05-.19-.12-.31s-.13-.22-.16-.32c-.03-.07-.05-.14-.06-.21s-.02-.12-.04-.18-.05-.1-.08-.15c-.04-.05-.09-.09-.17-.14-.06-.03-.11-.06-.14-.08-.04-.02-.07-.04-.09-.06-.03-.02-.05-.05-.07-.08-.02-.03-.05-.09-.08-.15-.03-.08-.06-.13-.11-.17-.04-.03-.09-.05-.14-.07-.05-.01-.11-.03-.17-.04-.06,0-.12-.03-.19-.05-.16-.06-.31-.11-.46-.15-.15-.04-.31-.06-.48-.06-.33,0-.61.05-.84.15-.23.1-.41.24-.56.42-.15.18-.26.4-.33.65-.08.25-.13.53-.15.82,0,.12-.03.23-.05.35-.03.12-.06.23-.08.35-.03.11-.06.23-.08.35s-.04.23-.04.35c0,.05,0,.09,0,.11,0,.02.03.05.07.09.08.1.13.2.14.31.01.11.02.21.03.31,0,.1.03.19.06.27.03.08.11.14.23.18.07.02.13.05.16.08.04.03.07.06.09.09.02.04.05.07.07.11.02.04.05.09.09.14.1-.02.21-.04.31-.05s.21-.03.31-.05c0,.06.03.12.09.15.06.04.13.07.22.09s.17.03.25.04c.08,0,.15.01.19.01.08,0,.17,0,.26-.01.09,0,.18-.02.27-.05.09-.02.17-.06.24-.11.08-.05.14-.11.18-.19.07-.13.16-.22.26-.27.1-.06.2-.11.3-.15s.19-.1.28-.17c.09-.07.15-.17.19-.31.05-.17.11-.34.17-.52.06-.18.09-.36.09-.54,0-.06,0-.13-.02-.19-.01-.06-.03-.12-.06-.18.06.03.12.07.18.11s.13.07.19.07c.02,0,.04,0,.05-.03.01-.02.02-.04.02-.06Z" fill="#e8e9ed"/>
        <path d="M60.73,13.15c0,.07-.01.13-.03.19-.02.06-.05.11-.07.16s-.05.08-.07.11c-.02.03-.03.05-.03.05,0,.05.02.1.05.15s.05.11.05.18c0,.03-.01.05-.03.06-.02,0-.04.01-.07.01-.04,0-.08,0-.11-.01,0,.09.01.18.03.27.01.09.02.18.02.27,0,.14-.01.23-.04.28-.03.04-.05.07-.08.08-.03.01-.06.02-.08.03-.03.01-.04.06-.04.14,0,.04-.03.1-.09.17-.06.07-.13.14-.22.21-.09.07-.17.13-.26.18-.09.05-.16.07-.22.07-.01,0-.03,0-.05-.01,0,.04,0,.08,0,.12s0,.09,0,.12c0,.06-.02.11-.06.13-.04.02-.08.04-.13.06-.07.03-.15.08-.23.15-.08.07-.16.13-.24.2-.08.07-.17.13-.25.18-.09.05-.17.08-.27.08-.08,0-.15-.02-.22-.06-.07-.04-.14-.06-.23-.06-.08,0-.14.01-.2.03-.05.02-.1.05-.15.07-.05.03-.09.05-.14.07-.05.02-.1.03-.17.03-.13,0-.25-.03-.38-.1-.13-.07-.25-.12-.37-.16-.07-.02-.14-.04-.22-.05-.08-.01-.15-.03-.23-.04-.07-.02-.14-.04-.21-.07-.07-.03-.12-.08-.17-.13-.1-.13-.22-.23-.36-.32s-.28-.16-.42-.23-.28-.15-.41-.23c-.13-.08-.25-.19-.34-.32-.07-.1-.16-.21-.25-.33-.09-.12-.18-.25-.26-.38-.08-.13-.15-.27-.2-.4-.05-.14-.08-.27-.08-.4,0-.1,0-.19.03-.29s.04-.19.06-.28c.02-.1.04-.19.06-.28s.03-.19.03-.29v-.08s0-.04-.02-.07-.03-.05-.05-.07c-.02-.02-.03-.04-.05-.06-.02-.02-.03-.03-.03-.03,0,0-.01,0-.01,0,0-.04.02-.11.04-.2.02-.09.05-.18.08-.28.03-.09.06-.18.09-.26.03-.08.06-.13.08-.16.03-.02.06-.05.08-.08s.04-.06.04-.11,0-.09,0-.13c0-.04,0-.08,0-.13,0-.06,0-.09.02-.11.01-.01.03-.02.06-.02s.05,0,.07-.01c.02,0,.05-.03.07-.08.04-.09.09-.17.13-.25.04-.08.09-.14.14-.21.05-.06.1-.12.17-.18.06-.05.14-.1.23-.15.08-.04.15-.1.23-.16s.15-.13.23-.19.16-.12.24-.16c.08-.04.17-.07.26-.07.13,0,.26-.02.38-.07.12-.05.25-.08.38-.11.2-.03.4-.06.6-.08.2-.03.4-.04.6-.04.11,0,.25.02.41.05.16.04.33.08.49.14.17.06.33.12.48.2s.27.15.36.22v.02c0,.07-.01.14-.04.21-.02.07-.04.14-.04.21v.03s0,.01.01.01c.08,0,.16-.01.24-.03.08-.02.15-.03.24-.03,0,.08.05.14.11.17s.13.06.19.08c.06.03.11.08.17.16.05.08.1.16.14.26.04.1.09.19.13.28s.08.17.12.23.07.13.11.21c.03.08.06.17.08.25.02.09.04.17.05.26,0,.09.01.17.01.24,0,.1-.02.18-.05.25-.04.07-.08.12-.12.18-.04.05-.08.1-.12.15-.04.05-.05.1-.05.16,0,.03,0,.07.02.09s.03.06.06.08c0,0,.03,0,.06-.02.03,0,.05-.02.05-.04h0s-.02-.08-.05-.12-.05-.08-.05-.12c0,0,0-.03.01-.05,0-.02.02-.03.04-.03.03,0,.06.02.09.05.03.04.06.08.08.12.03.04.05.08.06.11s.02.04.02.03h0s0,.04.01.06c0,.02,0,.04,0,.05ZM59.99,13.21c0-.08-.03-.13-.09-.14-.06-.02-.12-.03-.2-.03s-.15-.01-.22-.02c-.07,0-.12-.05-.14-.11v-.07c0-.11-.01-.23-.04-.38-.03-.14-.06-.29-.1-.44-.04-.15-.08-.3-.12-.44-.04-.14-.09-.27-.12-.38s-.08-.24-.13-.37c-.04.01-.07.02-.1.02-.08,0-.16-.02-.22-.05-.06-.03-.13-.07-.21-.11-.08-.04-.17-.08-.28-.11-.11-.03-.26-.05-.44-.05-.2,0-.4-.01-.59-.04-.2-.03-.39-.04-.59-.04-.27,0-.53.06-.77.19-.24.12-.45.29-.63.49-.18.2-.32.43-.42.68s-.15.51-.15.77c0,.11,0,.23,0,.38,0,.14.02.29.04.43.02.14.05.28.1.4.04.12.1.22.18.28v.21s.04.03.08.03c.03,0,.06,0,.1,0s.06,0,.08.01c.02,0,.04.03.06.06.06.18.15.32.25.41.1.09.21.18.33.24.12.07.23.13.35.2.12.07.22.16.32.29.04,0,.08,0,.12-.01.04,0,.09,0,.12,0,.16,0,.31.01.46.03.15.02.3.03.45.03.16,0,.31-.04.44-.12.13-.08.24-.19.33-.32.06-.08.11-.15.16-.21s.1-.11.15-.17.11-.1.17-.15c.06-.05.13-.1.22-.16.03-.02.06-.04.11-.07s.08-.06.12-.1c.04-.04.08-.07.11-.11.03-.04.04-.07.04-.11,0-.04,0-.09-.02-.13-.01-.04-.02-.09-.02-.13,0-.05,0-.11.02-.18s.04-.13.07-.2c.03-.06.07-.12.12-.16.05-.04.1-.06.17-.06.05,0,.11.01.16.04s.1.05.15.09c0-.05.01-.09.01-.11Z" fill="#e8e9ed"/>
        <path d="M69.76,17.6c0,.16-.05.32-.16.49-.11.17-.23.33-.37.48s-.29.27-.43.36c-.14.1-.25.14-.32.14-.13,0-.25.02-.37.06-.12.04-.24.08-.35.14-.11.05-.27.11-.48.16-.21.05-.44.1-.68.14-.24.04-.47.08-.69.1-.22.03-.39.04-.51.04-.14,0-.29,0-.45-.01s-.32-.03-.48-.05c-.16-.02-.32-.05-.47-.09-.15-.04-.3-.08-.43-.14-.07-.03-.12-.06-.16-.09-.04-.03-.08-.06-.12-.08s-.08-.04-.13-.06-.12-.02-.21-.02c-.1,0-.19-.02-.25-.06-.06-.04-.12-.08-.16-.14-.04-.06-.08-.12-.12-.19-.04-.07-.08-.14-.13-.21-.11-.14-.19-.28-.24-.41-.05-.13-.08-.28-.08-.46,0-.25.05-.49.15-.72.1-.23.24-.44.4-.63,0-.15-.02-.29-.06-.43-.04-.14-.08-.28-.12-.43-.04-.14-.08-.28-.12-.42-.04-.14-.05-.29-.05-.43,0-.1.01-.18.04-.24.03-.06.06-.11.08-.15.03-.04.06-.08.08-.12.03-.04.04-.08.04-.13,0-.01.04-.06.11-.12.07-.07.15-.15.23-.23.08-.09.16-.18.23-.28.07-.1.11-.18.11-.26,0-.06-.03-.12-.08-.18-.05-.06-.11-.11-.17-.17-.06-.06-.11-.11-.17-.18-.05-.06-.08-.13-.08-.2,0-.11,0-.22.03-.33.02-.11.04-.22.06-.32.02-.1.04-.21.06-.32.02-.11.03-.22.03-.33,0-.02,0-.05-.01-.06,0-.02-.01-.04-.01-.06,0-.05.01-.1.04-.14.03-.04.06-.08.09-.11.03-.03.06-.06.09-.09.03-.03.04-.06.04-.09,0-.04-.01-.08-.04-.11-.03-.04-.04-.09-.04-.16v-.07c.08-.05.14-.12.19-.19.05-.07.11-.14.18-.2.1-.08.21-.17.35-.25.13-.08.26-.15.37-.21.04,0,.07.02.08.06s.04.05.08.05c.03,0,.08-.02.14-.05.06-.03.14-.07.22-.11.08-.04.18-.08.27-.11.1-.03.19-.05.28-.05.08,0,.16,0,.23.02.08.01.16.02.23.03.16.02.3.03.42.04s.24.02.34.05.2.08.29.15.18.19.28.34c.05-.04.1-.08.17-.12s.12-.07.18-.11c.06-.04.11-.08.16-.12.05-.05.09-.1.11-.17.05.03.1.04.15.04.04,0,.08-.01.12-.04s.1-.06.15-.09c.06-.03.13-.06.21-.09s.17-.04.28-.04c.17,0,.33.02.49.05s.32.06.49.07c0,.11.03.22.07.32.03.1.07.2.11.3.04.1.07.21.11.31.03.1.05.21.05.32,0,.07-.04.16-.11.25s-.17.18-.28.26c-.11.08-.23.15-.35.2-.12.05-.24.08-.33.08-.01,0-.03,0-.05-.01s-.03-.02-.03-.04c0-.05.02-.09.05-.12.03-.03.05-.08.05-.12-.06-.03-.1-.05-.11-.06s-.02,0-.03,0c-.08,0-.15.02-.2.06-.05.04-.09.1-.11.17-.02.07-.04.15-.05.23,0,.08-.01.17-.01.26,0,.1,0,.19,0,.27,0,.09,0,.16,0,.22,0,.12,0,.23-.02.33-.01.1-.07.19-.16.27-.09.08-.16.17-.21.28-.05.1-.1.2-.15.31-.05.11-.1.22-.17.32-.06.11-.15.21-.26.29-.06.06-.11.1-.14.13-.04.03-.06.05-.08.07s-.03.02-.04.03c0,0-.01,0-.02,0-.13,0-.26.02-.38.05-.12.04-.24.08-.37.12-.12.04-.24.08-.37.12-.12.04-.25.06-.38.06-.2,0-.4-.02-.59-.07-.19-.05-.39-.07-.6-.07-.1,0-.21.02-.33.06s-.24.09-.34.17c-.11.07-.19.15-.27.25-.07.09-.11.2-.11.31,0,.07.01.14.04.21s.07.14.12.2.11.11.17.14c.07.04.14.05.21.05.08,0,.16-.02.23-.06.07-.04.15-.06.23-.06.06,0,.11.02.14.05.04.03.08.05.12.05,0-.03.01-.06.03-.08.02-.02.05-.04.08-.04.03,0,.06.02.09.05s.06.06.1.07c.02-.04.06-.07.1-.08.04-.02.09-.03.13-.03.06,0,.11.01.17.03.05.02.1.04.15.07.05.03.1.05.14.07s.09.03.13.03c.04,0,.07-.01.1-.03.03-.02.06-.05.1-.08s.07-.05.12-.08c.04-.02.1-.03.17-.03.05,0,.1,0,.15.01.05,0,.1.01.15.01.07,0,.14-.02.21-.05.07-.04.14-.05.21-.05.04,0,.08,0,.11.03.04.02.08.04.14.07s.12.05.19.07c.08.02.17.03.28.03.08,0,.16.01.23.04.08.03.15.05.23.09.07.04.15.07.22.1.08.03.15.06.22.08.09.02.15.05.2.07s.08.05.11.08c.03.03.05.06.08.1.03.04.08.08.14.13.07.06.14.1.21.13.07.03.13.06.19.1.06.03.11.08.15.13s.07.13.1.24c.02.11.05.22.08.34s.04.23.04.34ZM68.58,17.36c0-.14-.04-.25-.11-.33s-.16-.14-.27-.18c-.11-.04-.23-.08-.35-.1-.12-.02-.24-.05-.34-.08h0c-.27-.09-.54-.16-.81-.22-.27-.06-.54-.09-.82-.09,0,0-.03,0-.05-.01-.02,0-.08-.04-.16-.09-.04,0-.07,0-.1.03s-.06.04-.08.07c-.03.02-.05.05-.08.07s-.06.03-.1.03c-.05,0-.1-.01-.15-.03-.05-.02-.1-.03-.15-.03-.11,0-.21.02-.31.05-.1.03-.2.07-.3.1-.1.04-.2.07-.3.1-.1.03-.21.05-.31.05-.06,0-.14.03-.22.09s-.17.13-.25.21c-.08.08-.14.17-.2.26-.05.09-.08.17-.08.23,0,.15.02.29.06.42.04.13.1.24.19.33s.18.17.3.22.26.08.42.08c.05,0,.1,0,.15.01.05,0,.1.03.15.07.17.13.36.21.57.23.21.02.41.03.62.03.13,0,.25-.03.36-.08s.23-.09.36-.12c.12-.02.25-.04.37-.03.12,0,.25-.02.36-.08.08-.04.15-.08.2-.11.05-.04.13-.05.22-.05.08,0,.16,0,.24.02.08.02.15.02.24.02s.16-.02.23-.05c.07-.04.13-.09.18-.15.05-.06.09-.13.11-.21.03-.08.04-.15.04-.23v-.07c.09,0,.14-.04.17-.12s.04-.16.04-.23ZM67.13,11.79c0-.11-.02-.23-.06-.37-.04-.14-.09-.27-.16-.39-.07-.12-.15-.24-.24-.33-.09-.1-.19-.16-.3-.2l-.85-.3s-.08,0-.1.02-.05.02-.07.03c-.02.01-.05.02-.07.03s-.06.01-.1.01c-.06,0-.12-.01-.18-.04-.05-.02-.11-.04-.17-.04-.05,0-.1.02-.13.05s-.07.07-.1.1c-.03.04-.06.06-.09.07-.03.01-.05.03-.08.04s-.05.02-.08.03c-.03.01-.06.03-.08.05-.04.02-.09.09-.14.21s-.1.24-.15.38-.09.27-.12.4-.05.21-.05.26c0,.02.01.06.04.13.03.07.07.15.11.24.05.09.1.19.15.29.06.1.11.2.16.29.05.09.1.17.14.25.04.07.07.12.09.14.06.08.13.14.21.16.08.03.16.04.24.04.07,0,.14,0,.22-.02.08,0,.15-.01.22-.01.06,0,.11,0,.17.02.05.01.11.02.17.02.16,0,.32-.05.49-.16s.32-.24.45-.4.25-.33.34-.51c.09-.18.13-.35.13-.5ZM67.86,10.25c0-.08-.04-.14-.12-.19s-.16-.07-.23-.07c-.04,0-.08,0-.11.03-.03.02-.06.05-.07.08.04,0,.07.03.1.05s.06.05.08.08.06.05.09.07c.03.02.07.03.11.03s.09,0,.13-.02v-.05Z" fill="#e8e9ed"/>
        <path d="M77.59,14.83c0,.13-.02.25-.06.34s-.09.18-.16.25c-.07.07-.14.14-.23.21-.09.06-.17.13-.26.21-.07.06-.13.1-.18.13s-.11.05-.16.07c-.05.02-.11.04-.16.06-.06.02-.12.05-.19.08-.1.05-.18.09-.25.14-.07.04-.13.08-.2.11-.07.03-.14.06-.22.08-.08.02-.18.04-.29.05-.2.02-.39.05-.59.09-.2.03-.39.05-.59.05-.04,0-.08,0-.12-.03-.04-.02-.09-.03-.14-.05-.05-.02-.11-.03-.18-.05-.07-.02-.15-.03-.24-.03-.1,0-.18-.02-.23-.04s-.11-.06-.16-.1c-.05-.04-.09-.08-.14-.13-.05-.05-.11-.09-.19-.12-.29-.13-.54-.29-.75-.48s-.38-.39-.53-.62-.27-.48-.37-.75c-.1-.27-.18-.55-.25-.84-.05-.21-.08-.41-.08-.62,0-.27.06-.52.19-.75-.05-.14-.07-.27-.07-.4,0-.09.03-.23.08-.41.05-.18.12-.37.21-.55s.18-.35.28-.5c.1-.15.19-.24.28-.27.07-.02.12-.04.14-.06.03-.02.04-.06.04-.14,0-.06.02-.11.07-.15.05-.04.1-.07.17-.09.07-.02.13-.05.2-.07.07-.02.12-.04.16-.06.18-.09.35-.16.52-.22.16-.06.33-.11.49-.15.16-.04.33-.07.51-.09s.36-.03.56-.03c.11,0,.21.01.31.04s.2.07.3.11c.09.05.19.1.28.15.09.06.18.11.27.17h0c.07,0,.14.03.21.06.07.03.14.05.21.06.07.08.16.16.27.24.11.08.22.16.32.24.1.08.19.17.27.27.08.1.11.2.11.33,0,.02,0,.04,0,.06,0,.02,0,.04-.01.07l.03-.04s.04.04.06.07c.02.03.03.07.05.11.01.04.03.08.04.12,0,.04.02.07.02.1.04.06.09.12.16.15.07.04.12.09.16.16-.05.05-.07.11-.07.19,0,.08.02.16.05.25.03.08.05.16.05.25,0,.1,0,.19-.01.28,0,.09-.01.18-.01.28,0,.07-.03.13-.08.17-.06.04-.12.07-.18.1-.07.03-.13.06-.18.09s-.08.07-.08.12c0,.04-.02.06-.07.06-.05,0-.08,0-.11,0-.21,0-.43-.03-.64-.08-.21-.05-.42-.08-.63-.08-.23,0-.46.02-.68.05-.22.03-.45.05-.68.05-.17,0-.34,0-.51-.02-.17,0-.34-.01-.51-.01-.04,0-.13,0-.25.03-.12.02-.25.04-.38.07-.13.03-.26.06-.38.1-.12.04-.21.07-.26.11,0,.02,0,.06,0,.1,0,.23.07.47.2.71.13.24.31.47.53.67.22.2.47.37.74.5.27.13.55.2.83.2.16,0,.32,0,.48.02.16.01.31.05.46.11.13-.06.25-.14.36-.22.11-.08.22-.17.32-.26s.2-.19.3-.29.2-.2.3-.29c.02-.02.07-.04.14-.05.08-.02.16-.03.25-.04.09-.01.17-.02.25-.03.08,0,.14-.01.16-.01.11,0,.22.02.31.05.03.11.04.22.04.33ZM76.49,11.86c0-.07-.01-.14-.04-.21s-.04-.14-.06-.21c-.02-.14-.04-.27-.04-.4s-.02-.26-.06-.39h0s0,.06-.03.08c-.02.03-.05.04-.08.04-.06,0-.11-.01-.17-.04s-.1-.07-.14-.11c-.19-.08-.35-.16-.5-.23-.15-.07-.3-.14-.45-.19-.15-.06-.31-.1-.48-.13-.17-.03-.36-.05-.58-.05-.02,0-.04,0-.05,0-.02,0-.03.01-.05.03l.04.08-.06.02c-.13.02-.24.05-.33.07-.09.02-.16.05-.23.09-.07.04-.14.09-.2.14-.07.06-.15.13-.25.22-.05.04-.1.08-.16.1-.06.02-.11.04-.17.06-.06.02-.11.04-.16.06-.05.02-.09.05-.13.09-.03.12-.08.24-.15.36-.07.11-.1.24-.1.36,0,.07.03.14.09.19.06.06.14.1.23.14.1.04.2.07.32.1.11.03.23.05.34.07.11.01.22.03.31.03.1,0,.17.01.22.01.19,0,.37-.02.55-.05.18-.04.36-.05.55-.05s.38,0,.57.03c.19.02.38.03.57.03.05,0,.12,0,.22,0s.19-.02.29-.04c.1-.02.18-.05.25-.1.07-.04.11-.1.11-.16Z" fill="#e8e9ed"/>
        <path d="M87.41,16.17c0,.07-.02.12-.05.17-.03.04-.08.08-.13.1-.05.02-.11.04-.17.05-.06,0-.12.01-.17.01-.07,0-.15,0-.22-.01-.07-.01-.15-.02-.22-.03-.1.03-.21.07-.35.11-.13.04-.25.05-.36.05-.03,0-.06,0-.08-.01-.03-.01-.05-.02-.08-.02-.08,0-.17.02-.25.05-.09.03-.17.05-.25.05-.14,0-.28-.02-.41-.05-.13-.04-.26-.06-.41-.07-.23-.02-.41-.11-.53-.27-.12-.16-.19-.35-.2-.57.15-.09.31-.16.48-.19.17-.03.34-.05.51-.05.1,0,.19,0,.29,0,.09,0,.19.01.29.02-.01-.37-.05-.73-.1-1.1s-.07-.73-.07-1.11c0-.13,0-.25.01-.38,0-.13.02-.25.05-.38.02-.13.06-.25.1-.38.04-.12.06-.25.06-.38,0-.08-.01-.16-.04-.23-.02-.07-.06-.14-.1-.22-.03-.06-.06-.12-.07-.2s-.02-.15-.04-.22c-.01-.08-.04-.15-.07-.22-.03-.07-.08-.14-.14-.2-.07-.06-.16-.1-.27-.14s-.27-.05-.46-.05c-.06,0-.15,0-.26.03-.11.02-.23.04-.35.07-.12.03-.23.06-.34.09-.1.04-.18.08-.22.11-.02.03-.05.06-.09.1-.04.04-.08.09-.12.13-.04.05-.08.09-.12.12-.04.04-.07.06-.1.06-.07.01-.13.03-.16.04-.04,0-.07.02-.09.04-.02.02-.04.05-.06.08-.01.04-.04.09-.07.16,0,.02-.03.06-.06.11-.03.06-.06.08-.09.08-.02,0-.04,0-.05-.03s-.03-.03-.05-.03c0,0-.02,0-.04.02-.02.01-.03.02-.04.03v.21s-.06.06-.09.06c-.03,0-.05,0-.07.01-.02,0-.03.02-.04.04,0,.02-.01.07-.01.14,0,.05-.01.1-.04.15-.02.04-.05.09-.08.13-.03.04-.05.09-.08.14-.02.05-.04.1-.04.16,0,.1.01.19.04.28.03.09.04.18.04.28,0,.06,0,.12-.03.16s-.04.08-.07.12c-.03.04-.05.07-.07.11s-.03.08-.03.12c0,.07.01.13.04.19.03.06.05.11.08.17s.06.12.08.18.04.13.04.21c0,.08,0,.17-.03.25-.02.08-.03.17-.03.26,0,.1.02.18.05.24.03.06.07.1.12.13.05.03.11.05.18.07.07.01.14.04.21.06.07.03.14.06.22.11.07.05.14.12.21.21h.04c.08,0,.14.03.18.09s.06.14.06.21-.01.13-.04.18c-.03.05-.04.12-.04.2,0,.06-.06.11-.19.15s-.27.07-.43.09c-.16.02-.32.04-.47.04-.15,0-.25.01-.3.01-.06,0-.15,0-.27,0-.12,0-.25,0-.4-.01-.15,0-.3-.02-.46-.03s-.31-.04-.45-.06c-.14-.03-.25-.06-.35-.1-.09-.04-.15-.09-.18-.15s-.05-.12-.07-.19c-.02-.07-.04-.14-.04-.21,0-.07.02-.14.05-.2.04-.06.08-.11.14-.16.07-.07.15-.11.24-.12.09-.01.17-.02.26-.02.08,0,.17,0,.25-.02.08-.01.15-.05.21-.11.06-.06.11-.16.15-.3.04-.14.06-.33.06-.58,0-.06,0-.13-.01-.19,0-.07-.02-.13-.04-.19-.01-.06-.03-.12-.04-.17s-.01-.08-.01-.11c0-.03,0-.06.03-.1.02-.03.04-.07.06-.11.02-.04.04-.08.06-.12.02-.04.03-.09.03-.15,0-.08-.02-.16-.05-.24s-.05-.16-.05-.24c0-.07.01-.13.04-.2s.04-.13.04-.2c0-.05-.01-.11-.04-.15s-.04-.1-.04-.16c0-.05,0-.11.03-.17.02-.06.03-.11.03-.17,0-.13-.01-.26-.04-.39-.03-.13-.06-.26-.08-.39-.03-.15-.08-.27-.17-.34-.08-.08-.17-.13-.27-.17-.1-.04-.21-.07-.32-.09s-.21-.06-.31-.11c-.09-.05-.17-.12-.23-.22-.06-.1-.09-.24-.09-.42,0-.13.04-.22.11-.29.08-.07.17-.12.27-.15.11-.03.22-.05.34-.06.12,0,.22,0,.31,0,.14,0,.28.02.42.06.14.04.28.07.42.08.06,0,.12.03.18.06.06.04.11.08.16.13.05.05.09.11.12.17.03.06.05.13.05.19,0,.03,0,.08.03.16.02.08.04.15.07.23.03.08.06.15.09.21.03.06.06.09.1.09.03-.02.05-.05.06-.08.01-.03.02-.06.03-.09,0-.03.04-.07.1-.12.06-.05.13-.1.21-.15.08-.05.15-.1.22-.15.07-.05.12-.09.15-.12.03-.03.05-.07.07-.11.02-.04.03-.07.05-.1.02-.03.04-.06.07-.08.03-.02.07-.03.13-.03h.04c.05,0,.1-.02.15-.07.05-.05.11-.1.19-.16s.18-.11.31-.16c.13-.05.3-.07.51-.07.18,0,.36,0,.54.01.18,0,.35.03.52.08s.32.11.46.21c.14.09.27.22.38.39.08.13.15.23.21.29s.1.12.13.18.06.13.07.21c.01.08.02.21.02.37,0,.07.01.13.04.19s.05.12.08.18c.03.06.06.13.08.19.02.07.04.15.04.23,0,.17,0,.34-.03.51-.02.17-.03.34-.03.51,0,.12-.02.24-.07.36s-.07.24-.07.36c0,.06.01.12.04.17.03.05.04.12.04.18,0,.08,0,.17-.03.25-.02.08-.03.17-.03.25,0,.08.02.15.05.21.04.06.06.12.06.2,0,.04,0,.07-.03.1s-.04.05-.06.07c-.02.03-.04.05-.06.08-.02.03-.03.06-.03.1,0,.07.02.15.05.22.04.08.08.14.14.21.06.06.12.11.2.15.07.04.15.06.22.06.06,0,.12-.01.17-.04.05-.03.1-.04.15-.04.07,0,.13.03.19.08.06.06.1.12.15.2.04.08.07.16.09.24.02.08.03.15.03.21ZM81.08,13.24s0-.08-.02-.12-.03-.1-.05-.14c-.02-.05-.05-.08-.08-.12-.03-.03-.07-.05-.11-.05-.05,0-.1.02-.14.05-.04.03-.09.05-.15.05h-.03c-.01.05-.02.11-.02.15v.04s.01-.02.01-.02c.01.05.04.1.09.12s.09.05.14.08c.05.02.1.04.16.06s.1.05.14.08c.04-.04.06-.1.06-.18ZM85.83,13.41s-.02-.1-.05-.14c-.03-.05-.07-.07-.13-.07s-.09.03-.11.08c-.02.05-.03.1-.03.14,0,.05,0,.11.03.15.02.05.06.07.12.07.05,0,.09-.02.11-.05.03-.03.04-.09.05-.17h0ZM85.95,14.82s-.01-.06-.04-.08c-.03-.02-.05-.04-.08-.05,0,.03-.03.06-.05.09s-.05.06-.07.09c-.02.04-.05.07-.07.1-.02.03-.03.07-.03.1,0,.04.01.07.04.09.02.02.05.04.09.05,0-.03.02-.06.05-.09.03-.03.05-.06.08-.09s.05-.07.07-.1c.02-.03.03-.07.03-.11Z" fill="#e8e9ed"/>
        <path d="M95.62,12.6c0,.08-.02.16-.06.22s-.11.1-.21.1c.03.09.07.18.13.26s.09.18.09.28c0,.07-.01.14-.03.2-.02.07-.05.13-.07.19-.03.06-.06.13-.08.19s-.05.13-.07.19c-.02.1-.08.24-.17.41-.09.18-.18.36-.29.55-.11.19-.21.37-.32.53-.11.16-.2.28-.27.35-.05.05-.11.08-.17.1s-.12.03-.18.04-.12.02-.18.03c-.06,0-.12.02-.18.05-.12.05-.23.12-.33.19-.1.07-.22.11-.35.11-.05,0-.1-.01-.15-.04s-.09-.05-.13-.08-.08-.06-.13-.08c-.04-.03-.09-.04-.15-.04-.06.04-.14.07-.24.1-.1.02-.2.04-.3.06-.1.01-.21.02-.31.03-.1,0-.19,0-.26,0-.24,0-.45-.05-.62-.17-.17-.11-.32-.26-.46-.44-.03.01-.07.03-.11.05s-.08.05-.12.08-.08.05-.11.08c-.03.02-.06.03-.08.03v-.1s-.06-.05-.06-.05c-.04,0-.08.01-.11.04-.03.03-.06.06-.09.09-.03.03-.06.06-.09.09-.03.03-.07.04-.12.04-.05,0-.1,0-.15-.03-.05-.02-.07-.06-.07-.13,0-.05.01-.1.03-.14.02-.04.03-.09.03-.14,0-.06,0-.12-.02-.18s-.02-.12-.02-.18c0-.06,0-.12.02-.18.01-.06.02-.12.02-.18,0-.07-.01-.15-.03-.22-.02-.07-.05-.14-.07-.22-.02-.07-.05-.14-.07-.21-.02-.07-.03-.15-.03-.22,0-.1.02-.2.07-.29s.07-.19.07-.29c0-.03,0-.06-.01-.08,0-.02-.02-.04-.03-.06,0-.02-.02-.04-.03-.07,0-.03-.01-.07-.01-.12s0-.11,0-.17c0-.06,0-.1,0-.13,0-.08,0-.15-.02-.23-.01-.07-.02-.15-.02-.23,0-.13.02-.25.05-.38s.05-.25.05-.38c0-.17-.01-.34-.04-.51-.03-.17-.04-.34-.04-.52,0-.06,0-.13.03-.19.02-.06.04-.13.06-.19.02-.06.04-.13.06-.19.02-.06.03-.12.03-.19,0-.13,0-.26-.03-.39s-.04-.25-.06-.38c-.02-.13-.04-.26-.06-.39-.02-.13-.03-.26-.03-.39,0-.08,0-.16,0-.23,0-.08,0-.15,0-.23,0-.23-.04-.41-.12-.52-.08-.12-.18-.2-.3-.25-.12-.05-.25-.08-.38-.09s-.27-.03-.38-.05c-.12-.02-.22-.06-.3-.12-.08-.06-.12-.17-.12-.32,0-.13.03-.24.1-.32s.15-.14.25-.18c.1-.04.21-.07.33-.08.12-.01.22-.02.32-.02.25,0,.51.02.75.07.25.05.5.08.75.08.06.01.1.04.11.08s.02.09.01.15c0,.06-.02.12-.03.2-.01.07-.02.15-.02.23,0,.16,0,.32-.01.48,0,.16-.01.31-.01.44,0,.04,0,.12,0,.23,0,.11,0,.24.01.38,0,.14.02.29.04.44.02.15.04.29.07.42.03.12.06.23.1.31s.09.12.15.12c.05,0,.09-.01.14-.04.04-.02.08-.05.12-.09s.08-.07.11-.11.08-.06.12-.08c.1-.04.22-.08.34-.1.12-.02.25-.03.36-.03.04,0,.09-.01.13-.04.04-.02.09-.05.13-.08.04-.03.09-.05.14-.08s.1-.04.16-.04c.07,0,.14.01.2.03.07.02.13.05.19.08s.12.06.19.08c.07.03.13.04.2.05.1,0,.2.02.3.03.1.01.2.04.29.08.05.02.09.05.12.09s.06.06.1.09c.05.03.1.05.15.06s.1,0,.15.01c.05,0,.1.02.15.03.05.02.11.05.18.11.07.06.14.12.22.18.08.06.15.13.21.19.07.07.12.14.18.22.05.08.09.16.11.26.03.19.09.39.15.62s.16.42.26.57c.08.11.14.23.19.37.05.13.08.27.08.41ZM94.87,12.9c0-.06-.03-.11-.08-.15-.05-.03-.09-.06-.15-.08-.05-.02-.09-.04-.12-.07-.03-.02-.04-.06-.01-.11,0-.04.03-.06.05-.08.02-.01.05-.02.07-.02,0-.09-.05-.19-.12-.31s-.13-.22-.16-.32c-.03-.07-.05-.14-.06-.21s-.02-.12-.04-.18-.05-.1-.08-.15c-.04-.05-.09-.09-.17-.14-.06-.03-.11-.06-.14-.08-.04-.02-.07-.04-.09-.06-.03-.02-.05-.05-.07-.08-.02-.03-.05-.09-.08-.15-.03-.08-.06-.13-.11-.17-.04-.03-.09-.05-.14-.07-.05-.01-.11-.03-.17-.04-.06,0-.12-.03-.19-.05-.16-.06-.31-.11-.46-.15-.15-.04-.31-.06-.48-.06-.33,0-.61.05-.84.15-.23.1-.41.24-.56.42-.15.18-.26.4-.33.65-.08.25-.13.53-.15.82,0,.12-.03.23-.05.35-.03.12-.06.23-.08.35-.03.11-.06.23-.08.35s-.04.23-.04.35c0,.05,0,.09,0,.11,0,.02.03.05.07.09.08.1.13.2.14.31.01.11.02.21.03.31,0,.1.03.19.06.27.03.08.11.14.23.18.07.02.13.05.16.08.04.03.07.06.09.09.02.04.05.07.07.11.02.04.05.09.09.14.1-.02.21-.04.31-.05s.21-.03.31-.05c0,.06.03.12.09.15.06.04.13.07.22.09s.17.03.25.04c.08,0,.15.01.19.01.08,0,.17,0,.26-.01.09,0,.18-.02.27-.05.09-.02.17-.06.24-.11.08-.05.14-.11.18-.19.07-.13.16-.22.26-.27.1-.06.2-.11.3-.15s.19-.1.28-.17c.09-.07.15-.17.19-.31.05-.17.11-.34.17-.52.06-.18.09-.36.09-.54,0-.06,0-.13-.02-.19-.01-.06-.03-.12-.06-.18.06.03.12.07.18.11s.13.07.19.07c.02,0,.04,0,.05-.03.01-.02.02-.04.02-.06Z" fill="#e8e9ed"/>
        <path d="M104.35,13.15c0,.07-.01.13-.03.19-.02.06-.05.11-.07.16-.03.04-.05.08-.07.11-.02.03-.03.05-.03.05,0,.05.02.1.05.15.03.05.05.11.05.18,0,.03-.01.05-.03.06-.02,0-.04.01-.07.01-.04,0-.08,0-.11-.01,0,.09.01.18.03.27.01.09.02.18.02.27,0,.14-.01.23-.04.28-.03.04-.05.07-.08.08-.03.01-.06.02-.08.03-.03.01-.04.06-.04.14,0,.04-.03.1-.09.17-.06.07-.13.14-.22.21-.09.07-.17.13-.26.18-.09.05-.16.07-.22.07-.01,0-.03,0-.05-.01,0,.04,0,.08,0,.12s0,.09,0,.12c0,.06-.02.11-.06.13-.04.02-.08.04-.13.06-.07.03-.15.08-.23.15-.08.07-.16.13-.24.2-.08.07-.17.13-.25.18-.09.05-.17.08-.27.08-.08,0-.15-.02-.22-.06-.07-.04-.14-.06-.23-.06-.08,0-.14.01-.2.03-.05.02-.1.05-.15.07-.05.03-.09.05-.14.07-.05.02-.1.03-.17.03-.13,0-.25-.03-.38-.1-.13-.07-.25-.12-.37-.16-.07-.02-.14-.04-.22-.05-.08-.01-.15-.03-.23-.04-.07-.02-.14-.04-.21-.07-.07-.03-.12-.08-.17-.13-.1-.13-.22-.23-.36-.32s-.28-.16-.42-.23-.28-.15-.41-.23c-.13-.08-.25-.19-.34-.32-.07-.1-.16-.21-.25-.33-.09-.12-.18-.25-.26-.38-.08-.13-.15-.27-.2-.4-.05-.14-.08-.27-.08-.4,0-.1,0-.19.03-.29s.04-.19.06-.28c.02-.1.04-.19.06-.28s.03-.19.03-.29v-.08s0-.04-.02-.07-.03-.05-.05-.07c-.02-.02-.03-.04-.05-.06-.02-.02-.03-.03-.03-.03,0,0-.01,0-.01,0,0-.04.02-.11.04-.2.02-.09.05-.18.08-.28.03-.09.06-.18.09-.26.03-.08.06-.13.08-.16.03-.02.06-.05.08-.08s.04-.06.04-.11,0-.09,0-.13c0-.04,0-.08,0-.13,0-.06,0-.09.02-.11.01-.01.03-.02.06-.02s.05,0,.07-.01c.02,0,.05-.03.07-.08.04-.09.09-.17.13-.25.04-.08.09-.14.14-.21.05-.06.1-.12.17-.18.06-.05.14-.1.23-.15.08-.04.15-.1.23-.16s.15-.13.23-.19.16-.12.24-.16c.08-.04.17-.07.26-.07.13,0,.26-.02.38-.07.12-.05.25-.08.38-.11.2-.03.4-.06.6-.08.2-.03.4-.04.6-.04.11,0,.25.02.41.05.16.04.33.08.5.14.17.06.33.12.48.2.15.07.27.15.36.22v.02c0,.07-.01.14-.04.21-.02.07-.04.14-.04.21v.03s0,.01.01.01c.08,0,.16-.01.24-.03.08-.02.15-.03.24-.03,0,.08.05.14.11.17s.13.06.19.08c.06.03.11.08.17.16.05.08.1.16.14.26.04.1.09.19.13.28.04.09.08.17.12.23s.07.13.11.21c.03.08.06.17.08.25.02.09.04.17.05.26,0,.09.01.17.01.24,0,.1-.02.18-.05.25-.04.07-.08.12-.12.18-.04.05-.08.1-.12.15-.04.05-.05.1-.05.16,0,.03,0,.07.02.09s.03.06.06.08c0,0,.03,0,.06-.02.03,0,.05-.02.05-.04h0s-.02-.08-.05-.12c-.03-.03-.05-.08-.05-.12,0,0,0-.03.01-.05,0-.02.02-.03.04-.03.03,0,.06.02.09.05.03.04.06.08.08.12.03.04.05.08.06.11s.02.04.02.03h0s0,.04.01.06c0,.02,0,.04,0,.05ZM103.62,13.21c0-.08-.03-.13-.09-.14-.06-.02-.12-.03-.2-.03s-.15-.01-.22-.02c-.07,0-.12-.05-.14-.11v-.07c0-.11-.01-.23-.04-.38-.03-.14-.06-.29-.1-.44-.04-.15-.08-.3-.12-.44-.04-.14-.09-.27-.12-.38s-.08-.24-.13-.37c-.04.01-.07.02-.09.02-.08,0-.16-.02-.22-.05-.06-.03-.13-.07-.21-.11-.08-.04-.17-.08-.28-.11-.11-.03-.26-.05-.44-.05-.2,0-.4-.01-.59-.04-.2-.03-.39-.04-.59-.04-.27,0-.53.06-.77.19-.24.12-.45.29-.63.49-.18.2-.32.43-.42.68s-.15.51-.15.77c0,.11,0,.23,0,.38,0,.14.02.29.04.43.02.14.05.28.1.4.04.12.1.22.18.28v.21s.04.03.08.03c.03,0,.06,0,.1,0s.06,0,.08.01c.02,0,.04.03.06.06.06.18.15.32.25.41.1.09.21.18.33.24.12.07.23.13.35.2.12.07.22.16.32.29.04,0,.08,0,.12-.01.04,0,.08,0,.12,0,.16,0,.31.01.46.03.15.02.3.03.45.03.16,0,.31-.04.44-.12.13-.08.24-.19.33-.32.06-.08.11-.15.16-.21s.1-.11.15-.17.11-.1.17-.15c.06-.05.13-.1.22-.16.03-.02.06-.04.11-.07.04-.03.08-.06.12-.1.04-.04.08-.07.11-.11.03-.04.04-.07.04-.11,0-.04,0-.09-.02-.13-.01-.04-.02-.09-.02-.13,0-.05,0-.11.02-.18s.04-.13.07-.2c.03-.06.07-.12.12-.16.05-.04.1-.06.17-.06.05,0,.11.01.16.04s.1.05.15.09c0-.05.01-.09.01-.11Z" fill="#e8e9ed"/>
        <path d="M114.45,16.02s0,.09-.02.16c-.01.07-.03.14-.06.21-.03.07-.06.13-.09.19-.03.05-.07.08-.12.08-.05,0-.11-.01-.16-.03-.05-.02-.11-.03-.16-.03-.17,0-.34.02-.51.05-.17.03-.33.05-.5.05-.08,0-.16-.01-.23-.03-.07-.02-.15-.04-.22-.07-.07-.02-.14-.05-.22-.07s-.15-.04-.23-.05c-.12-.01-.21-.06-.27-.14-.06-.08-.09-.18-.09-.29,0-.13.04-.24.11-.33.07-.09.15-.19.24-.29.09-.1.17-.22.24-.36.07-.14.11-.33.11-.57,0-.48-.02-.95-.06-1.42-.04-.47-.06-.95-.06-1.42v-.22c0-.1,0-.21-.01-.31s-.03-.2-.07-.29c-.04-.09-.1-.16-.17-.21s-.18-.08-.31-.08c-.11.07-.22.14-.32.22-.1.08-.19.17-.27.28-.03.05-.07.13-.11.24-.04.11-.08.24-.11.39s-.07.3-.1.47c-.03.17-.06.33-.08.48s-.04.29-.06.42-.02.22-.02.29c0,.19.01.37.04.56.03.19.04.38.04.56,0,.1,0,.19-.03.28-.02.09-.03.18-.03.28,0,.04,0,.08,0,.12,0,.04.02.08.04.12.05.03.12.07.19.11.08.04.15.09.21.15.07.06.12.12.17.18.05.06.07.13.07.2,0,.14-.05.26-.15.34s-.22.13-.36.13c-.03,0-.07,0-.09,0s-.06,0-.1,0c-.05,0-.1,0-.14.03-.05.02-.09.04-.14.06-.05.02-.1.04-.15.06-.05.02-.11.03-.17.03-.15,0-.3-.02-.44-.06s-.29-.06-.44-.06c-.04,0-.08-.02-.12-.05-.03-.04-.06-.08-.08-.13-.02-.05-.04-.1-.05-.15s-.01-.1-.01-.13c0-.09.02-.16.05-.2.04-.05.08-.09.14-.12s.11-.07.18-.11c.07-.04.13-.09.18-.15s.1-.15.13-.26c.04-.11.06-.25.06-.44,0-.07,0-.14-.03-.21s-.04-.14-.06-.21c-.02-.07-.04-.14-.06-.21-.02-.07-.03-.14-.03-.21,0-.13.01-.25.04-.38s.04-.25.04-.38c0-.09-.02-.18-.05-.26s-.05-.17-.05-.26c0-.06.02-.12.05-.17.04-.05.05-.1.05-.17,0-.02,0-.06-.01-.11s-.02-.12-.03-.19c-.01-.07-.02-.15-.03-.22s-.01-.15-.01-.22c0-.09.01-.18.03-.26.02-.09.03-.18.03-.26,0-.05-.01-.1-.04-.15-.03-.05-.06-.09-.11-.12-.04-.04-.09-.06-.15-.08s-.1-.03-.15-.03c-.08,0-.16.02-.24.05-.08.03-.15.07-.22.12s-.13.1-.2.16-.12.12-.18.17c-.01.04-.03.09-.04.14-.01.05-.03.09-.05.13-.02.03-.05.05-.09.07-.04.02-.08.04-.12.06-.04.02-.08.04-.11.06-.03.02-.05.05-.05.1,0,.04.01.07.04.09.03.03.06.04.08.05.05.11.07.21.07.3,0,.08,0,.16-.03.24-.02.08-.04.16-.06.23-.02.08-.04.15-.06.23-.02.08-.03.16-.03.24v.73c0,.07.02.11.03.14.02.02.04.04.06.05.02.01.04.03.07.06.02.02.04.08.06.15.01.1.03.2.04.3.01.1.02.2.02.3,0,.1,0,.2-.03.3-.02.1-.03.2-.03.3s.02.19.05.24c.03.05.07.09.12.11.05.02.1.04.15.04.05,0,.1.02.15.04s.09.05.12.1c.03.05.05.13.05.23,0,.1-.03.18-.08.24-.05.06-.13.1-.22.13-.31.08-.63.15-.96.2s-.66.07-.97.07c-.1,0-.18,0-.25-.01-.07,0-.12-.03-.17-.06-.04-.03-.07-.08-.09-.15s-.03-.17-.03-.29c0-.11.04-.21.13-.3s.19-.18.29-.26c.11-.08.2-.17.29-.25.09-.09.14-.18.14-.28,0-.04,0-.08,0-.12,0-.04,0-.07,0-.1,0-.04,0-.09.02-.13.01-.04.04-.09.08-.15,0-.11-.01-.21-.03-.32-.02-.11-.04-.21-.07-.32-.02-.11-.05-.21-.07-.32-.02-.1-.03-.21-.03-.33,0-.23.02-.45.06-.67.04-.22.06-.44.06-.67,0-.13,0-.25-.01-.37,0-.12-.02-.25-.03-.37-.01-.15-.03-.27-.05-.36-.02-.09-.05-.17-.09-.23-.04-.06-.1-.12-.18-.17-.08-.05-.18-.1-.32-.17-.08-.04-.15-.09-.21-.15-.06-.06-.09-.14-.09-.23,0-.1.02-.17.07-.22.05-.04.1-.07.16-.09.06-.02.12-.04.18-.06s.1-.06.12-.12c.02-.04.04-.07.05-.08.02,0,.05-.01.1-.01.13,0,.26.02.38.06.12.04.24.08.35.13.11.05.22.09.33.13.1.04.21.06.3.06.1,0,.21-.03.33-.1.11-.07.24-.14.38-.22s.29-.15.46-.22c.17-.07.36-.1.58-.1.08,0,.17.02.26.06.09.04.17.09.26.15s.16.12.23.19c.07.07.13.13.18.2.12-.11.25-.21.41-.29s.32-.15.49-.21.34-.09.52-.12.34-.04.5-.04c.12,0,.23.03.33.1.1.07.18.15.26.26.08.11.14.23.2.37.06.14.11.27.15.41.05.14.09.27.12.4.03.13.07.24.09.33,0,.02.02.05.02.07s0,.05,0,.08c0,.07,0,.13-.03.2s-.04.13-.06.19c-.02.06-.04.12-.06.19s-.03.13-.03.2.01.13.04.2c.03.06.04.13.04.2,0,.07-.01.14-.04.21-.03.07-.04.14-.04.21,0,.1.02.19.05.28.04.09.06.18.06.28,0,.07-.01.14-.03.21-.02.07-.05.13-.07.2-.03.07-.05.14-.07.2-.02.07-.03.14-.03.21,0,.03,0,.05,0,.07,0,.02.01.04.02.07l.29.72c.04.1.12.2.22.29s.21.18.31.27.2.18.29.27c.08.09.12.2.12.31Z" fill="#e8e9ed"/>
        <path d="M122.81,12.6c0,.08-.02.16-.06.22s-.11.1-.21.1c.03.09.07.18.13.26s.09.18.09.28c0,.07-.01.14-.03.2-.02.07-.05.13-.07.19-.03.06-.06.13-.08.19s-.05.13-.07.19c-.02.1-.08.24-.17.41-.09.18-.18.36-.29.55-.11.19-.21.37-.32.53-.11.16-.2.28-.27.35-.05.05-.11.08-.17.1s-.12.03-.18.04-.12.02-.18.03c-.06,0-.12.02-.18.05-.12.05-.23.12-.33.19-.11.07-.22.11-.36.11-.05,0-.1-.01-.15-.04s-.09-.05-.13-.08c-.04-.03-.08-.06-.13-.08-.04-.03-.09-.04-.15-.04-.06.04-.14.07-.24.1-.1.02-.2.04-.3.06-.11.01-.21.02-.31.03-.1,0-.19,0-.26,0-.24,0-.45-.05-.62-.17-.17-.11-.32-.26-.46-.44-.03.01-.07.03-.11.05s-.08.05-.12.08-.08.05-.11.08c-.03.02-.06.03-.08.03v-.1s-.06-.05-.06-.05c-.04,0-.08.01-.11.04-.03.03-.06.06-.09.09-.03.03-.06.06-.09.09-.03.03-.07.04-.12.04-.05,0-.11,0-.15-.03-.05-.02-.07-.06-.07-.13,0-.05.01-.1.03-.14.02-.04.03-.09.03-.14,0-.06,0-.12-.02-.18s-.02-.12-.02-.18c0-.06,0-.12.02-.18.01-.06.02-.12.02-.18,0-.07-.01-.15-.03-.22-.02-.07-.05-.14-.07-.22-.02-.07-.05-.14-.07-.21-.02-.07-.03-.15-.03-.22,0-.1.02-.2.07-.29s.07-.19.07-.29c0-.03,0-.06-.01-.08,0-.02-.02-.04-.03-.06,0-.02-.02-.04-.03-.07,0-.03-.01-.07-.01-.12s0-.11,0-.17c0-.06,0-.1,0-.13,0-.08,0-.15-.02-.23-.01-.07-.02-.15-.02-.23,0-.13.02-.25.05-.38s.05-.25.05-.38c0-.17-.01-.34-.04-.51-.03-.17-.04-.34-.04-.52,0-.06,0-.13.03-.19.02-.06.04-.13.06-.19.02-.06.04-.13.06-.19.02-.06.03-.12.03-.19,0-.13,0-.26-.03-.39s-.04-.25-.06-.38c-.02-.13-.04-.26-.06-.39-.02-.13-.03-.26-.03-.39,0-.08,0-.16,0-.23,0-.08,0-.15,0-.23,0-.23-.04-.41-.12-.52-.08-.12-.18-.2-.3-.25-.12-.05-.25-.08-.38-.09s-.27-.03-.38-.05c-.12-.02-.22-.06-.3-.12-.08-.06-.12-.17-.12-.32,0-.13.03-.24.1-.32s.15-.14.25-.18c.1-.04.21-.07.33-.08.12-.01.22-.02.32-.02.25,0,.5.02.75.07.25.05.5.08.75.08.06.01.09.04.11.08s.02.09.01.15c0,.06-.02.12-.03.2-.01.07-.02.15-.02.23,0,.16,0,.32-.01.48,0,.16-.01.31-.01.44,0,.04,0,.12,0,.23,0,.11,0,.24.01.38,0,.14.02.29.04.44.02.15.04.29.07.42.03.12.06.23.1.31s.09.12.15.12c.05,0,.09-.01.14-.04.04-.02.08-.05.12-.09s.08-.07.11-.11.08-.06.12-.08c.1-.04.22-.08.34-.1.12-.02.25-.03.36-.03.04,0,.09-.01.13-.04.04-.02.09-.05.13-.08.04-.03.09-.05.14-.08s.1-.04.16-.04c.07,0,.14.01.2.03.07.02.13.05.19.08.06.03.12.06.19.08.07.03.13.04.2.05.1,0,.2.02.3.03.1.01.2.04.29.08.05.02.09.05.12.09s.06.06.1.09c.05.03.11.05.15.06s.1,0,.15.01c.05,0,.1.02.15.03.05.02.12.05.18.11.07.06.14.12.22.18.08.06.15.13.21.19.07.07.12.14.18.22.05.08.09.16.11.26.03.19.09.39.15.62s.16.42.26.57c.08.11.14.23.19.37.05.13.08.27.08.41ZM122.06,12.9c0-.06-.03-.11-.08-.15-.05-.03-.09-.06-.15-.08-.05-.02-.09-.04-.12-.07-.03-.02-.04-.06-.01-.11,0-.04.03-.06.05-.08.02-.01.04-.02.07-.02,0-.09-.05-.19-.12-.31s-.13-.22-.16-.32c-.03-.07-.05-.14-.06-.21s-.02-.12-.04-.18-.05-.1-.08-.15c-.04-.05-.09-.09-.17-.14-.06-.03-.11-.06-.14-.08-.04-.02-.07-.04-.09-.06-.03-.02-.05-.05-.07-.08-.02-.03-.05-.09-.08-.15-.03-.08-.07-.13-.11-.17-.04-.03-.09-.05-.14-.07-.05-.01-.11-.03-.17-.04-.06,0-.12-.03-.19-.05-.16-.06-.32-.11-.46-.15-.15-.04-.31-.06-.48-.06-.33,0-.61.05-.84.15-.23.1-.41.24-.56.42-.15.18-.26.4-.33.65-.08.25-.13.53-.15.82,0,.12-.03.23-.05.35-.03.12-.06.23-.08.35-.03.11-.06.23-.08.35s-.04.23-.04.35c0,.05,0,.09,0,.11,0,.02.03.05.07.09.08.1.13.2.14.31.01.11.02.21.03.31,0,.1.03.19.06.27.03.08.11.14.23.18.07.02.13.05.17.08.04.03.07.06.09.09.02.04.05.07.07.11.02.04.05.09.09.14.1-.02.21-.04.31-.05s.21-.03.32-.05c0,.06.03.12.09.15.06.04.13.07.22.09s.17.03.25.04c.08,0,.15.01.19.01.08,0,.17,0,.26-.01.09,0,.18-.02.27-.05.08-.02.17-.06.24-.11.08-.05.13-.11.18-.19.07-.13.16-.22.26-.27.1-.06.2-.11.3-.15.1-.04.19-.1.28-.17.08-.07.15-.17.19-.31.05-.17.11-.34.17-.52.06-.18.09-.36.09-.54,0-.06,0-.13-.02-.19-.01-.06-.03-.12-.06-.18.06.03.12.07.18.11.06.04.13.07.19.07.02,0,.04,0,.05-.03.01-.02.02-.04.02-.06Z" fill="#e8e9ed"/>
        <path d="M130.91,14.83c0,.13-.02.25-.06.34-.04.09-.09.18-.16.25-.07.07-.14.14-.23.21-.09.06-.17.13-.26.21-.07.06-.13.1-.18.13s-.11.05-.16.07c-.05.02-.11.04-.16.06-.06.02-.12.05-.19.08-.1.05-.18.09-.25.14-.07.04-.13.08-.2.11-.07.03-.14.06-.22.08-.08.02-.18.04-.29.05-.2.02-.39.05-.59.09-.2.03-.39.05-.59.05-.04,0-.08,0-.12-.03-.04-.02-.09-.03-.14-.05-.05-.02-.11-.03-.18-.05-.07-.02-.15-.03-.24-.03-.1,0-.18-.02-.23-.04s-.11-.06-.16-.1c-.05-.04-.09-.08-.14-.13-.05-.05-.11-.09-.19-.12-.29-.13-.54-.29-.75-.48s-.38-.39-.53-.62-.27-.48-.37-.75c-.1-.27-.18-.55-.25-.84-.05-.21-.08-.41-.08-.62,0-.27.06-.52.19-.75-.05-.14-.07-.27-.07-.4,0-.09.03-.23.08-.41.05-.18.12-.37.21-.55.08-.19.18-.35.28-.5.1-.15.19-.24.28-.27.07-.02.12-.04.14-.06.03-.02.04-.06.04-.14,0-.06.02-.11.07-.15.05-.04.1-.07.17-.09.07-.02.13-.05.2-.07.07-.02.12-.04.16-.06.18-.09.35-.16.52-.22.16-.06.33-.11.49-.15.16-.04.33-.07.51-.09s.36-.03.56-.03c.11,0,.21.01.32.04s.2.07.3.11c.09.05.19.1.28.15.09.06.18.11.27.17h0c.07,0,.14.03.21.06.07.03.14.05.21.06.07.08.16.16.27.24.11.08.22.16.32.24.1.08.19.17.27.27.08.1.11.2.11.33,0,.02,0,.04,0,.06,0,.02,0,.04-.01.07l.03-.04s.04.04.06.07c.02.03.03.07.05.11.01.04.03.08.04.12,0,.04.02.07.02.1.04.06.09.12.16.15.07.04.12.09.16.16-.05.05-.07.11-.07.19,0,.08.02.16.05.25.03.08.05.16.05.25,0,.1,0,.19-.01.28,0,.09-.01.18-.01.28,0,.07-.03.13-.08.17-.06.04-.12.07-.18.1-.07.03-.13.06-.18.09s-.08.07-.08.12c0,.04-.02.06-.07.06-.05,0-.08,0-.11,0-.21,0-.43-.03-.64-.08-.21-.05-.42-.08-.63-.08-.23,0-.46.02-.68.05-.22.03-.45.05-.68.05-.17,0-.34,0-.51-.02-.17,0-.34-.01-.51-.01-.04,0-.13,0-.25.03-.12.02-.25.04-.38.07-.13.03-.26.06-.38.1-.12.04-.21.07-.26.11,0,.02,0,.06,0,.1,0,.23.07.47.2.71.13.24.31.47.53.67.22.2.47.37.74.5.27.13.55.2.83.2.16,0,.32,0,.48.02.16.01.31.05.46.11.13-.06.25-.14.36-.22.11-.08.22-.17.32-.26s.2-.19.3-.29.2-.2.3-.29c.02-.02.07-.04.14-.05.08-.02.16-.03.25-.04.09-.01.17-.02.25-.03.08,0,.13-.01.16-.01.11,0,.22.02.32.05.03.11.04.22.04.33ZM129.81,11.86c0-.07-.01-.14-.04-.21s-.04-.14-.06-.21c-.02-.14-.04-.27-.04-.4s-.02-.26-.06-.39h0s0,.06-.03.08c-.02.03-.05.04-.08.04-.06,0-.12-.01-.17-.04s-.1-.07-.14-.11c-.19-.08-.35-.16-.5-.23-.15-.07-.3-.14-.45-.19-.15-.06-.31-.1-.48-.13-.17-.03-.36-.05-.58-.05-.02,0-.04,0-.05,0-.02,0-.03.01-.05.03l.04.08-.06.02c-.13.02-.24.05-.33.07-.09.02-.16.05-.23.09-.07.04-.13.09-.2.14-.07.06-.15.13-.25.22-.05.04-.1.08-.16.1-.06.02-.11.04-.17.06-.06.02-.11.04-.16.06-.05.02-.09.05-.13.09-.03.12-.08.24-.15.36-.07.11-.1.24-.1.36,0,.07.03.14.09.19.06.06.14.1.23.14.1.04.2.07.32.1.11.03.23.05.34.07.11.01.22.03.31.03.1,0,.17.01.22.01.19,0,.37-.02.55-.05.18-.04.36-.05.55-.05s.38,0,.57.03c.19.02.38.03.57.03.05,0,.12,0,.22,0s.19-.02.29-.04c.1-.02.18-.05.25-.1.07-.04.11-.1.11-.16Z" fill="#e8e9ed"/>
      </g>
    </g>
  </g>
</svg>