<?xml version="1.0" encoding="UTF-8"?>
<svg id="Ebene_2" data-name="Ebene 2" xmlns="http://www.w3.org/2000/svg" viewBox="0 0 68 235">
  <g id="Seite_16" data-name="Seite 16">
    <g id="Licht_0">
      <rect id="Exportfläche" width="68" height="235" fill="none"/>
      <path id="Modul" d="M0,17.5v217.5h50.5V17.5H0ZM37.5,219.5H5v-120h32.5v120Z" fill="#838f9b"/>
      <g id="Kante_Modul" data-name="Kante Modul">
        <rect id="Exportfläche-2" data-name="Exportfläche" x="49" y="17.5" width="4" height="217.5" fill="#9ca5af"/>
        <polygon points="0 17.5 0 21.5 49 21.5 53 17.5 0 17.5" fill="#b3bdc6"/>
        <polygon points="49 231 0 231 0 235 53 235 49 231" fill="#4c5359"/>
      </g>
      <g id="Level">
        <g id="Kante_Level" data-name="Kante Level">
          <rect x="4" y="98.5" width="2" height="122" fill="#9ca5af"/>
          <rect x="36.5" y="98.5" width="2" height="122" fill="#626b74"/>
          <polygon points="38.5 220.5 4 220.5 6 218.5 36.5 218.5 38.5 220.5" fill="#b3bdc6"/>
          <polygon points="36.5 100.5 6 100.5 4 98.5 38.5 98.5 36.5 100.5" fill="#4c5359"/>
        </g>
        <rect id="Level_1" data-name="Level 1" x="9.25" y="182.5" width="24" height="19" fill="#fff" opacity=".2"/>
        <rect id="Level_2" data-name="Level 2" x="9.25" y="150" width="24" height="19" fill="#fff" opacity=".2"/>
        <rect id="Level_3" data-name="Level 3" x="9.25" y="117.5" width="24" height="19" fill="#fff" opacity=".2"/>
      </g>
    </g>
  </g>
</svg>